<?xml version="1.0" encoding="utf-8" standalone="no"?>
<!DOCTYPE svg PUBLIC "-//W3C//DTD SVG 1.1//EN"
  "http://www.w3.org/Graphics/SVG/1.1/DTD/svg11.dtd">
<svg xmlns:xlink="http://www.w3.org/1999/xlink" width="583.2pt" height="223.2pt" viewBox="0 0 583.2 223.2" xmlns="http://www.w3.org/2000/svg" version="1.1">
 <metadata>
  <rdf:RDF xmlns:dc="http://purl.org/dc/elements/1.1/" xmlns:cc="http://creativecommons.org/ns#" xmlns:rdf="http://www.w3.org/1999/02/22-rdf-syntax-ns#">
   <cc:Work>
    <dc:type rdf:resource="http://purl.org/dc/dcmitype/StillImage"/>
    <dc:date>2026-07-17T11:49:51.509130</dc:date>
    <dc:format>image/svg+xml</dc:format>
    <dc:creator>
     <cc:Agent>
      <dc:title>Matplotlib v3.10.9, https://matplotlib.org/</dc:title>
     </cc:Agent>
    </dc:creator>
   </cc:Work>
  </rdf:RDF>
 </metadata>
 <defs>
  <style type="text/css">*{stroke-linejoin: round; stroke-linecap: butt}</style>
 </defs>
 <g id="figure_1">
  <g id="patch_1">
   <path d="M 0 223.2
L 583.2 223.2
L 583.2 0
L 0 0
z
" style="fill: #ffffff"/>
  </g>
  <g id="axes_1">
   <g id="patch_2">
    <path d="M 43.656948 156.297646
L 286.455375 156.297646
L 286.455375 23.6355
L 43.656948 23.6355
z
" style="fill: #ffffff"/>
   </g>
   <g id="matplotlib.axis_1">
    <g id="xtick_1">
     <g id="line2d_1">
      <defs>
       <path id="m0434689c5d" d="M 0 0
L 0 4.8
" style="stroke: #1a1a1a"/>
      </defs>
      <g>
       <use xlink:href="#m0434689c5d" x="67.541929" y="156.297646" style="fill: #1a1a1a; stroke: #1a1a1a"/>
      </g>
     </g>
     <g id="text_1">
      <!-- oxyz -->
      <g style="fill: #1a1a1a" transform="translate(52.753251 175.962294) rotate(-20) scale(0.08 -0.08)">
       <defs>
        <path id="Arial-BoldMT-6f" d="M 256 1706
Q 256 2144 472 2553
Q 688 2963 1083 3178
Q 1478 3394 1966 3394
Q 2719 3394 3200 2905
Q 3681 2416 3681 1669
Q 3681 916 3195 420
Q 2709 -75 1972 -75
Q 1516 -75 1102 131
Q 688 338 472 736
Q 256 1134 256 1706
z
M 1156 1659
Q 1156 1166 1390 903
Q 1625 641 1969 641
Q 2313 641 2545 903
Q 2778 1166 2778 1666
Q 2778 2153 2545 2415
Q 2313 2678 1969 2678
Q 1625 2678 1390 2415
Q 1156 2153 1156 1659
z
" transform="scale(0.015625)"/>
        <path id="Arial-BoldMT-78" d="M 38 0
L 1234 1709
L 88 3319
L 1159 3319
L 1747 2406
L 2366 3319
L 3397 3319
L 2272 1747
L 3500 0
L 2422 0
L 1747 1028
L 1066 0
L 38 0
z
" transform="scale(0.015625)"/>
        <path id="Arial-BoldMT-79" d="M 44 3319
L 978 3319
L 1772 963
L 2547 3319
L 3456 3319
L 2284 125
L 2075 -453
Q 1959 -744 1854 -897
Q 1750 -1050 1614 -1145
Q 1478 -1241 1279 -1294
Q 1081 -1347 831 -1347
Q 578 -1347 334 -1294
L 256 -606
Q 463 -647 628 -647
Q 934 -647 1081 -467
Q 1228 -288 1306 -9
L 44 3319
z
" transform="scale(0.015625)"/>
        <path id="Arial-BoldMT-7a" d="M 106 0
L 106 684
L 1350 2113
Q 1656 2463 1803 2609
Q 1650 2600 1400 2597
L 228 2591
L 228 3319
L 2972 3319
L 2972 2697
L 1703 1234
L 1256 750
Q 1622 772 1709 772
L 3069 772
L 3069 0
L 106 0
z
" transform="scale(0.015625)"/>
       </defs>
       <use xlink:href="#Arial-BoldMT-6f"/>
       <use xlink:href="#Arial-BoldMT-78" transform="translate(61.083984 0)"/>
       <use xlink:href="#Arial-BoldMT-79" transform="translate(116.699219 0)"/>
       <use xlink:href="#Arial-BoldMT-7a" transform="translate(172.314453 0)"/>
      </g>
     </g>
    </g>
    <g id="xtick_2">
     <g id="line2d_2">
      <g>
       <use xlink:href="#m0434689c5d" x="100.185954" y="156.297646" style="fill: #1a1a1a; stroke: #1a1a1a"/>
      </g>
     </g>
     <g id="text_2">
      <!-- oxyz-iter -->
      <g style="fill: #1a1a1a" transform="translate(71.232084 181.229741) rotate(-20) scale(0.08 -0.08)">
       <defs>
        <path id="Arial-BoldMT-2d" d="M 359 1222
L 359 2100
L 2084 2100
L 2084 1222
L 359 1222
z
" transform="scale(0.015625)"/>
        <path id="Arial-BoldMT-69" d="M 459 3769
L 459 4581
L 1338 4581
L 1338 3769
L 459 3769
z
M 459 0
L 459 3319
L 1338 3319
L 1338 0
L 459 0
z
" transform="scale(0.015625)"/>
        <path id="Arial-BoldMT-74" d="M 1981 3319
L 1981 2619
L 1381 2619
L 1381 1281
Q 1381 875 1398 808
Q 1416 741 1477 697
Q 1538 653 1625 653
Q 1747 653 1978 738
L 2053 56
Q 1747 -75 1359 -75
Q 1122 -75 931 4
Q 741 84 652 211
Q 563 338 528 553
Q 500 706 500 1172
L 500 2619
L 97 2619
L 97 3319
L 500 3319
L 500 3978
L 1381 4491
L 1381 3319
L 1981 3319
z
" transform="scale(0.015625)"/>
        <path id="Arial-BoldMT-65" d="M 2381 1056
L 3256 909
Q 3088 428 2723 176
Q 2359 -75 1813 -75
Q 947 -75 531 491
Q 203 944 203 1634
Q 203 2459 634 2926
Q 1066 3394 1725 3394
Q 2466 3394 2894 2905
Q 3322 2416 3303 1406
L 1103 1406
Q 1113 1016 1316 798
Q 1519 581 1822 581
Q 2028 581 2168 693
Q 2309 806 2381 1056
z
M 2431 1944
Q 2422 2325 2234 2523
Q 2047 2722 1778 2722
Q 1491 2722 1303 2513
Q 1116 2303 1119 1944
L 2431 1944
z
" transform="scale(0.015625)"/>
        <path id="Arial-BoldMT-72" d="M 1300 0
L 422 0
L 422 3319
L 1238 3319
L 1238 2847
Q 1447 3181 1614 3287
Q 1781 3394 1994 3394
Q 2294 3394 2572 3228
L 2300 2463
Q 2078 2606 1888 2606
Q 1703 2606 1575 2504
Q 1447 2403 1373 2137
Q 1300 1872 1300 1025
L 1300 0
z
" transform="scale(0.015625)"/>
       </defs>
       <use xlink:href="#Arial-BoldMT-6f"/>
       <use xlink:href="#Arial-BoldMT-78" transform="translate(61.083984 0)"/>
       <use xlink:href="#Arial-BoldMT-79" transform="translate(116.699219 0)"/>
       <use xlink:href="#Arial-BoldMT-7a" transform="translate(172.314453 0)"/>
       <use xlink:href="#Arial-BoldMT-2d" transform="translate(222.314453 0)"/>
       <use xlink:href="#Arial-BoldMT-69" transform="translate(255.615234 0)"/>
       <use xlink:href="#Arial-BoldMT-74" transform="translate(283.398438 0)"/>
       <use xlink:href="#Arial-BoldMT-65" transform="translate(316.699219 0)"/>
       <use xlink:href="#Arial-BoldMT-72" transform="translate(372.314453 0)"/>
      </g>
     </g>
    </g>
    <g id="xtick_3">
     <g id="line2d_3">
      <g>
       <use xlink:href="#m0434689c5d" x="132.82998" y="156.297646" style="fill: #1a1a1a; stroke: #1a1a1a"/>
      </g>
     </g>
     <g id="text_3">
      <!-- oxyz-to-ase (12 cores) -->
      <g style="fill: #1a1a1a" transform="translate(55.865322 198.807996) rotate(-20) scale(0.08 -0.08)">
       <defs>
        <path id="Arial-BoldMT-61" d="M 1116 2306
L 319 2450
Q 453 2931 781 3162
Q 1109 3394 1756 3394
Q 2344 3394 2631 3255
Q 2919 3116 3036 2902
Q 3153 2688 3153 2116
L 3144 1091
Q 3144 653 3186 445
Q 3228 238 3344 0
L 2475 0
Q 2441 88 2391 259
Q 2369 338 2359 363
Q 2134 144 1878 34
Q 1622 -75 1331 -75
Q 819 -75 523 203
Q 228 481 228 906
Q 228 1188 362 1408
Q 497 1628 739 1745
Q 981 1863 1438 1950
Q 2053 2066 2291 2166
L 2291 2253
Q 2291 2506 2166 2614
Q 2041 2722 1694 2722
Q 1459 2722 1328 2630
Q 1197 2538 1116 2306
z
M 2291 1594
Q 2122 1538 1756 1459
Q 1391 1381 1278 1306
Q 1106 1184 1106 997
Q 1106 813 1243 678
Q 1381 544 1594 544
Q 1831 544 2047 700
Q 2206 819 2256 991
Q 2291 1103 2291 1419
L 2291 1594
z
" transform="scale(0.015625)"/>
        <path id="Arial-BoldMT-73" d="M 150 947
L 1031 1081
Q 1088 825 1259 692
Q 1431 559 1741 559
Q 2081 559 2253 684
Q 2369 772 2369 919
Q 2369 1019 2306 1084
Q 2241 1147 2013 1200
Q 950 1434 666 1628
Q 272 1897 272 2375
Q 272 2806 612 3100
Q 953 3394 1669 3394
Q 2350 3394 2681 3172
Q 3013 2950 3138 2516
L 2309 2363
Q 2256 2556 2107 2659
Q 1959 2763 1684 2763
Q 1338 2763 1188 2666
Q 1088 2597 1088 2488
Q 1088 2394 1175 2328
Q 1294 2241 1995 2081
Q 2697 1922 2975 1691
Q 3250 1456 3250 1038
Q 3250 581 2869 253
Q 2488 -75 1741 -75
Q 1063 -75 667 200
Q 272 475 150 947
z
" transform="scale(0.015625)"/>
        <path id="Arial-BoldMT-20" transform="scale(0.015625)"/>
        <path id="Arial-BoldMT-28" d="M 1916 -1347
L 1313 -1347
Q 834 -625 584 153
Q 334 931 334 1659
Q 334 2563 644 3369
Q 913 4069 1325 4659
L 1925 4659
Q 1497 3713 1336 3048
Q 1175 2384 1175 1641
Q 1175 1128 1270 590
Q 1366 53 1531 -431
Q 1641 -750 1916 -1347
z
" transform="scale(0.015625)"/>
        <path id="Arial-BoldMT-31" d="M 2519 0
L 1641 0
L 1641 3309
Q 1159 2859 506 2644
L 506 3441
Q 850 3553 1253 3867
Q 1656 4181 1806 4600
L 2519 4600
L 2519 0
z
" transform="scale(0.015625)"/>
        <path id="Arial-BoldMT-32" d="M 3238 816
L 3238 0
L 159 0
Q 209 463 459 877
Q 709 1291 1447 1975
Q 2041 2528 2175 2725
Q 2356 2997 2356 3263
Q 2356 3556 2198 3714
Q 2041 3872 1763 3872
Q 1488 3872 1325 3706
Q 1163 3541 1138 3156
L 263 3244
Q 341 3969 753 4284
Q 1166 4600 1784 4600
Q 2463 4600 2850 4234
Q 3238 3869 3238 3325
Q 3238 3016 3127 2736
Q 3016 2456 2775 2150
Q 2616 1947 2200 1565
Q 1784 1184 1673 1059
Q 1563 934 1494 816
L 3238 816
z
" transform="scale(0.015625)"/>
        <path id="Arial-BoldMT-63" d="M 3353 2338
L 2488 2181
Q 2444 2441 2289 2572
Q 2134 2703 1888 2703
Q 1559 2703 1364 2476
Q 1169 2250 1169 1719
Q 1169 1128 1367 884
Q 1566 641 1900 641
Q 2150 641 2309 783
Q 2469 925 2534 1272
L 3397 1125
Q 3263 531 2881 228
Q 2500 -75 1859 -75
Q 1131 -75 698 384
Q 266 844 266 1656
Q 266 2478 700 2936
Q 1134 3394 1875 3394
Q 2481 3394 2839 3133
Q 3197 2872 3353 2338
z
" transform="scale(0.015625)"/>
        <path id="Arial-BoldMT-29" d="M 216 -1347
Q 475 -791 581 -494
Q 688 -197 778 190
Q 869 578 912 926
Q 956 1275 956 1641
Q 956 2384 797 3048
Q 638 3713 209 4659
L 806 4659
Q 1278 3988 1539 3234
Q 1800 2481 1800 1706
Q 1800 1053 1594 306
Q 1359 -531 822 -1347
L 216 -1347
z
" transform="scale(0.015625)"/>
       </defs>
       <use xlink:href="#Arial-BoldMT-6f"/>
       <use xlink:href="#Arial-BoldMT-78" transform="translate(61.083984 0)"/>
       <use xlink:href="#Arial-BoldMT-79" transform="translate(116.699219 0)"/>
       <use xlink:href="#Arial-BoldMT-7a" transform="translate(172.314453 0)"/>
       <use xlink:href="#Arial-BoldMT-2d" transform="translate(222.314453 0)"/>
       <use xlink:href="#Arial-BoldMT-74" transform="translate(255.615234 0)"/>
       <use xlink:href="#Arial-BoldMT-6f" transform="translate(288.916016 0)"/>
       <use xlink:href="#Arial-BoldMT-2d" transform="translate(350 0)"/>
       <use xlink:href="#Arial-BoldMT-61" transform="translate(383.300781 0)"/>
       <use xlink:href="#Arial-BoldMT-73" transform="translate(438.916016 0)"/>
       <use xlink:href="#Arial-BoldMT-65" transform="translate(494.53125 0)"/>
       <use xlink:href="#Arial-BoldMT-20" transform="translate(550.146484 0)"/>
       <use xlink:href="#Arial-BoldMT-28" transform="translate(577.929688 0)"/>
       <use xlink:href="#Arial-BoldMT-31" transform="translate(611.230469 0)"/>
       <use xlink:href="#Arial-BoldMT-32" transform="translate(666.845703 0)"/>
       <use xlink:href="#Arial-BoldMT-20" transform="translate(722.460938 0)"/>
       <use xlink:href="#Arial-BoldMT-63" transform="translate(750.244141 0)"/>
       <use xlink:href="#Arial-BoldMT-6f" transform="translate(805.859375 0)"/>
       <use xlink:href="#Arial-BoldMT-72" transform="translate(866.943359 0)"/>
       <use xlink:href="#Arial-BoldMT-65" transform="translate(905.859375 0)"/>
       <use xlink:href="#Arial-BoldMT-73" transform="translate(961.474609 0)"/>
       <use xlink:href="#Arial-BoldMT-29" transform="translate(1017.089844 0)"/>
      </g>
     </g>
    </g>
    <g id="xtick_4">
     <g id="line2d_4">
      <g>
       <use xlink:href="#m0434689c5d" x="165.474005" y="156.297646" style="fill: #1a1a1a; stroke: #1a1a1a"/>
      </g>
     </g>
     <g id="text_4">
      <!-- oxyz-to-ase-serial -->
      <g style="fill: #1a1a1a" transform="translate(103.931594 193.091) rotate(-20) scale(0.08 -0.08)">
       <defs>
        <path id="Arial-BoldMT-6c" d="M 459 0
L 459 4581
L 1338 4581
L 1338 0
L 459 0
z
" transform="scale(0.015625)"/>
       </defs>
       <use xlink:href="#Arial-BoldMT-6f"/>
       <use xlink:href="#Arial-BoldMT-78" transform="translate(61.083984 0)"/>
       <use xlink:href="#Arial-BoldMT-79" transform="translate(116.699219 0)"/>
       <use xlink:href="#Arial-BoldMT-7a" transform="translate(172.314453 0)"/>
       <use xlink:href="#Arial-BoldMT-2d" transform="translate(222.314453 0)"/>
       <use xlink:href="#Arial-BoldMT-74" transform="translate(255.615234 0)"/>
       <use xlink:href="#Arial-BoldMT-6f" transform="translate(288.916016 0)"/>
       <use xlink:href="#Arial-BoldMT-2d" transform="translate(350 0)"/>
       <use xlink:href="#Arial-BoldMT-61" transform="translate(383.300781 0)"/>
       <use xlink:href="#Arial-BoldMT-73" transform="translate(438.916016 0)"/>
       <use xlink:href="#Arial-BoldMT-65" transform="translate(494.53125 0)"/>
       <use xlink:href="#Arial-BoldMT-2d" transform="translate(550.146484 0)"/>
       <use xlink:href="#Arial-BoldMT-73" transform="translate(583.447266 0)"/>
       <use xlink:href="#Arial-BoldMT-65" transform="translate(639.0625 0)"/>
       <use xlink:href="#Arial-BoldMT-72" transform="translate(694.677734 0)"/>
       <use xlink:href="#Arial-BoldMT-69" transform="translate(733.59375 0)"/>
       <use xlink:href="#Arial-BoldMT-61" transform="translate(761.376953 0)"/>
       <use xlink:href="#Arial-BoldMT-6c" transform="translate(816.992188 0)"/>
      </g>
     </g>
    </g>
    <g id="xtick_5">
     <g id="line2d_5">
      <g>
       <use xlink:href="#m0434689c5d" x="198.118031" y="156.297646" style="fill: #1a1a1a; stroke: #1a1a1a"/>
      </g>
     </g>
     <g id="text_5">
      <!-- ase -->
      <g style="fill: #1a1a1a" transform="translate(187.535151 174.543247) rotate(-20) scale(0.08 -0.08)">
       <use xlink:href="#Arial-BoldMT-61"/>
       <use xlink:href="#Arial-BoldMT-73" transform="translate(55.615234 0)"/>
       <use xlink:href="#Arial-BoldMT-65" transform="translate(111.230469 0)"/>
      </g>
     </g>
    </g>
    <g id="xtick_6">
     <g id="line2d_6">
      <g>
       <use xlink:href="#m0434689c5d" x="230.762056" y="156.297646" style="fill: #1a1a1a; stroke: #1a1a1a"/>
      </g>
     </g>
     <g id="text_6">
      <!-- cextxyz -->
      <g style="fill: #1a1a1a" transform="translate(205.520472 179.766841) rotate(-20) scale(0.08 -0.08)">
       <use xlink:href="#Arial-BoldMT-63"/>
       <use xlink:href="#Arial-BoldMT-65" transform="translate(55.615234 0)"/>
       <use xlink:href="#Arial-BoldMT-78" transform="translate(111.230469 0)"/>
       <use xlink:href="#Arial-BoldMT-74" transform="translate(166.845703 0)"/>
       <use xlink:href="#Arial-BoldMT-78" transform="translate(200.146484 0)"/>
       <use xlink:href="#Arial-BoldMT-79" transform="translate(255.761719 0)"/>
       <use xlink:href="#Arial-BoldMT-7a" transform="translate(311.376953 0)"/>
      </g>
     </g>
    </g>
    <g id="xtick_7">
     <g id="line2d_7">
      <g>
       <use xlink:href="#m0434689c5d" x="263.406081" y="156.297646" style="fill: #1a1a1a; stroke: #1a1a1a"/>
      </g>
     </g>
     <g id="text_7">
      <!-- cextxyz-to-ase -->
      <g style="fill: #1a1a1a" transform="translate(213.522233 188.735891) rotate(-20) scale(0.08 -0.08)">
       <use xlink:href="#Arial-BoldMT-63"/>
       <use xlink:href="#Arial-BoldMT-65" transform="translate(55.615234 0)"/>
       <use xlink:href="#Arial-BoldMT-78" transform="translate(111.230469 0)"/>
       <use xlink:href="#Arial-BoldMT-74" transform="translate(166.845703 0)"/>
       <use xlink:href="#Arial-BoldMT-78" transform="translate(200.146484 0)"/>
       <use xlink:href="#Arial-BoldMT-79" transform="translate(255.761719 0)"/>
       <use xlink:href="#Arial-BoldMT-7a" transform="translate(311.376953 0)"/>
       <use xlink:href="#Arial-BoldMT-2d" transform="translate(361.376953 0)"/>
       <use xlink:href="#Arial-BoldMT-74" transform="translate(394.677734 0)"/>
       <use xlink:href="#Arial-BoldMT-6f" transform="translate(427.978516 0)"/>
       <use xlink:href="#Arial-BoldMT-2d" transform="translate(489.0625 0)"/>
       <use xlink:href="#Arial-BoldMT-61" transform="translate(522.363281 0)"/>
       <use xlink:href="#Arial-BoldMT-73" transform="translate(577.978516 0)"/>
       <use xlink:href="#Arial-BoldMT-65" transform="translate(633.59375 0)"/>
      </g>
     </g>
    </g>
    <g id="text_8">
     <!-- reader -->
     <g style="fill: #1a1a1a" transform="translate(150.380162 211.261703) scale(0.096 -0.096)">
      <defs>
       <path id="Arial-BoldMT-64" d="M 3503 0
L 2688 0
L 2688 488
Q 2484 203 2207 64
Q 1931 -75 1650 -75
Q 1078 -75 670 386
Q 263 847 263 1672
Q 263 2516 659 2955
Q 1056 3394 1663 3394
Q 2219 3394 2625 2931
L 2625 4581
L 3503 4581
L 3503 0
z
M 1159 1731
Q 1159 1200 1306 963
Q 1519 619 1900 619
Q 2203 619 2415 876
Q 2628 1134 2628 1647
Q 2628 2219 2422 2470
Q 2216 2722 1894 2722
Q 1581 2722 1370 2473
Q 1159 2225 1159 1731
z
" transform="scale(0.015625)"/>
      </defs>
      <use xlink:href="#Arial-BoldMT-72"/>
      <use xlink:href="#Arial-BoldMT-65" transform="translate(38.916016 0)"/>
      <use xlink:href="#Arial-BoldMT-61" transform="translate(94.53125 0)"/>
      <use xlink:href="#Arial-BoldMT-64" transform="translate(150.146484 0)"/>
      <use xlink:href="#Arial-BoldMT-65" transform="translate(211.230469 0)"/>
      <use xlink:href="#Arial-BoldMT-72" transform="translate(266.845703 0)"/>
     </g>
    </g>
   </g>
   <g id="matplotlib.axis_2">
    <g id="ytick_1">
     <g id="line2d_8">
      <path d="M 43.656948 130.682322
L 286.455375 130.682322
" clip-path="url(#p877db8904f)" style="fill: none; stroke: #e9e9e9; stroke-width: 0.7; stroke-linecap: round"/>
     </g>
     <g id="line2d_9">
      <defs>
       <path id="m8a506ca3f7" d="M 0 0
L -4.5 0
" style="stroke: #1a1a1a; stroke-width: 1.1"/>
      </defs>
      <g>
       <use xlink:href="#m8a506ca3f7" x="43.656948" y="130.682322" style="fill: #1a1a1a; stroke: #1a1a1a; stroke-width: 1.1"/>
      </g>
     </g>
     <g id="text_9">
      <!-- $\mathdefault{10^{5}}$ -->
      <g style="fill: #1a1a1a" transform="translate(23.096948 134.767322) scale(0.08 -0.08)">
       <defs>
        <path id="ArialMT-31" d="M 2384 0
L 1822 0
L 1822 3584
Q 1619 3391 1289 3197
Q 959 3003 697 2906
L 697 3450
Q 1169 3672 1522 3987
Q 1875 4303 2022 4600
L 2384 4600
L 2384 0
z
" transform="scale(0.015625)"/>
        <path id="ArialMT-30" d="M 266 2259
Q 266 3072 433 3567
Q 600 4063 929 4331
Q 1259 4600 1759 4600
Q 2128 4600 2406 4451
Q 2684 4303 2865 4023
Q 3047 3744 3150 3342
Q 3253 2941 3253 2259
Q 3253 1453 3087 958
Q 2922 463 2592 192
Q 2263 -78 1759 -78
Q 1097 -78 719 397
Q 266 969 266 2259
z
M 844 2259
Q 844 1131 1108 757
Q 1372 384 1759 384
Q 2147 384 2411 759
Q 2675 1134 2675 2259
Q 2675 3391 2411 3762
Q 2147 4134 1753 4134
Q 1366 4134 1134 3806
Q 844 3388 844 2259
z
" transform="scale(0.015625)"/>
        <path id="ArialMT-35" d="M 266 1200
L 856 1250
Q 922 819 1161 601
Q 1400 384 1738 384
Q 2144 384 2425 690
Q 2706 997 2706 1503
Q 2706 1984 2436 2262
Q 2166 2541 1728 2541
Q 1456 2541 1237 2417
Q 1019 2294 894 2097
L 366 2166
L 809 4519
L 3088 4519
L 3088 3981
L 1259 3981
L 1013 2750
Q 1425 3038 1878 3038
Q 2478 3038 2890 2622
Q 3303 2206 3303 1553
Q 3303 931 2941 478
Q 2500 -78 1738 -78
Q 1113 -78 717 272
Q 322 622 266 1200
z
" transform="scale(0.015625)"/>
       </defs>
       <use xlink:href="#ArialMT-31" transform="translate(0 0.879688)"/>
       <use xlink:href="#ArialMT-30" transform="translate(55.615234 0.879688)"/>
       <use xlink:href="#ArialMT-35" transform="translate(112.972813 70.573438) scale(0.7)"/>
      </g>
     </g>
    </g>
    <g id="ytick_2">
     <g id="line2d_10">
      <path d="M 43.656948 84.192821
L 286.455375 84.192821
" clip-path="url(#p877db8904f)" style="fill: none; stroke: #e9e9e9; stroke-width: 0.7; stroke-linecap: round"/>
     </g>
     <g id="line2d_11">
      <g>
       <use xlink:href="#m8a506ca3f7" x="43.656948" y="84.192821" style="fill: #1a1a1a; stroke: #1a1a1a; stroke-width: 1.1"/>
      </g>
     </g>
     <g id="text_10">
      <!-- $\mathdefault{10^{6}}$ -->
      <g style="fill: #1a1a1a" transform="translate(23.096948 88.317821) scale(0.08 -0.08)">
       <defs>
        <path id="ArialMT-36" d="M 3184 3459
L 2625 3416
Q 2550 3747 2413 3897
Q 2184 4138 1850 4138
Q 1581 4138 1378 3988
Q 1113 3794 959 3422
Q 806 3050 800 2363
Q 1003 2672 1297 2822
Q 1591 2972 1913 2972
Q 2475 2972 2870 2558
Q 3266 2144 3266 1488
Q 3266 1056 3080 686
Q 2894 316 2569 119
Q 2244 -78 1831 -78
Q 1128 -78 684 439
Q 241 956 241 2144
Q 241 3472 731 4075
Q 1159 4600 1884 4600
Q 2425 4600 2770 4297
Q 3116 3994 3184 3459
z
M 888 1484
Q 888 1194 1011 928
Q 1134 663 1356 523
Q 1578 384 1822 384
Q 2178 384 2434 671
Q 2691 959 2691 1453
Q 2691 1928 2437 2201
Q 2184 2475 1800 2475
Q 1419 2475 1153 2201
Q 888 1928 888 1484
z
" transform="scale(0.015625)"/>
       </defs>
       <use xlink:href="#ArialMT-31" transform="translate(0 0.99375)"/>
       <use xlink:href="#ArialMT-30" transform="translate(55.615234 0.99375)"/>
       <use xlink:href="#ArialMT-36" transform="translate(112.972813 70.6875) scale(0.7)"/>
      </g>
     </g>
    </g>
    <g id="ytick_3">
     <g id="line2d_12">
      <path d="M 43.656948 37.70332
L 286.455375 37.70332
" clip-path="url(#p877db8904f)" style="fill: none; stroke: #e9e9e9; stroke-width: 0.7; stroke-linecap: round"/>
     </g>
     <g id="line2d_13">
      <g>
       <use xlink:href="#m8a506ca3f7" x="43.656948" y="37.70332" style="fill: #1a1a1a; stroke: #1a1a1a; stroke-width: 1.1"/>
      </g>
     </g>
     <g id="text_11">
      <!-- $\mathdefault{10^{7}}$ -->
      <g style="fill: #1a1a1a" transform="translate(23.096948 41.78832) scale(0.08 -0.08)">
       <defs>
        <path id="ArialMT-37" d="M 303 3981
L 303 4522
L 3269 4522
L 3269 4084
Q 2831 3619 2401 2847
Q 1972 2075 1738 1259
Q 1569 684 1522 0
L 944 0
Q 953 541 1156 1306
Q 1359 2072 1739 2783
Q 2119 3494 2547 3981
L 303 3981
z
" transform="scale(0.015625)"/>
       </defs>
       <use xlink:href="#ArialMT-31" transform="translate(0 0.846875)"/>
       <use xlink:href="#ArialMT-30" transform="translate(55.615234 0.846875)"/>
       <use xlink:href="#ArialMT-37" transform="translate(112.972813 70.540625) scale(0.7)"/>
      </g>
     </g>
    </g>
    <g id="ytick_4">
     <g id="line2d_14">
      <defs>
       <path id="mb437f96f91" d="M 0 0
L -2.5 0
" style="stroke: #1a1a1a; stroke-width: 0.8"/>
      </defs>
      <g>
       <use xlink:href="#mb437f96f91" x="43.656948" y="154.990694" style="fill: #1a1a1a; stroke: #1a1a1a; stroke-width: 0.8"/>
      </g>
     </g>
    </g>
    <g id="ytick_5">
     <g id="line2d_15">
      <g>
       <use xlink:href="#mb437f96f91" x="43.656948" y="149.182354" style="fill: #1a1a1a; stroke: #1a1a1a; stroke-width: 0.8"/>
      </g>
     </g>
    </g>
    <g id="ytick_6">
     <g id="line2d_16">
      <g>
       <use xlink:href="#mb437f96f91" x="43.656948" y="144.677056" style="fill: #1a1a1a; stroke: #1a1a1a; stroke-width: 0.8"/>
      </g>
     </g>
    </g>
    <g id="ytick_7">
     <g id="line2d_17">
      <g>
       <use xlink:href="#mb437f96f91" x="43.656948" y="140.995959" style="fill: #1a1a1a; stroke: #1a1a1a; stroke-width: 0.8"/>
      </g>
     </g>
    </g>
    <g id="ytick_8">
     <g id="line2d_18">
      <g>
       <use xlink:href="#mb437f96f91" x="43.656948" y="137.883637" style="fill: #1a1a1a; stroke: #1a1a1a; stroke-width: 0.8"/>
      </g>
     </g>
    </g>
    <g id="ytick_9">
     <g id="line2d_19">
      <g>
       <use xlink:href="#mb437f96f91" x="43.656948" y="135.18762" style="fill: #1a1a1a; stroke: #1a1a1a; stroke-width: 0.8"/>
      </g>
     </g>
    </g>
    <g id="ytick_10">
     <g id="line2d_20">
      <g>
       <use xlink:href="#mb437f96f91" x="43.656948" y="132.809565" style="fill: #1a1a1a; stroke: #1a1a1a; stroke-width: 0.8"/>
      </g>
     </g>
    </g>
    <g id="ytick_11">
     <g id="line2d_21">
      <g>
       <use xlink:href="#mb437f96f91" x="43.656948" y="116.687587" style="fill: #1a1a1a; stroke: #1a1a1a; stroke-width: 0.8"/>
      </g>
     </g>
    </g>
    <g id="ytick_12">
     <g id="line2d_22">
      <g>
       <use xlink:href="#mb437f96f91" x="43.656948" y="108.501193" style="fill: #1a1a1a; stroke: #1a1a1a; stroke-width: 0.8"/>
      </g>
     </g>
    </g>
    <g id="ytick_13">
     <g id="line2d_23">
      <g>
       <use xlink:href="#mb437f96f91" x="43.656948" y="102.692853" style="fill: #1a1a1a; stroke: #1a1a1a; stroke-width: 0.8"/>
      </g>
     </g>
    </g>
    <g id="ytick_14">
     <g id="line2d_24">
      <g>
       <use xlink:href="#mb437f96f91" x="43.656948" y="98.187555" style="fill: #1a1a1a; stroke: #1a1a1a; stroke-width: 0.8"/>
      </g>
     </g>
    </g>
    <g id="ytick_15">
     <g id="line2d_25">
      <g>
       <use xlink:href="#mb437f96f91" x="43.656948" y="94.506458" style="fill: #1a1a1a; stroke: #1a1a1a; stroke-width: 0.8"/>
      </g>
     </g>
    </g>
    <g id="ytick_16">
     <g id="line2d_26">
      <g>
       <use xlink:href="#mb437f96f91" x="43.656948" y="91.394136" style="fill: #1a1a1a; stroke: #1a1a1a; stroke-width: 0.8"/>
      </g>
     </g>
    </g>
    <g id="ytick_17">
     <g id="line2d_27">
      <g>
       <use xlink:href="#mb437f96f91" x="43.656948" y="88.698119" style="fill: #1a1a1a; stroke: #1a1a1a; stroke-width: 0.8"/>
      </g>
     </g>
    </g>
    <g id="ytick_18">
     <g id="line2d_28">
      <g>
       <use xlink:href="#mb437f96f91" x="43.656948" y="86.320064" style="fill: #1a1a1a; stroke: #1a1a1a; stroke-width: 0.8"/>
      </g>
     </g>
    </g>
    <g id="ytick_19">
     <g id="line2d_29">
      <g>
       <use xlink:href="#mb437f96f91" x="43.656948" y="70.198087" style="fill: #1a1a1a; stroke: #1a1a1a; stroke-width: 0.8"/>
      </g>
     </g>
    </g>
    <g id="ytick_20">
     <g id="line2d_30">
      <g>
       <use xlink:href="#mb437f96f91" x="43.656948" y="62.011692" style="fill: #1a1a1a; stroke: #1a1a1a; stroke-width: 0.8"/>
      </g>
     </g>
    </g>
    <g id="ytick_21">
     <g id="line2d_31">
      <g>
       <use xlink:href="#mb437f96f91" x="43.656948" y="56.203352" style="fill: #1a1a1a; stroke: #1a1a1a; stroke-width: 0.8"/>
      </g>
     </g>
    </g>
    <g id="ytick_22">
     <g id="line2d_32">
      <g>
       <use xlink:href="#mb437f96f91" x="43.656948" y="51.698054" style="fill: #1a1a1a; stroke: #1a1a1a; stroke-width: 0.8"/>
      </g>
     </g>
    </g>
    <g id="ytick_23">
     <g id="line2d_33">
      <g>
       <use xlink:href="#mb437f96f91" x="43.656948" y="48.016958" style="fill: #1a1a1a; stroke: #1a1a1a; stroke-width: 0.8"/>
      </g>
     </g>
    </g>
    <g id="ytick_24">
     <g id="line2d_34">
      <g>
       <use xlink:href="#mb437f96f91" x="43.656948" y="44.904635" style="fill: #1a1a1a; stroke: #1a1a1a; stroke-width: 0.8"/>
      </g>
     </g>
    </g>
    <g id="ytick_25">
     <g id="line2d_35">
      <g>
       <use xlink:href="#mb437f96f91" x="43.656948" y="42.208618" style="fill: #1a1a1a; stroke: #1a1a1a; stroke-width: 0.8"/>
      </g>
     </g>
    </g>
    <g id="ytick_26">
     <g id="line2d_36">
      <g>
       <use xlink:href="#mb437f96f91" x="43.656948" y="39.830563" style="fill: #1a1a1a; stroke: #1a1a1a; stroke-width: 0.8"/>
      </g>
     </g>
    </g>
    <g id="ytick_27">
     <g id="line2d_37">
      <g>
       <use xlink:href="#mb437f96f91" x="43.656948" y="23.708586" style="fill: #1a1a1a; stroke: #1a1a1a; stroke-width: 0.8"/>
      </g>
     </g>
    </g>
    <g id="text_12">
     <!-- atoms/s — higher is better -->
     <g style="fill: #1a1a1a" transform="translate(17.076448 150.244073) rotate(-90) scale(0.096 -0.096)">
      <defs>
       <path id="Arial-BoldMT-6d" d="M 394 3319
L 1203 3319
L 1203 2866
Q 1638 3394 2238 3394
Q 2556 3394 2790 3262
Q 3025 3131 3175 2866
Q 3394 3131 3647 3262
Q 3900 3394 4188 3394
Q 4553 3394 4806 3245
Q 5059 3097 5184 2809
Q 5275 2597 5275 2122
L 5275 0
L 4397 0
L 4397 1897
Q 4397 2391 4306 2534
Q 4184 2722 3931 2722
Q 3747 2722 3584 2609
Q 3422 2497 3350 2280
Q 3278 2063 3278 1594
L 3278 0
L 2400 0
L 2400 1819
Q 2400 2303 2353 2443
Q 2306 2584 2207 2653
Q 2109 2722 1941 2722
Q 1738 2722 1575 2612
Q 1413 2503 1342 2297
Q 1272 2091 1272 1613
L 1272 0
L 394 0
L 394 3319
z
" transform="scale(0.015625)"/>
       <path id="Arial-BoldMT-2f" d="M -9 -78
L 1125 4659
L 1784 4659
L 638 -78
L -9 -78
z
" transform="scale(0.015625)"/>
       <path id="Arial-BoldMT-2014" d="M 0 1331
L 0 1988
L 6400 1988
L 6400 1331
L 0 1331
z
" transform="scale(0.015625)"/>
       <path id="Arial-BoldMT-68" d="M 1334 4581
L 1334 2897
Q 1759 3394 2350 3394
Q 2653 3394 2897 3281
Q 3141 3169 3264 2994
Q 3388 2819 3433 2606
Q 3478 2394 3478 1947
L 3478 0
L 2600 0
L 2600 1753
Q 2600 2275 2550 2415
Q 2500 2556 2373 2639
Q 2247 2722 2056 2722
Q 1838 2722 1666 2615
Q 1494 2509 1414 2295
Q 1334 2081 1334 1663
L 1334 0
L 456 0
L 456 4581
L 1334 4581
z
" transform="scale(0.015625)"/>
       <path id="Arial-BoldMT-67" d="M 378 -219
L 1381 -341
Q 1406 -516 1497 -581
Q 1622 -675 1891 -675
Q 2234 -675 2406 -572
Q 2522 -503 2581 -350
Q 2622 -241 2622 53
L 2622 538
Q 2228 0 1628 0
Q 959 0 569 566
Q 263 1013 263 1678
Q 263 2513 664 2953
Q 1066 3394 1663 3394
Q 2278 3394 2678 2853
L 2678 3319
L 3500 3319
L 3500 341
Q 3500 -247 3403 -537
Q 3306 -828 3131 -993
Q 2956 -1159 2664 -1253
Q 2372 -1347 1925 -1347
Q 1081 -1347 728 -1058
Q 375 -769 375 -325
Q 375 -281 378 -219
z
M 1163 1728
Q 1163 1200 1367 954
Q 1572 709 1872 709
Q 2194 709 2416 961
Q 2638 1213 2638 1706
Q 2638 2222 2425 2472
Q 2213 2722 1888 2722
Q 1572 2722 1367 2476
Q 1163 2231 1163 1728
z
" transform="scale(0.015625)"/>
       <path id="Arial-BoldMT-62" d="M 422 0
L 422 4581
L 1300 4581
L 1300 2931
Q 1706 3394 2263 3394
Q 2869 3394 3266 2955
Q 3663 2516 3663 1694
Q 3663 844 3258 384
Q 2853 -75 2275 -75
Q 1991 -75 1714 67
Q 1438 209 1238 488
L 1238 0
L 422 0
z
M 1294 1731
Q 1294 1216 1456 969
Q 1684 619 2063 619
Q 2353 619 2558 867
Q 2763 1116 2763 1650
Q 2763 2219 2556 2470
Q 2350 2722 2028 2722
Q 1713 2722 1503 2476
Q 1294 2231 1294 1731
z
" transform="scale(0.015625)"/>
      </defs>
      <use xlink:href="#Arial-BoldMT-61"/>
      <use xlink:href="#Arial-BoldMT-74" transform="translate(55.615234 0)"/>
      <use xlink:href="#Arial-BoldMT-6f" transform="translate(88.916016 0)"/>
      <use xlink:href="#Arial-BoldMT-6d" transform="translate(150 0)"/>
      <use xlink:href="#Arial-BoldMT-73" transform="translate(238.916016 0)"/>
      <use xlink:href="#Arial-BoldMT-2f" transform="translate(294.53125 0)"/>
      <use xlink:href="#Arial-BoldMT-73" transform="translate(322.314453 0)"/>
      <use xlink:href="#Arial-BoldMT-20" transform="translate(377.929688 0)"/>
      <use xlink:href="#Arial-BoldMT-2014" transform="translate(405.712891 0)"/>
      <use xlink:href="#Arial-BoldMT-20" transform="translate(505.712891 0)"/>
      <use xlink:href="#Arial-BoldMT-68" transform="translate(533.496094 0)"/>
      <use xlink:href="#Arial-BoldMT-69" transform="translate(594.580078 0)"/>
      <use xlink:href="#Arial-BoldMT-67" transform="translate(622.363281 0)"/>
      <use xlink:href="#Arial-BoldMT-68" transform="translate(683.447266 0)"/>
      <use xlink:href="#Arial-BoldMT-65" transform="translate(744.53125 0)"/>
      <use xlink:href="#Arial-BoldMT-72" transform="translate(800.146484 0)"/>
      <use xlink:href="#Arial-BoldMT-20" transform="translate(839.0625 0)"/>
      <use xlink:href="#Arial-BoldMT-69" transform="translate(866.845703 0)"/>
      <use xlink:href="#Arial-BoldMT-73" transform="translate(894.628906 0)"/>
      <use xlink:href="#Arial-BoldMT-20" transform="translate(950.244141 0)"/>
      <use xlink:href="#Arial-BoldMT-62" transform="translate(978.027344 0)"/>
      <use xlink:href="#Arial-BoldMT-65" transform="translate(1039.111328 0)"/>
      <use xlink:href="#Arial-BoldMT-74" transform="translate(1094.726562 0)"/>
      <use xlink:href="#Arial-BoldMT-74" transform="translate(1128.027344 0)"/>
      <use xlink:href="#Arial-BoldMT-65" transform="translate(1161.328125 0)"/>
      <use xlink:href="#Arial-BoldMT-72" transform="translate(1216.943359 0)"/>
     </g>
    </g>
   </g>
   <g id="patch_3">
    <path d="M 54.69324 46852.630752
L 59.498441 46852.630752
L 59.498441 75.680457
L 54.69324 75.680457
z
" clip-path="url(#p877db8904f)" style="fill: #d95f02; stroke: #262626; stroke-width: 0.8; stroke-linejoin: miter"/>
   </g>
   <g id="patch_4">
    <path d="M 59.916284 46852.630752
L 64.721485 46852.630752
L 64.721485 73.635806
L 59.916284 73.635806
z
" clip-path="url(#p877db8904f)" style="fill: #d95f02; stroke: #262626; stroke-width: 0.8; stroke-linejoin: miter"/>
   </g>
   <g id="patch_5">
    <path d="M 65.139328 46852.630752
L 69.944529 46852.630752
L 69.944529 69.681073
L 65.139328 69.681073
z
" clip-path="url(#p877db8904f)" style="fill: #d95f02; stroke: #262626; stroke-width: 0.8; stroke-linejoin: miter"/>
   </g>
   <g id="patch_6">
    <path d="M 70.362372 46852.630752
L 75.167573 46852.630752
L 75.167573 67.997758
L 70.362372 67.997758
z
" clip-path="url(#p877db8904f)" style="fill: #d95f02; stroke: #262626; stroke-width: 0.8; stroke-linejoin: miter"/>
   </g>
   <g id="patch_7">
    <path d="M 75.585416 46852.630752
L 80.390617 46852.630752
L 80.390617 68.299019
L 75.585416 68.299019
z
" clip-path="url(#p877db8904f)" style="fill: #d95f02; stroke: #262626; stroke-width: 0.8; stroke-linejoin: miter"/>
   </g>
   <g id="patch_8">
    <path d="M 88.172953 46852.630752
L 112.198955 46852.630752
L 112.198955 70.87353
L 88.172953 70.87353
z
" clip-path="url(#p877db8904f)" style="fill: #e0741f; stroke: #262626; stroke-width: 0.8; stroke-linejoin: miter"/>
   </g>
   <g id="patch_9">
    <path d="M 120.816978 46852.630752
L 144.842981 46852.630752
L 144.842981 105.344292
L 120.816978 105.344292
z
" clip-path="url(#p877db8904f)" style="fill: #ea934a; stroke: #262626; stroke-width: 0.8; stroke-linejoin: miter"/>
   </g>
   <g id="patch_10">
    <path d="M 153.461004 46852.630752
L 177.487006 46852.630752
L 177.487006 108.584881
L 153.461004 108.584881
z
" clip-path="url(#p877db8904f)" style="fill: #ed9e59; stroke: #262626; stroke-width: 0.8; stroke-linejoin: miter"/>
   </g>
   <g id="patch_11">
    <path d="M 186.105029 46852.630752
L 210.131032 46852.630752
L 210.131032 124.709299
L 186.105029 124.709299
z
" clip-path="url(#p877db8904f)" style="fill: #7570b3; stroke: #262626; stroke-width: 0.8; stroke-linejoin: miter"/>
   </g>
   <g id="patch_12">
    <path d="M 218.749055 46852.630752
L 242.775057 46852.630752
L 242.775057 128.308178
L 218.749055 128.308178
z
" clip-path="url(#p877db8904f)" style="fill: #1b9e77; stroke: #262626; stroke-width: 0.8; stroke-linejoin: miter"/>
   </g>
   <g id="patch_13">
    <path d="M 251.39308 46852.630752
L 275.419083 46852.630752
L 275.419083 116.288731
L 251.39308 116.288731
z
" clip-path="url(#p877db8904f)" style="fill: #66a61e; stroke: #262626; stroke-width: 0.8; stroke-linejoin: miter"/>
   </g>
   <g id="patch_14">
    <path d="M 43.656948 156.297646
L 43.656948 23.6355
" style="fill: none; stroke: #262626; stroke-width: 1.2; stroke-linejoin: miter; stroke-linecap: square"/>
   </g>
   <g id="patch_15">
    <path d="M 286.455375 156.297646
L 286.455375 23.6355
" style="fill: none; stroke: #262626; stroke-width: 1.2; stroke-linejoin: miter; stroke-linecap: square"/>
   </g>
   <g id="patch_16">
    <path d="M 43.656948 156.297646
L 286.455375 156.297646
" style="fill: none; stroke: #262626; stroke-width: 1.2; stroke-linejoin: miter; stroke-linecap: square"/>
   </g>
   <g id="patch_17">
    <path d="M 43.656948 23.6355
L 286.455375 23.6355
" style="fill: none; stroke: #262626; stroke-width: 1.2; stroke-linejoin: miter; stroke-linecap: square"/>
   </g>
   <g id="text_13">
    <!-- 1c: 1.52M -->
    <g style="fill: #1a1a1a" transform="translate(58.910372 73.680457) rotate(-90) scale(0.07 -0.07)">
     <defs>
      <path id="Arial-BoldMT-3a" d="M 628 2441
L 628 3319
L 1506 3319
L 1506 2441
L 628 2441
z
M 628 0
L 628 878
L 1506 878
L 1506 0
L 628 0
z
" transform="scale(0.015625)"/>
      <path id="Arial-BoldMT-2e" d="M 459 0
L 459 878
L 1338 878
L 1338 0
L 459 0
z
" transform="scale(0.015625)"/>
      <path id="Arial-BoldMT-35" d="M 284 1178
L 1159 1269
Q 1197 972 1381 798
Q 1566 625 1806 625
Q 2081 625 2272 848
Q 2463 1072 2463 1522
Q 2463 1944 2273 2155
Q 2084 2366 1781 2366
Q 1403 2366 1103 2031
L 391 2134
L 841 4519
L 3163 4519
L 3163 3697
L 1506 3697
L 1369 2919
Q 1663 3066 1969 3066
Q 2553 3066 2959 2641
Q 3366 2216 3366 1538
Q 3366 972 3038 528
Q 2591 -78 1797 -78
Q 1163 -78 763 262
Q 363 603 284 1178
z
" transform="scale(0.015625)"/>
      <path id="Arial-BoldMT-4d" d="M 453 0
L 453 4581
L 1838 4581
L 2669 1456
L 3491 4581
L 4878 4581
L 4878 0
L 4019 0
L 4019 3606
L 3109 0
L 2219 0
L 1313 3606
L 1313 0
L 453 0
z
" transform="scale(0.015625)"/>
     </defs>
     <use xlink:href="#Arial-BoldMT-31"/>
     <use xlink:href="#Arial-BoldMT-63" transform="translate(55.615234 0)"/>
     <use xlink:href="#Arial-BoldMT-3a" transform="translate(111.230469 0)"/>
     <use xlink:href="#Arial-BoldMT-20" transform="translate(144.53125 0)"/>
     <use xlink:href="#Arial-BoldMT-31" transform="translate(172.314453 0)"/>
     <use xlink:href="#Arial-BoldMT-2e" transform="translate(227.929688 0)"/>
     <use xlink:href="#Arial-BoldMT-35" transform="translate(255.712891 0)"/>
     <use xlink:href="#Arial-BoldMT-32" transform="translate(311.328125 0)"/>
     <use xlink:href="#Arial-BoldMT-4d" transform="translate(366.943359 0)"/>
    </g>
   </g>
   <g id="text_14">
    <!-- 2c: 1.69M -->
    <g style="fill: #1a1a1a" transform="translate(64.133416 71.635806) rotate(-90) scale(0.07 -0.07)">
     <defs>
      <path id="Arial-BoldMT-36" d="M 3247 3459
L 2397 3366
Q 2366 3628 2234 3753
Q 2103 3878 1894 3878
Q 1616 3878 1423 3628
Q 1231 3378 1181 2588
Q 1509 2975 1997 2975
Q 2547 2975 2939 2556
Q 3331 2138 3331 1475
Q 3331 772 2918 347
Q 2506 -78 1859 -78
Q 1166 -78 719 461
Q 272 1000 272 2228
Q 272 3488 737 4044
Q 1203 4600 1947 4600
Q 2469 4600 2811 4308
Q 3153 4016 3247 3459
z
M 1256 1544
Q 1256 1116 1453 883
Q 1650 650 1903 650
Q 2147 650 2309 840
Q 2472 1031 2472 1466
Q 2472 1913 2297 2120
Q 2122 2328 1859 2328
Q 1606 2328 1431 2129
Q 1256 1931 1256 1544
z
" transform="scale(0.015625)"/>
      <path id="Arial-BoldMT-39" d="M 291 1059
L 1141 1153
Q 1172 894 1303 769
Q 1434 644 1650 644
Q 1922 644 2112 894
Q 2303 1144 2356 1931
Q 2025 1547 1528 1547
Q 988 1547 595 1964
Q 203 2381 203 3050
Q 203 3747 617 4173
Q 1031 4600 1672 4600
Q 2369 4600 2816 4061
Q 3263 3522 3263 2288
Q 3263 1031 2797 475
Q 2331 -81 1584 -81
Q 1047 -81 715 205
Q 384 491 291 1059
z
M 2278 2978
Q 2278 3403 2083 3637
Q 1888 3872 1631 3872
Q 1388 3872 1227 3680
Q 1066 3488 1066 3050
Q 1066 2606 1241 2398
Q 1416 2191 1678 2191
Q 1931 2191 2104 2391
Q 2278 2591 2278 2978
z
" transform="scale(0.015625)"/>
     </defs>
     <use xlink:href="#Arial-BoldMT-32"/>
     <use xlink:href="#Arial-BoldMT-63" transform="translate(55.615234 0)"/>
     <use xlink:href="#Arial-BoldMT-3a" transform="translate(111.230469 0)"/>
     <use xlink:href="#Arial-BoldMT-20" transform="translate(144.53125 0)"/>
     <use xlink:href="#Arial-BoldMT-31" transform="translate(172.314453 0)"/>
     <use xlink:href="#Arial-BoldMT-2e" transform="translate(227.929688 0)"/>
     <use xlink:href="#Arial-BoldMT-36" transform="translate(255.712891 0)"/>
     <use xlink:href="#Arial-BoldMT-39" transform="translate(311.328125 0)"/>
     <use xlink:href="#Arial-BoldMT-4d" transform="translate(366.943359 0)"/>
    </g>
   </g>
   <g id="text_15">
    <!-- 4c: 2.05M -->
    <g style="fill: #1a1a1a" transform="translate(69.35646 67.681073) rotate(-90) scale(0.07 -0.07)">
     <defs>
      <path id="Arial-BoldMT-34" d="M 1994 0
L 1994 922
L 119 922
L 119 1691
L 2106 4600
L 2844 4600
L 2844 1694
L 3413 1694
L 3413 922
L 2844 922
L 2844 0
L 1994 0
z
M 1994 1694
L 1994 3259
L 941 1694
L 1994 1694
z
" transform="scale(0.015625)"/>
      <path id="Arial-BoldMT-30" d="M 1756 4600
Q 2422 4600 2797 4125
Q 3244 3563 3244 2259
Q 3244 959 2794 391
Q 2422 -78 1756 -78
Q 1088 -78 678 436
Q 269 950 269 2269
Q 269 3563 719 4131
Q 1091 4600 1756 4600
z
M 1756 3872
Q 1597 3872 1472 3770
Q 1347 3669 1278 3406
Q 1188 3066 1188 2259
Q 1188 1453 1269 1151
Q 1350 850 1473 750
Q 1597 650 1756 650
Q 1916 650 2041 751
Q 2166 853 2234 1116
Q 2325 1453 2325 2259
Q 2325 3066 2244 3367
Q 2163 3669 2039 3770
Q 1916 3872 1756 3872
z
" transform="scale(0.015625)"/>
     </defs>
     <use xlink:href="#Arial-BoldMT-34"/>
     <use xlink:href="#Arial-BoldMT-63" transform="translate(55.615234 0)"/>
     <use xlink:href="#Arial-BoldMT-3a" transform="translate(111.230469 0)"/>
     <use xlink:href="#Arial-BoldMT-20" transform="translate(144.53125 0)"/>
     <use xlink:href="#Arial-BoldMT-32" transform="translate(172.314453 0)"/>
     <use xlink:href="#Arial-BoldMT-2e" transform="translate(227.929688 0)"/>
     <use xlink:href="#Arial-BoldMT-30" transform="translate(255.712891 0)"/>
     <use xlink:href="#Arial-BoldMT-35" transform="translate(311.328125 0)"/>
     <use xlink:href="#Arial-BoldMT-4d" transform="translate(366.943359 0)"/>
    </g>
   </g>
   <g id="text_16">
    <!-- 8c: 2.23M -->
    <g style="fill: #1a1a1a" transform="translate(74.579504 65.997758) rotate(-90) scale(0.07 -0.07)">
     <defs>
      <path id="Arial-BoldMT-38" d="M 1025 2472
Q 684 2616 529 2867
Q 375 3119 375 3419
Q 375 3931 733 4265
Q 1091 4600 1750 4600
Q 2403 4600 2764 4265
Q 3125 3931 3125 3419
Q 3125 3100 2959 2851
Q 2794 2603 2494 2472
Q 2875 2319 3073 2025
Q 3272 1731 3272 1347
Q 3272 713 2867 316
Q 2463 -81 1791 -81
Q 1166 -81 750 247
Q 259 634 259 1309
Q 259 1681 443 1992
Q 628 2303 1025 2472
z
M 1206 3356
Q 1206 3094 1354 2947
Q 1503 2800 1750 2800
Q 2000 2800 2150 2948
Q 2300 3097 2300 3359
Q 2300 3606 2151 3754
Q 2003 3903 1759 3903
Q 1506 3903 1356 3753
Q 1206 3603 1206 3356
z
M 1125 1394
Q 1125 1031 1311 828
Q 1497 625 1775 625
Q 2047 625 2225 820
Q 2403 1016 2403 1384
Q 2403 1706 2222 1901
Q 2041 2097 1763 2097
Q 1441 2097 1283 1875
Q 1125 1653 1125 1394
z
" transform="scale(0.015625)"/>
      <path id="Arial-BoldMT-33" d="M 241 1216
L 1091 1319
Q 1131 994 1309 822
Q 1488 650 1741 650
Q 2013 650 2198 856
Q 2384 1063 2384 1413
Q 2384 1744 2206 1937
Q 2028 2131 1772 2131
Q 1603 2131 1369 2066
L 1466 2781
Q 1822 2772 2009 2936
Q 2197 3100 2197 3372
Q 2197 3603 2059 3740
Q 1922 3878 1694 3878
Q 1469 3878 1309 3722
Q 1150 3566 1116 3266
L 306 3403
Q 391 3819 561 4067
Q 731 4316 1036 4458
Q 1341 4600 1719 4600
Q 2366 4600 2756 4188
Q 3078 3850 3078 3425
Q 3078 2822 2419 2463
Q 2813 2378 3048 2084
Q 3284 1791 3284 1375
Q 3284 772 2843 347
Q 2403 -78 1747 -78
Q 1125 -78 715 280
Q 306 638 241 1216
z
" transform="scale(0.015625)"/>
     </defs>
     <use xlink:href="#Arial-BoldMT-38"/>
     <use xlink:href="#Arial-BoldMT-63" transform="translate(55.615234 0)"/>
     <use xlink:href="#Arial-BoldMT-3a" transform="translate(111.230469 0)"/>
     <use xlink:href="#Arial-BoldMT-20" transform="translate(144.53125 0)"/>
     <use xlink:href="#Arial-BoldMT-32" transform="translate(172.314453 0)"/>
     <use xlink:href="#Arial-BoldMT-2e" transform="translate(227.929688 0)"/>
     <use xlink:href="#Arial-BoldMT-32" transform="translate(255.712891 0)"/>
     <use xlink:href="#Arial-BoldMT-33" transform="translate(311.328125 0)"/>
     <use xlink:href="#Arial-BoldMT-4d" transform="translate(366.943359 0)"/>
    </g>
   </g>
   <g id="text_17">
    <!-- 12c: 2.2M -->
    <g style="fill: #1a1a1a" transform="translate(79.802548 66.299019) rotate(-90) scale(0.07 -0.07)">
     <use xlink:href="#Arial-BoldMT-31"/>
     <use xlink:href="#Arial-BoldMT-32" transform="translate(55.615234 0)"/>
     <use xlink:href="#Arial-BoldMT-63" transform="translate(111.230469 0)"/>
     <use xlink:href="#Arial-BoldMT-3a" transform="translate(166.845703 0)"/>
     <use xlink:href="#Arial-BoldMT-20" transform="translate(200.146484 0)"/>
     <use xlink:href="#Arial-BoldMT-32" transform="translate(227.929688 0)"/>
     <use xlink:href="#Arial-BoldMT-2e" transform="translate(283.544922 0)"/>
     <use xlink:href="#Arial-BoldMT-32" transform="translate(311.328125 0)"/>
     <use xlink:href="#Arial-BoldMT-4d" transform="translate(366.943359 0)"/>
    </g>
   </g>
   <g id="text_18">
    <!-- 1.93M -->
    <g style="fill: #1a1a1a" transform="translate(89.76447 67.393452) scale(0.075 -0.075)">
     <use xlink:href="#Arial-BoldMT-31"/>
     <use xlink:href="#Arial-BoldMT-2e" transform="translate(55.615234 0)"/>
     <use xlink:href="#Arial-BoldMT-39" transform="translate(83.398438 0)"/>
     <use xlink:href="#Arial-BoldMT-33" transform="translate(139.013672 0)"/>
     <use xlink:href="#Arial-BoldMT-4d" transform="translate(194.628906 0)"/>
    </g>
   </g>
   <g id="text_19">
    <!-- 351k -->
    <g style="fill: #1a1a1a" transform="translate(124.488573 101.864213) scale(0.075 -0.075)">
     <defs>
      <path id="Arial-BoldMT-6b" d="M 428 0
L 428 4581
L 1306 4581
L 1306 2150
L 2334 3319
L 3416 3319
L 2281 2106
L 3497 0
L 2550 0
L 1716 1491
L 1306 1063
L 1306 0
L 428 0
z
" transform="scale(0.015625)"/>
     </defs>
     <use xlink:href="#Arial-BoldMT-33"/>
     <use xlink:href="#Arial-BoldMT-35" transform="translate(55.615234 0)"/>
     <use xlink:href="#Arial-BoldMT-31" transform="translate(111.230469 0)"/>
     <use xlink:href="#Arial-BoldMT-6b" transform="translate(166.845703 0)"/>
    </g>
   </g>
   <g id="text_20">
    <!-- 299k -->
    <g style="fill: #1a1a1a" transform="translate(157.132599 105.104803) scale(0.075 -0.075)">
     <use xlink:href="#Arial-BoldMT-32"/>
     <use xlink:href="#Arial-BoldMT-39" transform="translate(55.615234 0)"/>
     <use xlink:href="#Arial-BoldMT-39" transform="translate(111.230469 0)"/>
     <use xlink:href="#Arial-BoldMT-6b" transform="translate(166.845703 0)"/>
    </g>
   </g>
   <g id="text_21">
    <!-- 134k -->
    <g style="fill: #1a1a1a" transform="translate(189.776624 121.229221) scale(0.075 -0.075)">
     <use xlink:href="#Arial-BoldMT-31"/>
     <use xlink:href="#Arial-BoldMT-33" transform="translate(55.615234 0)"/>
     <use xlink:href="#Arial-BoldMT-34" transform="translate(111.230469 0)"/>
     <use xlink:href="#Arial-BoldMT-6b" transform="translate(166.845703 0)"/>
    </g>
   </g>
   <g id="text_22">
    <!-- 112k -->
    <g style="fill: #1a1a1a" transform="translate(222.6269 124.828099) scale(0.075 -0.075)">
     <use xlink:href="#Arial-BoldMT-31"/>
     <use xlink:href="#Arial-BoldMT-31" transform="translate(50.115234 0)"/>
     <use xlink:href="#Arial-BoldMT-32" transform="translate(105.730469 0)"/>
     <use xlink:href="#Arial-BoldMT-6b" transform="translate(161.345703 0)"/>
    </g>
   </g>
   <g id="text_23">
    <!-- 204k -->
    <g style="fill: #1a1a1a" transform="translate(255.064675 112.808653) scale(0.075 -0.075)">
     <use xlink:href="#Arial-BoldMT-32"/>
     <use xlink:href="#Arial-BoldMT-30" transform="translate(55.615234 0)"/>
     <use xlink:href="#Arial-BoldMT-34" transform="translate(111.230469 0)"/>
     <use xlink:href="#Arial-BoldMT-6b" transform="translate(166.845703 0)"/>
    </g>
   </g>
   <g id="text_24">
    <!-- real_data/mad -->
    <g style="fill: #1a1a1a" transform="translate(131.43038 17.6355) scale(0.1 -0.1)">
     <defs>
      <path id="Arial-BoldMT-5f" d="M -59 -1266
L -59 -697
L 3591 -697
L 3591 -1266
L -59 -1266
z
" transform="scale(0.015625)"/>
     </defs>
     <use xlink:href="#Arial-BoldMT-72"/>
     <use xlink:href="#Arial-BoldMT-65" transform="translate(38.916016 0)"/>
     <use xlink:href="#Arial-BoldMT-61" transform="translate(94.53125 0)"/>
     <use xlink:href="#Arial-BoldMT-6c" transform="translate(150.146484 0)"/>
     <use xlink:href="#Arial-BoldMT-5f" transform="translate(177.929688 0)"/>
     <use xlink:href="#Arial-BoldMT-64" transform="translate(233.544922 0)"/>
     <use xlink:href="#Arial-BoldMT-61" transform="translate(294.628906 0)"/>
     <use xlink:href="#Arial-BoldMT-74" transform="translate(350.244141 0)"/>
     <use xlink:href="#Arial-BoldMT-61" transform="translate(383.544922 0)"/>
     <use xlink:href="#Arial-BoldMT-2f" transform="translate(439.160156 0)"/>
     <use xlink:href="#Arial-BoldMT-6d" transform="translate(466.943359 0)"/>
     <use xlink:href="#Arial-BoldMT-61" transform="translate(555.859375 0)"/>
     <use xlink:href="#Arial-BoldMT-64" transform="translate(611.474609 0)"/>
    </g>
   </g>
  </g>
  <g id="axes_2">
   <g id="patch_18">
    <path d="M 330.033573 156.297646
L 572.832 156.297646
L 572.832 23.6355
L 330.033573 23.6355
z
" style="fill: #ffffff"/>
   </g>
   <g id="matplotlib.axis_3">
    <g id="xtick_8">
     <g id="line2d_38">
      <g>
       <use xlink:href="#m0434689c5d" x="451.432787" y="156.297646" style="fill: #1a1a1a; stroke: #1a1a1a"/>
      </g>
     </g>
     <g id="text_25">
      <!-- oxyz-scan -->
      <g style="fill: #1a1a1a" transform="translate(417.008057 183.109232) rotate(-20) scale(0.08 -0.08)">
       <defs>
        <path id="Arial-BoldMT-6e" d="M 3478 0
L 2600 0
L 2600 1694
Q 2600 2231 2544 2389
Q 2488 2547 2361 2634
Q 2234 2722 2056 2722
Q 1828 2722 1647 2597
Q 1466 2472 1398 2265
Q 1331 2059 1331 1503
L 1331 0
L 453 0
L 453 3319
L 1269 3319
L 1269 2831
Q 1703 3394 2363 3394
Q 2653 3394 2893 3289
Q 3134 3184 3257 3021
Q 3381 2859 3429 2653
Q 3478 2447 3478 2063
L 3478 0
z
" transform="scale(0.015625)"/>
       </defs>
       <use xlink:href="#Arial-BoldMT-6f"/>
       <use xlink:href="#Arial-BoldMT-78" transform="translate(61.083984 0)"/>
       <use xlink:href="#Arial-BoldMT-79" transform="translate(116.699219 0)"/>
       <use xlink:href="#Arial-BoldMT-7a" transform="translate(172.314453 0)"/>
       <use xlink:href="#Arial-BoldMT-2d" transform="translate(222.314453 0)"/>
       <use xlink:href="#Arial-BoldMT-73" transform="translate(255.615234 0)"/>
       <use xlink:href="#Arial-BoldMT-63" transform="translate(311.230469 0)"/>
       <use xlink:href="#Arial-BoldMT-61" transform="translate(366.845703 0)"/>
       <use xlink:href="#Arial-BoldMT-6e" transform="translate(422.460938 0)"/>
      </g>
     </g>
    </g>
    <g id="text_26">
     <!-- reader -->
     <g style="fill: #1a1a1a" transform="translate(436.756787 195.56294) scale(0.096 -0.096)">
      <use xlink:href="#Arial-BoldMT-72"/>
      <use xlink:href="#Arial-BoldMT-65" transform="translate(38.916016 0)"/>
      <use xlink:href="#Arial-BoldMT-61" transform="translate(94.53125 0)"/>
      <use xlink:href="#Arial-BoldMT-64" transform="translate(150.146484 0)"/>
      <use xlink:href="#Arial-BoldMT-65" transform="translate(211.230469 0)"/>
      <use xlink:href="#Arial-BoldMT-72" transform="translate(266.845703 0)"/>
     </g>
    </g>
   </g>
   <g id="matplotlib.axis_4">
    <g id="ytick_28">
     <g id="line2d_39">
      <path d="M 330.033573 53.699499
L 572.832 53.699499
" clip-path="url(#pf5225cf4a7)" style="fill: none; stroke: #e9e9e9; stroke-width: 0.7; stroke-linecap: round"/>
     </g>
     <g id="line2d_40">
      <g>
       <use xlink:href="#m8a506ca3f7" x="330.033573" y="53.699499" style="fill: #1a1a1a; stroke: #1a1a1a; stroke-width: 1.1"/>
      </g>
     </g>
     <g id="text_27">
      <!-- $\mathdefault{10^{2}}$ -->
      <g style="fill: #1a1a1a" transform="translate(309.473573 57.824499) scale(0.08 -0.08)">
       <defs>
        <path id="ArialMT-32" d="M 3222 541
L 3222 0
L 194 0
Q 188 203 259 391
Q 375 700 629 1000
Q 884 1300 1366 1694
Q 2113 2306 2375 2664
Q 2638 3022 2638 3341
Q 2638 3675 2398 3904
Q 2159 4134 1775 4134
Q 1369 4134 1125 3890
Q 881 3647 878 3216
L 300 3275
Q 359 3922 746 4261
Q 1134 4600 1788 4600
Q 2447 4600 2831 4234
Q 3216 3869 3216 3328
Q 3216 3053 3103 2787
Q 2991 2522 2730 2228
Q 2469 1934 1863 1422
Q 1356 997 1212 845
Q 1069 694 975 541
L 3222 541
z
" transform="scale(0.015625)"/>
       </defs>
       <use xlink:href="#ArialMT-31" transform="translate(0 0.99375)"/>
       <use xlink:href="#ArialMT-30" transform="translate(55.615234 0.99375)"/>
       <use xlink:href="#ArialMT-32" transform="translate(112.972813 70.6875) scale(0.7)"/>
      </g>
     </g>
    </g>
    <g id="ytick_29">
     <g id="line2d_41">
      <g>
       <use xlink:href="#mb437f96f91" x="330.033573" y="139.622843" style="fill: #1a1a1a; stroke: #1a1a1a; stroke-width: 0.8"/>
      </g>
     </g>
    </g>
    <g id="ytick_30">
     <g id="line2d_42">
      <g>
       <use xlink:href="#mb437f96f91" x="330.033573" y="117.976206" style="fill: #1a1a1a; stroke: #1a1a1a; stroke-width: 0.8"/>
      </g>
     </g>
    </g>
    <g id="ytick_31">
     <g id="line2d_43">
      <g>
       <use xlink:href="#mb437f96f91" x="330.033573" y="102.617673" style="fill: #1a1a1a; stroke: #1a1a1a; stroke-width: 0.8"/>
      </g>
     </g>
    </g>
    <g id="ytick_32">
     <g id="line2d_44">
      <g>
       <use xlink:href="#mb437f96f91" x="330.033573" y="90.704669" style="fill: #1a1a1a; stroke: #1a1a1a; stroke-width: 0.8"/>
      </g>
     </g>
    </g>
    <g id="ytick_33">
     <g id="line2d_45">
      <g>
       <use xlink:href="#mb437f96f91" x="330.033573" y="80.971036" style="fill: #1a1a1a; stroke: #1a1a1a; stroke-width: 0.8"/>
      </g>
     </g>
    </g>
    <g id="ytick_34">
     <g id="line2d_46">
      <g>
       <use xlink:href="#mb437f96f91" x="330.033573" y="72.741367" style="fill: #1a1a1a; stroke: #1a1a1a; stroke-width: 0.8"/>
      </g>
     </g>
    </g>
    <g id="ytick_35">
     <g id="line2d_47">
      <g>
       <use xlink:href="#mb437f96f91" x="330.033573" y="65.612503" style="fill: #1a1a1a; stroke: #1a1a1a; stroke-width: 0.8"/>
      </g>
     </g>
    </g>
    <g id="ytick_36">
     <g id="line2d_48">
      <g>
       <use xlink:href="#mb437f96f91" x="330.033573" y="59.3244" style="fill: #1a1a1a; stroke: #1a1a1a; stroke-width: 0.8"/>
      </g>
     </g>
    </g>
    <g id="text_28">
     <!-- mean time (ms) — lower is better -->
     <g style="fill: #1a1a1a" transform="translate(303.453073 165.183323) rotate(-90) scale(0.096 -0.096)">
      <defs>
       <path id="Arial-BoldMT-77" d="M 1078 0
L 28 3319
L 881 3319
L 1503 1144
L 2075 3319
L 2922 3319
L 3475 1144
L 4109 3319
L 4975 3319
L 3909 0
L 3066 0
L 2494 2134
L 1931 0
L 1078 0
z
" transform="scale(0.015625)"/>
      </defs>
      <use xlink:href="#Arial-BoldMT-6d"/>
      <use xlink:href="#Arial-BoldMT-65" transform="translate(88.916016 0)"/>
      <use xlink:href="#Arial-BoldMT-61" transform="translate(144.53125 0)"/>
      <use xlink:href="#Arial-BoldMT-6e" transform="translate(200.146484 0)"/>
      <use xlink:href="#Arial-BoldMT-20" transform="translate(261.230469 0)"/>
      <use xlink:href="#Arial-BoldMT-74" transform="translate(289.013672 0)"/>
      <use xlink:href="#Arial-BoldMT-69" transform="translate(322.314453 0)"/>
      <use xlink:href="#Arial-BoldMT-6d" transform="translate(350.097656 0)"/>
      <use xlink:href="#Arial-BoldMT-65" transform="translate(439.013672 0)"/>
      <use xlink:href="#Arial-BoldMT-20" transform="translate(494.628906 0)"/>
      <use xlink:href="#Arial-BoldMT-28" transform="translate(522.412109 0)"/>
      <use xlink:href="#Arial-BoldMT-6d" transform="translate(555.712891 0)"/>
      <use xlink:href="#Arial-BoldMT-73" transform="translate(644.628906 0)"/>
      <use xlink:href="#Arial-BoldMT-29" transform="translate(700.244141 0)"/>
      <use xlink:href="#Arial-BoldMT-20" transform="translate(733.544922 0)"/>
      <use xlink:href="#Arial-BoldMT-2014" transform="translate(761.328125 0)"/>
      <use xlink:href="#Arial-BoldMT-20" transform="translate(861.328125 0)"/>
      <use xlink:href="#Arial-BoldMT-6c" transform="translate(889.111328 0)"/>
      <use xlink:href="#Arial-BoldMT-6f" transform="translate(916.894531 0)"/>
      <use xlink:href="#Arial-BoldMT-77" transform="translate(977.978516 0)"/>
      <use xlink:href="#Arial-BoldMT-65" transform="translate(1055.761719 0)"/>
      <use xlink:href="#Arial-BoldMT-72" transform="translate(1111.376953 0)"/>
      <use xlink:href="#Arial-BoldMT-20" transform="translate(1150.292969 0)"/>
      <use xlink:href="#Arial-BoldMT-69" transform="translate(1178.076172 0)"/>
      <use xlink:href="#Arial-BoldMT-73" transform="translate(1205.859375 0)"/>
      <use xlink:href="#Arial-BoldMT-20" transform="translate(1261.474609 0)"/>
      <use xlink:href="#Arial-BoldMT-62" transform="translate(1289.257812 0)"/>
      <use xlink:href="#Arial-BoldMT-65" transform="translate(1350.341797 0)"/>
      <use xlink:href="#Arial-BoldMT-74" transform="translate(1405.957031 0)"/>
      <use xlink:href="#Arial-BoldMT-74" transform="translate(1439.257812 0)"/>
      <use xlink:href="#Arial-BoldMT-65" transform="translate(1472.558594 0)"/>
      <use xlink:href="#Arial-BoldMT-72" transform="translate(1528.173828 0)"/>
     </g>
    </g>
   </g>
   <g id="patch_19">
    <path d="M 341.069865 123228.0698
L 561.795708 123228.0698
L 561.795708 82.287306
L 341.069865 82.287306
z
" clip-path="url(#pf5225cf4a7)" style="fill: #f0a867; stroke: #262626; stroke-width: 0.8; stroke-linejoin: miter"/>
   </g>
   <g id="patch_20">
    <path d="M 330.033573 156.297646
L 330.033573 23.6355
" style="fill: none; stroke: #262626; stroke-width: 1.2; stroke-linejoin: miter; stroke-linecap: square"/>
   </g>
   <g id="patch_21">
    <path d="M 572.832 156.297646
L 572.832 23.6355
" style="fill: none; stroke: #262626; stroke-width: 1.2; stroke-linejoin: miter; stroke-linecap: square"/>
   </g>
   <g id="patch_22">
    <path d="M 330.033573 156.297646
L 572.832 156.297646
" style="fill: none; stroke: #262626; stroke-width: 1.2; stroke-linejoin: miter; stroke-linecap: square"/>
   </g>
   <g id="patch_23">
    <path d="M 330.033573 23.6355
L 572.832 23.6355
" style="fill: none; stroke: #262626; stroke-width: 1.2; stroke-linejoin: miter; stroke-linecap: square"/>
   </g>
   <g id="text_29">
    <!-- 58.5 -->
    <g style="fill: #1a1a1a" transform="translate(444.134935 78.807228) scale(0.075 -0.075)">
     <use xlink:href="#Arial-BoldMT-35"/>
     <use xlink:href="#Arial-BoldMT-38" transform="translate(55.615234 0)"/>
     <use xlink:href="#Arial-BoldMT-2e" transform="translate(111.230469 0)"/>
     <use xlink:href="#Arial-BoldMT-35" transform="translate(139.013672 0)"/>
    </g>
   </g>
   <g id="text_30">
    <!-- real_data/mad_scan -->
    <g style="fill: #1a1a1a" transform="translate(403.631224 17.6355) scale(0.1 -0.1)">
     <use xlink:href="#Arial-BoldMT-72"/>
     <use xlink:href="#Arial-BoldMT-65" transform="translate(38.916016 0)"/>
     <use xlink:href="#Arial-BoldMT-61" transform="translate(94.53125 0)"/>
     <use xlink:href="#Arial-BoldMT-6c" transform="translate(150.146484 0)"/>
     <use xlink:href="#Arial-BoldMT-5f" transform="translate(177.929688 0)"/>
     <use xlink:href="#Arial-BoldMT-64" transform="translate(233.544922 0)"/>
     <use xlink:href="#Arial-BoldMT-61" transform="translate(294.628906 0)"/>
     <use xlink:href="#Arial-BoldMT-74" transform="translate(350.244141 0)"/>
     <use xlink:href="#Arial-BoldMT-61" transform="translate(383.544922 0)"/>
     <use xlink:href="#Arial-BoldMT-2f" transform="translate(439.160156 0)"/>
     <use xlink:href="#Arial-BoldMT-6d" transform="translate(466.943359 0)"/>
     <use xlink:href="#Arial-BoldMT-61" transform="translate(555.859375 0)"/>
     <use xlink:href="#Arial-BoldMT-64" transform="translate(611.474609 0)"/>
     <use xlink:href="#Arial-BoldMT-5f" transform="translate(672.558594 0)"/>
     <use xlink:href="#Arial-BoldMT-73" transform="translate(728.173828 0)"/>
     <use xlink:href="#Arial-BoldMT-63" transform="translate(783.789062 0)"/>
     <use xlink:href="#Arial-BoldMT-61" transform="translate(839.404297 0)"/>
     <use xlink:href="#Arial-BoldMT-6e" transform="translate(895.019531 0)"/>
    </g>
   </g>
  </g>
 </g>
 <defs>
  <clipPath id="p877db8904f">
   <rect x="43.656948" y="23.6355" width="242.798427" height="132.662146"/>
  </clipPath>
  <clipPath id="pf5225cf4a7">
   <rect x="330.033573" y="23.6355" width="242.798427" height="132.662146"/>
  </clipPath>
 </defs>
</svg>
