<?xml version="1.0" encoding="utf-8" standalone="no"?>
<!DOCTYPE svg PUBLIC "-//W3C//DTD SVG 1.1//EN"
  "http://www.w3.org/Graphics/SVG/1.1/DTD/svg11.dtd">
<svg xmlns:xlink="http://www.w3.org/1999/xlink" width="661.68pt" height="288pt" viewBox="0 0 661.68 288" xmlns="http://www.w3.org/2000/svg" version="1.1">
 <metadata>
  <rdf:RDF xmlns:dc="http://purl.org/dc/elements/1.1/" xmlns:cc="http://creativecommons.org/ns#" xmlns:rdf="http://www.w3.org/1999/02/22-rdf-syntax-ns#">
   <cc:Work>
    <dc:type rdf:resource="http://purl.org/dc/dcmitype/StillImage"/>
    <dc:date>2026-07-17T10:48:38.670051</dc:date>
    <dc:format>image/svg+xml</dc:format>
    <dc:creator>
     <cc:Agent>
      <dc:title>Matplotlib v3.10.9, https://matplotlib.org/</dc:title>
     </cc:Agent>
    </dc:creator>
   </cc:Work>
  </rdf:RDF>
 </metadata>
 <defs>
  <style type="text/css">*{stroke-linejoin: round; stroke-linecap: butt}</style>
 </defs>
 <g id="figure_1">
  <g id="patch_1">
   <path d="M 0 288
L 661.68 288
L 661.68 0
L 0 0
z
" style="fill: #ffffff"/>
  </g>
  <g id="axes_1">
   <g id="patch_2">
    <path d="M 43.548 248.412
L 329.3235 248.412
L 329.3235 23.208
L 43.548 23.208
z
" style="fill: #ffffff"/>
   </g>
   <g id="matplotlib.axis_1">
    <g id="xtick_1">
     <g id="line2d_1">
      <path d="M 80.155605 248.412
L 80.155605 23.208
" clip-path="url(#pd02acc84f5)" style="fill: none; stroke: #e9e9e9; stroke-opacity: 0.3; stroke-width: 0.7; stroke-linecap: round"/>
     </g>
     <g id="line2d_2">
      <defs>
       <path id="me6f1b81da5" d="M 0 0
L 0 4.8
" style="stroke: #1a1a1a"/>
      </defs>
      <g>
       <use xlink:href="#me6f1b81da5" x="80.155605" y="248.412" style="fill: #1a1a1a; stroke: #1a1a1a"/>
      </g>
     </g>
     <g id="text_1">
      <!-- 2 -->
      <g style="fill: #1a1a1a" transform="translate(77.708793 263.010875) scale(0.088 -0.088)">
       <defs>
        <path id="ArialMT-32" d="M 3222 541
L 3222 0
L 194 0
Q 188 203 259 391
Q 375 700 629 1000
Q 884 1300 1366 1694
Q 2113 2306 2375 2664
Q 2638 3022 2638 3341
Q 2638 3675 2398 3904
Q 2159 4134 1775 4134
Q 1369 4134 1125 3890
Q 881 3647 878 3216
L 300 3275
Q 359 3922 746 4261
Q 1134 4600 1788 4600
Q 2447 4600 2831 4234
Q 3216 3869 3216 3328
Q 3216 3053 3103 2787
Q 2991 2522 2730 2228
Q 2469 1934 1863 1422
Q 1356 997 1212 845
Q 1069 694 975 541
L 3222 541
z
" transform="scale(0.015625)"/>
       </defs>
       <use xlink:href="#ArialMT-32"/>
      </g>
     </g>
    </g>
    <g id="xtick_2">
     <g id="line2d_3">
      <path d="M 127.391225 248.412
L 127.391225 23.208
" clip-path="url(#pd02acc84f5)" style="fill: none; stroke: #e9e9e9; stroke-opacity: 0.3; stroke-width: 0.7; stroke-linecap: round"/>
     </g>
     <g id="line2d_4">
      <g>
       <use xlink:href="#me6f1b81da5" x="127.391225" y="248.412" style="fill: #1a1a1a; stroke: #1a1a1a"/>
      </g>
     </g>
     <g id="text_2">
      <!-- 4 -->
      <g style="fill: #1a1a1a" transform="translate(124.944413 263.010875) scale(0.088 -0.088)">
       <defs>
        <path id="ArialMT-34" d="M 2069 0
L 2069 1097
L 81 1097
L 81 1613
L 2172 4581
L 2631 4581
L 2631 1613
L 3250 1613
L 3250 1097
L 2631 1097
L 2631 0
L 2069 0
z
M 2069 1613
L 2069 3678
L 634 1613
L 2069 1613
z
" transform="scale(0.015625)"/>
       </defs>
       <use xlink:href="#ArialMT-34"/>
      </g>
     </g>
    </g>
    <g id="xtick_3">
     <g id="line2d_5">
      <path d="M 174.626845 248.412
L 174.626845 23.208
" clip-path="url(#pd02acc84f5)" style="fill: none; stroke: #e9e9e9; stroke-opacity: 0.3; stroke-width: 0.7; stroke-linecap: round"/>
     </g>
     <g id="line2d_6">
      <g>
       <use xlink:href="#me6f1b81da5" x="174.626845" y="248.412" style="fill: #1a1a1a; stroke: #1a1a1a"/>
      </g>
     </g>
     <g id="text_3">
      <!-- 6 -->
      <g style="fill: #1a1a1a" transform="translate(172.180033 263.010875) scale(0.088 -0.088)">
       <defs>
        <path id="ArialMT-36" d="M 3184 3459
L 2625 3416
Q 2550 3747 2413 3897
Q 2184 4138 1850 4138
Q 1581 4138 1378 3988
Q 1113 3794 959 3422
Q 806 3050 800 2363
Q 1003 2672 1297 2822
Q 1591 2972 1913 2972
Q 2475 2972 2870 2558
Q 3266 2144 3266 1488
Q 3266 1056 3080 686
Q 2894 316 2569 119
Q 2244 -78 1831 -78
Q 1128 -78 684 439
Q 241 956 241 2144
Q 241 3472 731 4075
Q 1159 4600 1884 4600
Q 2425 4600 2770 4297
Q 3116 3994 3184 3459
z
M 888 1484
Q 888 1194 1011 928
Q 1134 663 1356 523
Q 1578 384 1822 384
Q 2178 384 2434 671
Q 2691 959 2691 1453
Q 2691 1928 2437 2201
Q 2184 2475 1800 2475
Q 1419 2475 1153 2201
Q 888 1928 888 1484
z
" transform="scale(0.015625)"/>
       </defs>
       <use xlink:href="#ArialMT-36"/>
      </g>
     </g>
    </g>
    <g id="xtick_4">
     <g id="line2d_7">
      <path d="M 221.862465 248.412
L 221.862465 23.208
" clip-path="url(#pd02acc84f5)" style="fill: none; stroke: #e9e9e9; stroke-opacity: 0.3; stroke-width: 0.7; stroke-linecap: round"/>
     </g>
     <g id="line2d_8">
      <g>
       <use xlink:href="#me6f1b81da5" x="221.862465" y="248.412" style="fill: #1a1a1a; stroke: #1a1a1a"/>
      </g>
     </g>
     <g id="text_4">
      <!-- 8 -->
      <g style="fill: #1a1a1a" transform="translate(219.415652 263.010875) scale(0.088 -0.088)">
       <defs>
        <path id="ArialMT-38" d="M 1131 2484
Q 781 2613 612 2850
Q 444 3088 444 3419
Q 444 3919 803 4259
Q 1163 4600 1759 4600
Q 2359 4600 2725 4251
Q 3091 3903 3091 3403
Q 3091 3084 2923 2848
Q 2756 2613 2416 2484
Q 2838 2347 3058 2040
Q 3278 1734 3278 1309
Q 3278 722 2862 322
Q 2447 -78 1769 -78
Q 1091 -78 675 323
Q 259 725 259 1325
Q 259 1772 486 2073
Q 713 2375 1131 2484
z
M 1019 3438
Q 1019 3113 1228 2906
Q 1438 2700 1772 2700
Q 2097 2700 2305 2904
Q 2513 3109 2513 3406
Q 2513 3716 2298 3927
Q 2084 4138 1766 4138
Q 1444 4138 1231 3931
Q 1019 3725 1019 3438
z
M 838 1322
Q 838 1081 952 856
Q 1066 631 1291 507
Q 1516 384 1775 384
Q 2178 384 2440 643
Q 2703 903 2703 1303
Q 2703 1709 2433 1975
Q 2163 2241 1756 2241
Q 1359 2241 1098 1978
Q 838 1716 838 1322
z
" transform="scale(0.015625)"/>
       </defs>
       <use xlink:href="#ArialMT-38"/>
      </g>
     </g>
    </g>
    <g id="xtick_5">
     <g id="line2d_9">
      <path d="M 269.098085 248.412
L 269.098085 23.208
" clip-path="url(#pd02acc84f5)" style="fill: none; stroke: #e9e9e9; stroke-opacity: 0.3; stroke-width: 0.7; stroke-linecap: round"/>
     </g>
     <g id="line2d_10">
      <g>
       <use xlink:href="#me6f1b81da5" x="269.098085" y="248.412" style="fill: #1a1a1a; stroke: #1a1a1a"/>
      </g>
     </g>
     <g id="text_5">
      <!-- 10 -->
      <g style="fill: #1a1a1a" transform="translate(264.20446 263.010875) scale(0.088 -0.088)">
       <defs>
        <path id="ArialMT-31" d="M 2384 0
L 1822 0
L 1822 3584
Q 1619 3391 1289 3197
Q 959 3003 697 2906
L 697 3450
Q 1169 3672 1522 3987
Q 1875 4303 2022 4600
L 2384 4600
L 2384 0
z
" transform="scale(0.015625)"/>
        <path id="ArialMT-30" d="M 266 2259
Q 266 3072 433 3567
Q 600 4063 929 4331
Q 1259 4600 1759 4600
Q 2128 4600 2406 4451
Q 2684 4303 2865 4023
Q 3047 3744 3150 3342
Q 3253 2941 3253 2259
Q 3253 1453 3087 958
Q 2922 463 2592 192
Q 2263 -78 1759 -78
Q 1097 -78 719 397
Q 266 969 266 2259
z
M 844 2259
Q 844 1131 1108 757
Q 1372 384 1759 384
Q 2147 384 2411 759
Q 2675 1134 2675 2259
Q 2675 3391 2411 3762
Q 2147 4134 1753 4134
Q 1366 4134 1134 3806
Q 844 3388 844 2259
z
" transform="scale(0.015625)"/>
       </defs>
       <use xlink:href="#ArialMT-31"/>
       <use xlink:href="#ArialMT-30" transform="translate(55.615234 0)"/>
      </g>
     </g>
    </g>
    <g id="xtick_6">
     <g id="line2d_11">
      <path d="M 316.333705 248.412
L 316.333705 23.208
" clip-path="url(#pd02acc84f5)" style="fill: none; stroke: #e9e9e9; stroke-opacity: 0.3; stroke-width: 0.7; stroke-linecap: round"/>
     </g>
     <g id="line2d_12">
      <g>
       <use xlink:href="#me6f1b81da5" x="316.333705" y="248.412" style="fill: #1a1a1a; stroke: #1a1a1a"/>
      </g>
     </g>
     <g id="text_6">
      <!-- 12 -->
      <g style="fill: #1a1a1a" transform="translate(311.44008 263.010875) scale(0.088 -0.088)">
       <use xlink:href="#ArialMT-31"/>
       <use xlink:href="#ArialMT-32" transform="translate(55.615234 0)"/>
      </g>
     </g>
    </g>
    <g id="text_7">
     <!-- threads -->
     <g style="fill: #1a1a1a" transform="translate(169.098 275.631375) scale(0.096 -0.096)">
      <defs>
       <path id="Arial-BoldMT-74" d="M 1981 3319
L 1981 2619
L 1381 2619
L 1381 1281
Q 1381 875 1398 808
Q 1416 741 1477 697
Q 1538 653 1625 653
Q 1747 653 1978 738
L 2053 56
Q 1747 -75 1359 -75
Q 1122 -75 931 4
Q 741 84 652 211
Q 563 338 528 553
Q 500 706 500 1172
L 500 2619
L 97 2619
L 97 3319
L 500 3319
L 500 3978
L 1381 4491
L 1381 3319
L 1981 3319
z
" transform="scale(0.015625)"/>
       <path id="Arial-BoldMT-68" d="M 1334 4581
L 1334 2897
Q 1759 3394 2350 3394
Q 2653 3394 2897 3281
Q 3141 3169 3264 2994
Q 3388 2819 3433 2606
Q 3478 2394 3478 1947
L 3478 0
L 2600 0
L 2600 1753
Q 2600 2275 2550 2415
Q 2500 2556 2373 2639
Q 2247 2722 2056 2722
Q 1838 2722 1666 2615
Q 1494 2509 1414 2295
Q 1334 2081 1334 1663
L 1334 0
L 456 0
L 456 4581
L 1334 4581
z
" transform="scale(0.015625)"/>
       <path id="Arial-BoldMT-72" d="M 1300 0
L 422 0
L 422 3319
L 1238 3319
L 1238 2847
Q 1447 3181 1614 3287
Q 1781 3394 1994 3394
Q 2294 3394 2572 3228
L 2300 2463
Q 2078 2606 1888 2606
Q 1703 2606 1575 2504
Q 1447 2403 1373 2137
Q 1300 1872 1300 1025
L 1300 0
z
" transform="scale(0.015625)"/>
       <path id="Arial-BoldMT-65" d="M 2381 1056
L 3256 909
Q 3088 428 2723 176
Q 2359 -75 1813 -75
Q 947 -75 531 491
Q 203 944 203 1634
Q 203 2459 634 2926
Q 1066 3394 1725 3394
Q 2466 3394 2894 2905
Q 3322 2416 3303 1406
L 1103 1406
Q 1113 1016 1316 798
Q 1519 581 1822 581
Q 2028 581 2168 693
Q 2309 806 2381 1056
z
M 2431 1944
Q 2422 2325 2234 2523
Q 2047 2722 1778 2722
Q 1491 2722 1303 2513
Q 1116 2303 1119 1944
L 2431 1944
z
" transform="scale(0.015625)"/>
       <path id="Arial-BoldMT-61" d="M 1116 2306
L 319 2450
Q 453 2931 781 3162
Q 1109 3394 1756 3394
Q 2344 3394 2631 3255
Q 2919 3116 3036 2902
Q 3153 2688 3153 2116
L 3144 1091
Q 3144 653 3186 445
Q 3228 238 3344 0
L 2475 0
Q 2441 88 2391 259
Q 2369 338 2359 363
Q 2134 144 1878 34
Q 1622 -75 1331 -75
Q 819 -75 523 203
Q 228 481 228 906
Q 228 1188 362 1408
Q 497 1628 739 1745
Q 981 1863 1438 1950
Q 2053 2066 2291 2166
L 2291 2253
Q 2291 2506 2166 2614
Q 2041 2722 1694 2722
Q 1459 2722 1328 2630
Q 1197 2538 1116 2306
z
M 2291 1594
Q 2122 1538 1756 1459
Q 1391 1381 1278 1306
Q 1106 1184 1106 997
Q 1106 813 1243 678
Q 1381 544 1594 544
Q 1831 544 2047 700
Q 2206 819 2256 991
Q 2291 1103 2291 1419
L 2291 1594
z
" transform="scale(0.015625)"/>
       <path id="Arial-BoldMT-64" d="M 3503 0
L 2688 0
L 2688 488
Q 2484 203 2207 64
Q 1931 -75 1650 -75
Q 1078 -75 670 386
Q 263 847 263 1672
Q 263 2516 659 2955
Q 1056 3394 1663 3394
Q 2219 3394 2625 2931
L 2625 4581
L 3503 4581
L 3503 0
z
M 1159 1731
Q 1159 1200 1306 963
Q 1519 619 1900 619
Q 2203 619 2415 876
Q 2628 1134 2628 1647
Q 2628 2219 2422 2470
Q 2216 2722 1894 2722
Q 1581 2722 1370 2473
Q 1159 2225 1159 1731
z
" transform="scale(0.015625)"/>
       <path id="Arial-BoldMT-73" d="M 150 947
L 1031 1081
Q 1088 825 1259 692
Q 1431 559 1741 559
Q 2081 559 2253 684
Q 2369 772 2369 919
Q 2369 1019 2306 1084
Q 2241 1147 2013 1200
Q 950 1434 666 1628
Q 272 1897 272 2375
Q 272 2806 612 3100
Q 953 3394 1669 3394
Q 2350 3394 2681 3172
Q 3013 2950 3138 2516
L 2309 2363
Q 2256 2556 2107 2659
Q 1959 2763 1684 2763
Q 1338 2763 1188 2666
Q 1088 2597 1088 2488
Q 1088 2394 1175 2328
Q 1294 2241 1995 2081
Q 2697 1922 2975 1691
Q 3250 1456 3250 1038
Q 3250 581 2869 253
Q 2488 -75 1741 -75
Q 1063 -75 667 200
Q 272 475 150 947
z
" transform="scale(0.015625)"/>
      </defs>
      <use xlink:href="#Arial-BoldMT-74"/>
      <use xlink:href="#Arial-BoldMT-68" transform="translate(33.300781 0)"/>
      <use xlink:href="#Arial-BoldMT-72" transform="translate(94.384766 0)"/>
      <use xlink:href="#Arial-BoldMT-65" transform="translate(133.300781 0)"/>
      <use xlink:href="#Arial-BoldMT-61" transform="translate(188.916016 0)"/>
      <use xlink:href="#Arial-BoldMT-64" transform="translate(244.53125 0)"/>
      <use xlink:href="#Arial-BoldMT-73" transform="translate(305.615234 0)"/>
     </g>
    </g>
   </g>
   <g id="matplotlib.axis_2">
    <g id="ytick_1">
     <g id="line2d_13">
      <path d="M 43.548 211.564578
L 329.3235 211.564578
" clip-path="url(#pd02acc84f5)" style="fill: none; stroke: #e9e9e9; stroke-opacity: 0.3; stroke-width: 0.7; stroke-linecap: round"/>
     </g>
     <g id="line2d_14">
      <defs>
       <path id="m3c7f76c86a" d="M 0 0
L -4.8 0
" style="stroke: #1a1a1a"/>
      </defs>
      <g>
       <use xlink:href="#m3c7f76c86a" x="43.548" y="211.564578" style="fill: #1a1a1a; stroke: #1a1a1a"/>
      </g>
     </g>
     <g id="text_8">
      <!-- 0.2 -->
      <g style="fill: #1a1a1a" transform="translate(23.016 214.714015) scale(0.088 -0.088)">
       <defs>
        <path id="ArialMT-2e" d="M 581 0
L 581 641
L 1222 641
L 1222 0
L 581 0
z
" transform="scale(0.015625)"/>
       </defs>
       <use xlink:href="#ArialMT-30"/>
       <use xlink:href="#ArialMT-2e" transform="translate(55.615234 0)"/>
       <use xlink:href="#ArialMT-32" transform="translate(83.398438 0)"/>
      </g>
     </g>
    </g>
    <g id="ytick_2">
     <g id="line2d_15">
      <path d="M 43.548 166.3418
L 329.3235 166.3418
" clip-path="url(#pd02acc84f5)" style="fill: none; stroke: #e9e9e9; stroke-opacity: 0.3; stroke-width: 0.7; stroke-linecap: round"/>
     </g>
     <g id="line2d_16">
      <g>
       <use xlink:href="#m3c7f76c86a" x="43.548" y="166.3418" style="fill: #1a1a1a; stroke: #1a1a1a"/>
      </g>
     </g>
     <g id="text_9">
      <!-- 0.4 -->
      <g style="fill: #1a1a1a" transform="translate(23.016 169.491238) scale(0.088 -0.088)">
       <use xlink:href="#ArialMT-30"/>
       <use xlink:href="#ArialMT-2e" transform="translate(55.615234 0)"/>
       <use xlink:href="#ArialMT-34" transform="translate(83.398438 0)"/>
      </g>
     </g>
    </g>
    <g id="ytick_3">
     <g id="line2d_17">
      <path d="M 43.548 121.119023
L 329.3235 121.119023
" clip-path="url(#pd02acc84f5)" style="fill: none; stroke: #e9e9e9; stroke-opacity: 0.3; stroke-width: 0.7; stroke-linecap: round"/>
     </g>
     <g id="line2d_18">
      <g>
       <use xlink:href="#m3c7f76c86a" x="43.548" y="121.119023" style="fill: #1a1a1a; stroke: #1a1a1a"/>
      </g>
     </g>
     <g id="text_10">
      <!-- 0.6 -->
      <g style="fill: #1a1a1a" transform="translate(23.016 124.26846) scale(0.088 -0.088)">
       <use xlink:href="#ArialMT-30"/>
       <use xlink:href="#ArialMT-2e" transform="translate(55.615234 0)"/>
       <use xlink:href="#ArialMT-36" transform="translate(83.398438 0)"/>
      </g>
     </g>
    </g>
    <g id="ytick_4">
     <g id="line2d_19">
      <path d="M 43.548 75.896245
L 329.3235 75.896245
" clip-path="url(#pd02acc84f5)" style="fill: none; stroke: #e9e9e9; stroke-opacity: 0.3; stroke-width: 0.7; stroke-linecap: round"/>
     </g>
     <g id="line2d_20">
      <g>
       <use xlink:href="#m3c7f76c86a" x="43.548" y="75.896245" style="fill: #1a1a1a; stroke: #1a1a1a"/>
      </g>
     </g>
     <g id="text_11">
      <!-- 0.8 -->
      <g style="fill: #1a1a1a" transform="translate(23.016 79.045683) scale(0.088 -0.088)">
       <use xlink:href="#ArialMT-30"/>
       <use xlink:href="#ArialMT-2e" transform="translate(55.615234 0)"/>
       <use xlink:href="#ArialMT-38" transform="translate(83.398438 0)"/>
      </g>
     </g>
    </g>
    <g id="ytick_5">
     <g id="line2d_21">
      <path d="M 43.548 30.673467
L 329.3235 30.673467
" clip-path="url(#pd02acc84f5)" style="fill: none; stroke: #e9e9e9; stroke-opacity: 0.3; stroke-width: 0.7; stroke-linecap: round"/>
     </g>
     <g id="line2d_22">
      <g>
       <use xlink:href="#m3c7f76c86a" x="43.548" y="30.673467" style="fill: #1a1a1a; stroke: #1a1a1a"/>
      </g>
     </g>
     <g id="text_12">
      <!-- 1.0 -->
      <g style="fill: #1a1a1a" transform="translate(23.016 33.822905) scale(0.088 -0.088)">
       <use xlink:href="#ArialMT-31"/>
       <use xlink:href="#ArialMT-2e" transform="translate(55.615234 0)"/>
       <use xlink:href="#ArialMT-30" transform="translate(83.398438 0)"/>
      </g>
     </g>
    </g>
    <g id="text_13">
     <!-- atoms/s — higher is better -->
     <g style="fill: #1a1a1a" transform="translate(16.9955 196.0875) rotate(-90) scale(0.096 -0.096)">
      <defs>
       <path id="Arial-BoldMT-6f" d="M 256 1706
Q 256 2144 472 2553
Q 688 2963 1083 3178
Q 1478 3394 1966 3394
Q 2719 3394 3200 2905
Q 3681 2416 3681 1669
Q 3681 916 3195 420
Q 2709 -75 1972 -75
Q 1516 -75 1102 131
Q 688 338 472 736
Q 256 1134 256 1706
z
M 1156 1659
Q 1156 1166 1390 903
Q 1625 641 1969 641
Q 2313 641 2545 903
Q 2778 1166 2778 1666
Q 2778 2153 2545 2415
Q 2313 2678 1969 2678
Q 1625 2678 1390 2415
Q 1156 2153 1156 1659
z
" transform="scale(0.015625)"/>
       <path id="Arial-BoldMT-6d" d="M 394 3319
L 1203 3319
L 1203 2866
Q 1638 3394 2238 3394
Q 2556 3394 2790 3262
Q 3025 3131 3175 2866
Q 3394 3131 3647 3262
Q 3900 3394 4188 3394
Q 4553 3394 4806 3245
Q 5059 3097 5184 2809
Q 5275 2597 5275 2122
L 5275 0
L 4397 0
L 4397 1897
Q 4397 2391 4306 2534
Q 4184 2722 3931 2722
Q 3747 2722 3584 2609
Q 3422 2497 3350 2280
Q 3278 2063 3278 1594
L 3278 0
L 2400 0
L 2400 1819
Q 2400 2303 2353 2443
Q 2306 2584 2207 2653
Q 2109 2722 1941 2722
Q 1738 2722 1575 2612
Q 1413 2503 1342 2297
Q 1272 2091 1272 1613
L 1272 0
L 394 0
L 394 3319
z
" transform="scale(0.015625)"/>
       <path id="Arial-BoldMT-2f" d="M -9 -78
L 1125 4659
L 1784 4659
L 638 -78
L -9 -78
z
" transform="scale(0.015625)"/>
       <path id="Arial-BoldMT-20" transform="scale(0.015625)"/>
       <path id="Arial-BoldMT-2014" d="M 0 1331
L 0 1988
L 6400 1988
L 6400 1331
L 0 1331
z
" transform="scale(0.015625)"/>
       <path id="Arial-BoldMT-69" d="M 459 3769
L 459 4581
L 1338 4581
L 1338 3769
L 459 3769
z
M 459 0
L 459 3319
L 1338 3319
L 1338 0
L 459 0
z
" transform="scale(0.015625)"/>
       <path id="Arial-BoldMT-67" d="M 378 -219
L 1381 -341
Q 1406 -516 1497 -581
Q 1622 -675 1891 -675
Q 2234 -675 2406 -572
Q 2522 -503 2581 -350
Q 2622 -241 2622 53
L 2622 538
Q 2228 0 1628 0
Q 959 0 569 566
Q 263 1013 263 1678
Q 263 2513 664 2953
Q 1066 3394 1663 3394
Q 2278 3394 2678 2853
L 2678 3319
L 3500 3319
L 3500 341
Q 3500 -247 3403 -537
Q 3306 -828 3131 -993
Q 2956 -1159 2664 -1253
Q 2372 -1347 1925 -1347
Q 1081 -1347 728 -1058
Q 375 -769 375 -325
Q 375 -281 378 -219
z
M 1163 1728
Q 1163 1200 1367 954
Q 1572 709 1872 709
Q 2194 709 2416 961
Q 2638 1213 2638 1706
Q 2638 2222 2425 2472
Q 2213 2722 1888 2722
Q 1572 2722 1367 2476
Q 1163 2231 1163 1728
z
" transform="scale(0.015625)"/>
       <path id="Arial-BoldMT-62" d="M 422 0
L 422 4581
L 1300 4581
L 1300 2931
Q 1706 3394 2263 3394
Q 2869 3394 3266 2955
Q 3663 2516 3663 1694
Q 3663 844 3258 384
Q 2853 -75 2275 -75
Q 1991 -75 1714 67
Q 1438 209 1238 488
L 1238 0
L 422 0
z
M 1294 1731
Q 1294 1216 1456 969
Q 1684 619 2063 619
Q 2353 619 2558 867
Q 2763 1116 2763 1650
Q 2763 2219 2556 2470
Q 2350 2722 2028 2722
Q 1713 2722 1503 2476
Q 1294 2231 1294 1731
z
" transform="scale(0.015625)"/>
      </defs>
      <use xlink:href="#Arial-BoldMT-61"/>
      <use xlink:href="#Arial-BoldMT-74" transform="translate(55.615234 0)"/>
      <use xlink:href="#Arial-BoldMT-6f" transform="translate(88.916016 0)"/>
      <use xlink:href="#Arial-BoldMT-6d" transform="translate(150 0)"/>
      <use xlink:href="#Arial-BoldMT-73" transform="translate(238.916016 0)"/>
      <use xlink:href="#Arial-BoldMT-2f" transform="translate(294.53125 0)"/>
      <use xlink:href="#Arial-BoldMT-73" transform="translate(322.314453 0)"/>
      <use xlink:href="#Arial-BoldMT-20" transform="translate(377.929688 0)"/>
      <use xlink:href="#Arial-BoldMT-2014" transform="translate(405.712891 0)"/>
      <use xlink:href="#Arial-BoldMT-20" transform="translate(505.712891 0)"/>
      <use xlink:href="#Arial-BoldMT-68" transform="translate(533.496094 0)"/>
      <use xlink:href="#Arial-BoldMT-69" transform="translate(594.580078 0)"/>
      <use xlink:href="#Arial-BoldMT-67" transform="translate(622.363281 0)"/>
      <use xlink:href="#Arial-BoldMT-68" transform="translate(683.447266 0)"/>
      <use xlink:href="#Arial-BoldMT-65" transform="translate(744.53125 0)"/>
      <use xlink:href="#Arial-BoldMT-72" transform="translate(800.146484 0)"/>
      <use xlink:href="#Arial-BoldMT-20" transform="translate(839.0625 0)"/>
      <use xlink:href="#Arial-BoldMT-69" transform="translate(866.845703 0)"/>
      <use xlink:href="#Arial-BoldMT-73" transform="translate(894.628906 0)"/>
      <use xlink:href="#Arial-BoldMT-20" transform="translate(950.244141 0)"/>
      <use xlink:href="#Arial-BoldMT-62" transform="translate(978.027344 0)"/>
      <use xlink:href="#Arial-BoldMT-65" transform="translate(1039.111328 0)"/>
      <use xlink:href="#Arial-BoldMT-74" transform="translate(1094.726562 0)"/>
      <use xlink:href="#Arial-BoldMT-74" transform="translate(1128.027344 0)"/>
      <use xlink:href="#Arial-BoldMT-65" transform="translate(1161.328125 0)"/>
      <use xlink:href="#Arial-BoldMT-72" transform="translate(1216.943359 0)"/>
     </g>
    </g>
    <g id="text_14">
     <!-- 1e7 -->
     <g style="fill: #1a1a1a" transform="translate(43.548 20.208) scale(0.088 -0.088)">
      <defs>
       <path id="ArialMT-65" d="M 2694 1069
L 3275 997
Q 3138 488 2766 206
Q 2394 -75 1816 -75
Q 1088 -75 661 373
Q 234 822 234 1631
Q 234 2469 665 2931
Q 1097 3394 1784 3394
Q 2450 3394 2872 2941
Q 3294 2488 3294 1666
Q 3294 1616 3291 1516
L 816 1516
Q 847 969 1125 678
Q 1403 388 1819 388
Q 2128 388 2347 550
Q 2566 713 2694 1069
z
M 847 1978
L 2700 1978
Q 2663 2397 2488 2606
Q 2219 2931 1791 2931
Q 1403 2931 1139 2672
Q 875 2413 847 1978
z
" transform="scale(0.015625)"/>
       <path id="ArialMT-37" d="M 303 3981
L 303 4522
L 3269 4522
L 3269 4084
Q 2831 3619 2401 2847
Q 1972 2075 1738 1259
Q 1569 684 1522 0
L 944 0
Q 953 541 1156 1306
Q 1359 2072 1739 2783
Q 2119 3494 2547 3981
L 303 3981
z
" transform="scale(0.015625)"/>
      </defs>
      <use xlink:href="#ArialMT-31"/>
      <use xlink:href="#ArialMT-65" transform="translate(55.615234 0)"/>
      <use xlink:href="#ArialMT-37" transform="translate(111.230469 0)"/>
     </g>
    </g>
   </g>
   <g id="line2d_23">
    <path d="M 56.537795 238.175455
L 80.155605 236.24751
L 103.773415 235.122153
L 127.391225 233.62911
L 174.626845 233.537774
L 221.862465 232.682267
L 316.333705 232.038429
" clip-path="url(#pd02acc84f5)" style="fill: none; stroke: #d95f02; stroke-width: 1.2; stroke-linecap: round"/>
    <defs>
     <path id="m04f4097d9e" d="M -2.4 2.4
L 2.4 2.4
L 2.4 -2.4
L -2.4 -2.4
z
" style="stroke: #d95f02; stroke-linejoin: miter"/>
    </defs>
    <g clip-path="url(#pd02acc84f5)">
     <use xlink:href="#m04f4097d9e" x="56.537795" y="238.175455" style="fill: #d95f02; stroke: #d95f02; stroke-linejoin: miter"/>
     <use xlink:href="#m04f4097d9e" x="80.155605" y="236.24751" style="fill: #d95f02; stroke: #d95f02; stroke-linejoin: miter"/>
     <use xlink:href="#m04f4097d9e" x="103.773415" y="235.122153" style="fill: #d95f02; stroke: #d95f02; stroke-linejoin: miter"/>
     <use xlink:href="#m04f4097d9e" x="127.391225" y="233.62911" style="fill: #d95f02; stroke: #d95f02; stroke-linejoin: miter"/>
     <use xlink:href="#m04f4097d9e" x="174.626845" y="233.537774" style="fill: #d95f02; stroke: #d95f02; stroke-linejoin: miter"/>
     <use xlink:href="#m04f4097d9e" x="221.862465" y="232.682267" style="fill: #d95f02; stroke: #d95f02; stroke-linejoin: miter"/>
     <use xlink:href="#m04f4097d9e" x="316.333705" y="232.038429" style="fill: #d95f02; stroke: #d95f02; stroke-linejoin: miter"/>
    </g>
   </g>
   <g id="line2d_24">
    <path d="M 56.537795 238.175455
L 80.155605 219.563554
L 103.773415 200.951653
L 127.391225 182.339752
L 174.626845 145.11595
L 221.862465 107.892149
L 316.333705 33.444545
" clip-path="url(#pd02acc84f5)" style="fill: none; stroke-dasharray: 2.96,1.28; stroke-dashoffset: 0; stroke: #808080; stroke-width: 0.8"/>
   </g>
   <g id="patch_3">
    <path d="M 43.548 248.412
L 43.548 23.208
" style="fill: none; stroke: #262626; stroke-width: 1.2; stroke-linejoin: miter; stroke-linecap: square"/>
   </g>
   <g id="patch_4">
    <path d="M 329.3235 248.412
L 329.3235 23.208
" style="fill: none; stroke: #262626; stroke-width: 1.2; stroke-linejoin: miter; stroke-linecap: square"/>
   </g>
   <g id="patch_5">
    <path d="M 43.548 248.412
L 329.3235 248.412
" style="fill: none; stroke: #262626; stroke-width: 1.2; stroke-linejoin: miter; stroke-linecap: square"/>
   </g>
   <g id="patch_6">
    <path d="M 43.548 23.208
L 329.3235 23.208
" style="fill: none; stroke: #262626; stroke-width: 1.2; stroke-linejoin: miter; stroke-linecap: square"/>
   </g>
   <g id="text_15">
    <!-- dataset (many small frames) -->
    <g style="fill: #1a1a1a" transform="translate(121.87875 17.208) scale(0.096 -0.096)">
     <defs>
      <path id="Arial-BoldMT-28" d="M 1916 -1347
L 1313 -1347
Q 834 -625 584 153
Q 334 931 334 1659
Q 334 2563 644 3369
Q 913 4069 1325 4659
L 1925 4659
Q 1497 3713 1336 3048
Q 1175 2384 1175 1641
Q 1175 1128 1270 590
Q 1366 53 1531 -431
Q 1641 -750 1916 -1347
z
" transform="scale(0.015625)"/>
      <path id="Arial-BoldMT-6e" d="M 3478 0
L 2600 0
L 2600 1694
Q 2600 2231 2544 2389
Q 2488 2547 2361 2634
Q 2234 2722 2056 2722
Q 1828 2722 1647 2597
Q 1466 2472 1398 2265
Q 1331 2059 1331 1503
L 1331 0
L 453 0
L 453 3319
L 1269 3319
L 1269 2831
Q 1703 3394 2363 3394
Q 2653 3394 2893 3289
Q 3134 3184 3257 3021
Q 3381 2859 3429 2653
Q 3478 2447 3478 2063
L 3478 0
z
" transform="scale(0.015625)"/>
      <path id="Arial-BoldMT-79" d="M 44 3319
L 978 3319
L 1772 963
L 2547 3319
L 3456 3319
L 2284 125
L 2075 -453
Q 1959 -744 1854 -897
Q 1750 -1050 1614 -1145
Q 1478 -1241 1279 -1294
Q 1081 -1347 831 -1347
Q 578 -1347 334 -1294
L 256 -606
Q 463 -647 628 -647
Q 934 -647 1081 -467
Q 1228 -288 1306 -9
L 44 3319
z
" transform="scale(0.015625)"/>
      <path id="Arial-BoldMT-6c" d="M 459 0
L 459 4581
L 1338 4581
L 1338 0
L 459 0
z
" transform="scale(0.015625)"/>
      <path id="Arial-BoldMT-66" d="M 75 3319
L 563 3319
L 563 3569
Q 563 3988 652 4194
Q 741 4400 980 4529
Q 1219 4659 1584 4659
Q 1959 4659 2319 4547
L 2200 3934
Q 1991 3984 1797 3984
Q 1606 3984 1523 3895
Q 1441 3806 1441 3553
L 1441 3319
L 2097 3319
L 2097 2628
L 1441 2628
L 1441 0
L 563 0
L 563 2628
L 75 2628
L 75 3319
z
" transform="scale(0.015625)"/>
      <path id="Arial-BoldMT-29" d="M 216 -1347
Q 475 -791 581 -494
Q 688 -197 778 190
Q 869 578 912 926
Q 956 1275 956 1641
Q 956 2384 797 3048
Q 638 3713 209 4659
L 806 4659
Q 1278 3988 1539 3234
Q 1800 2481 1800 1706
Q 1800 1053 1594 306
Q 1359 -531 822 -1347
L 216 -1347
z
" transform="scale(0.015625)"/>
     </defs>
     <use xlink:href="#Arial-BoldMT-64"/>
     <use xlink:href="#Arial-BoldMT-61" transform="translate(61.083984 0)"/>
     <use xlink:href="#Arial-BoldMT-74" transform="translate(116.699219 0)"/>
     <use xlink:href="#Arial-BoldMT-61" transform="translate(150 0)"/>
     <use xlink:href="#Arial-BoldMT-73" transform="translate(205.615234 0)"/>
     <use xlink:href="#Arial-BoldMT-65" transform="translate(261.230469 0)"/>
     <use xlink:href="#Arial-BoldMT-74" transform="translate(316.845703 0)"/>
     <use xlink:href="#Arial-BoldMT-20" transform="translate(350.146484 0)"/>
     <use xlink:href="#Arial-BoldMT-28" transform="translate(377.929688 0)"/>
     <use xlink:href="#Arial-BoldMT-6d" transform="translate(411.230469 0)"/>
     <use xlink:href="#Arial-BoldMT-61" transform="translate(500.146484 0)"/>
     <use xlink:href="#Arial-BoldMT-6e" transform="translate(555.761719 0)"/>
     <use xlink:href="#Arial-BoldMT-79" transform="translate(616.845703 0)"/>
     <use xlink:href="#Arial-BoldMT-20" transform="translate(672.460938 0)"/>
     <use xlink:href="#Arial-BoldMT-73" transform="translate(700.244141 0)"/>
     <use xlink:href="#Arial-BoldMT-6d" transform="translate(755.859375 0)"/>
     <use xlink:href="#Arial-BoldMT-61" transform="translate(844.775391 0)"/>
     <use xlink:href="#Arial-BoldMT-6c" transform="translate(900.390625 0)"/>
     <use xlink:href="#Arial-BoldMT-6c" transform="translate(928.173828 0)"/>
     <use xlink:href="#Arial-BoldMT-20" transform="translate(955.957031 0)"/>
     <use xlink:href="#Arial-BoldMT-66" transform="translate(983.740234 0)"/>
     <use xlink:href="#Arial-BoldMT-72" transform="translate(1017.041016 0)"/>
     <use xlink:href="#Arial-BoldMT-61" transform="translate(1055.957031 0)"/>
     <use xlink:href="#Arial-BoldMT-6d" transform="translate(1111.572266 0)"/>
     <use xlink:href="#Arial-BoldMT-65" transform="translate(1200.488281 0)"/>
     <use xlink:href="#Arial-BoldMT-73" transform="translate(1256.103516 0)"/>
     <use xlink:href="#Arial-BoldMT-29" transform="translate(1311.71875 0)"/>
    </g>
   </g>
   <g id="legend_1">
    <g id="patch_7">
     <path d="M 49.148 52.33425
L 109.42925 52.33425
Q 111.02925 52.33425 111.02925 50.73425
L 111.02925 28.808
Q 111.02925 27.208 109.42925 27.208
L 49.148 27.208
Q 47.548 27.208 47.548 28.808
L 47.548 50.73425
Q 47.548 52.33425 49.148 52.33425
z
" style="fill: #ffffff; opacity: 0.8; stroke: #cccccc; stroke-width: 0.8; stroke-linejoin: miter"/>
    </g>
    <g id="line2d_25">
     <path d="M 50.748 33.33425
L 58.748 33.33425
L 66.748 33.33425
" style="fill: none; stroke: #d95f02; stroke-width: 1.2; stroke-linecap: round"/>
     <g>
      <use xlink:href="#m04f4097d9e" x="58.748" y="33.33425" style="fill: #d95f02; stroke: #d95f02; stroke-linejoin: miter"/>
     </g>
    </g>
    <g id="text_16">
     <!-- oxyz.read -->
     <g style="fill: #1a1a1a" transform="translate(73.148 36.13425) scale(0.08 -0.08)">
      <defs>
       <path id="ArialMT-6f" d="M 213 1659
Q 213 2581 725 3025
Q 1153 3394 1769 3394
Q 2453 3394 2887 2945
Q 3322 2497 3322 1706
Q 3322 1066 3130 698
Q 2938 331 2570 128
Q 2203 -75 1769 -75
Q 1072 -75 642 372
Q 213 819 213 1659
z
M 791 1659
Q 791 1022 1069 705
Q 1347 388 1769 388
Q 2188 388 2466 706
Q 2744 1025 2744 1678
Q 2744 2294 2464 2611
Q 2184 2928 1769 2928
Q 1347 2928 1069 2612
Q 791 2297 791 1659
z
" transform="scale(0.015625)"/>
       <path id="ArialMT-78" d="M 47 0
L 1259 1725
L 138 3319
L 841 3319
L 1350 2541
Q 1494 2319 1581 2169
Q 1719 2375 1834 2534
L 2394 3319
L 3066 3319
L 1919 1756
L 3153 0
L 2463 0
L 1781 1031
L 1600 1309
L 728 0
L 47 0
z
" transform="scale(0.015625)"/>
       <path id="ArialMT-79" d="M 397 -1278
L 334 -750
Q 519 -800 656 -800
Q 844 -800 956 -737
Q 1069 -675 1141 -563
Q 1194 -478 1313 -144
Q 1328 -97 1363 -6
L 103 3319
L 709 3319
L 1400 1397
Q 1534 1031 1641 628
Q 1738 1016 1872 1384
L 2581 3319
L 3144 3319
L 1881 -56
Q 1678 -603 1566 -809
Q 1416 -1088 1222 -1217
Q 1028 -1347 759 -1347
Q 597 -1347 397 -1278
z
" transform="scale(0.015625)"/>
       <path id="ArialMT-7a" d="M 125 0
L 125 456
L 2238 2881
Q 1878 2863 1603 2863
L 250 2863
L 250 3319
L 2963 3319
L 2963 2947
L 1166 841
L 819 456
Q 1197 484 1528 484
L 3063 484
L 3063 0
L 125 0
z
" transform="scale(0.015625)"/>
       <path id="ArialMT-72" d="M 416 0
L 416 3319
L 922 3319
L 922 2816
Q 1116 3169 1280 3281
Q 1444 3394 1641 3394
Q 1925 3394 2219 3213
L 2025 2691
Q 1819 2813 1613 2813
Q 1428 2813 1281 2702
Q 1134 2591 1072 2394
Q 978 2094 978 1738
L 978 0
L 416 0
z
" transform="scale(0.015625)"/>
       <path id="ArialMT-61" d="M 2588 409
Q 2275 144 1986 34
Q 1697 -75 1366 -75
Q 819 -75 525 192
Q 231 459 231 875
Q 231 1119 342 1320
Q 453 1522 633 1644
Q 813 1766 1038 1828
Q 1203 1872 1538 1913
Q 2219 1994 2541 2106
Q 2544 2222 2544 2253
Q 2544 2597 2384 2738
Q 2169 2928 1744 2928
Q 1347 2928 1158 2789
Q 969 2650 878 2297
L 328 2372
Q 403 2725 575 2942
Q 747 3159 1072 3276
Q 1397 3394 1825 3394
Q 2250 3394 2515 3294
Q 2781 3194 2906 3042
Q 3031 2891 3081 2659
Q 3109 2516 3109 2141
L 3109 1391
Q 3109 606 3145 398
Q 3181 191 3288 0
L 2700 0
Q 2613 175 2588 409
z
M 2541 1666
Q 2234 1541 1622 1453
Q 1275 1403 1131 1340
Q 988 1278 909 1158
Q 831 1038 831 891
Q 831 666 1001 516
Q 1172 366 1500 366
Q 1825 366 2078 508
Q 2331 650 2450 897
Q 2541 1088 2541 1459
L 2541 1666
z
" transform="scale(0.015625)"/>
       <path id="ArialMT-64" d="M 2575 0
L 2575 419
Q 2259 -75 1647 -75
Q 1250 -75 917 144
Q 584 363 401 755
Q 219 1147 219 1656
Q 219 2153 384 2558
Q 550 2963 881 3178
Q 1213 3394 1622 3394
Q 1922 3394 2156 3267
Q 2391 3141 2538 2938
L 2538 4581
L 3097 4581
L 3097 0
L 2575 0
z
M 797 1656
Q 797 1019 1065 703
Q 1334 388 1700 388
Q 2069 388 2326 689
Q 2584 991 2584 1609
Q 2584 2291 2321 2609
Q 2059 2928 1675 2928
Q 1300 2928 1048 2622
Q 797 2316 797 1656
z
" transform="scale(0.015625)"/>
      </defs>
      <use xlink:href="#ArialMT-6f"/>
      <use xlink:href="#ArialMT-78" transform="translate(55.615234 0)"/>
      <use xlink:href="#ArialMT-79" transform="translate(105.615234 0)"/>
      <use xlink:href="#ArialMT-7a" transform="translate(155.615234 0)"/>
      <use xlink:href="#ArialMT-2e" transform="translate(205.615234 0)"/>
      <use xlink:href="#ArialMT-72" transform="translate(233.398438 0)"/>
      <use xlink:href="#ArialMT-65" transform="translate(266.699219 0)"/>
      <use xlink:href="#ArialMT-61" transform="translate(322.314453 0)"/>
      <use xlink:href="#ArialMT-64" transform="translate(377.929688 0)"/>
     </g>
    </g>
    <g id="line2d_26">
     <path d="M 50.748 44.74425
L 58.748 44.74425
L 66.748 44.74425
" style="fill: none; stroke-dasharray: 2.96,1.28; stroke-dashoffset: 0; stroke: #808080; stroke-width: 0.8"/>
    </g>
    <g id="text_17">
     <!-- linear -->
     <g style="fill: #1a1a1a" transform="translate(73.148 47.54425) scale(0.08 -0.08)">
      <defs>
       <path id="ArialMT-6c" d="M 409 0
L 409 4581
L 972 4581
L 972 0
L 409 0
z
" transform="scale(0.015625)"/>
       <path id="ArialMT-69" d="M 425 3934
L 425 4581
L 988 4581
L 988 3934
L 425 3934
z
M 425 0
L 425 3319
L 988 3319
L 988 0
L 425 0
z
" transform="scale(0.015625)"/>
       <path id="ArialMT-6e" d="M 422 0
L 422 3319
L 928 3319
L 928 2847
Q 1294 3394 1984 3394
Q 2284 3394 2536 3286
Q 2788 3178 2913 3003
Q 3038 2828 3088 2588
Q 3119 2431 3119 2041
L 3119 0
L 2556 0
L 2556 2019
Q 2556 2363 2490 2533
Q 2425 2703 2258 2804
Q 2091 2906 1866 2906
Q 1506 2906 1245 2678
Q 984 2450 984 1813
L 984 0
L 422 0
z
" transform="scale(0.015625)"/>
      </defs>
      <use xlink:href="#ArialMT-6c"/>
      <use xlink:href="#ArialMT-69" transform="translate(22.216797 0)"/>
      <use xlink:href="#ArialMT-6e" transform="translate(44.433594 0)"/>
      <use xlink:href="#ArialMT-65" transform="translate(100.048828 0)"/>
      <use xlink:href="#ArialMT-61" transform="translate(155.664062 0)"/>
      <use xlink:href="#ArialMT-72" transform="translate(211.279297 0)"/>
     </g>
    </g>
   </g>
  </g>
  <g id="axes_2">
   <g id="patch_8">
    <path d="M 365.5365 248.412
L 651.312 248.412
L 651.312 23.208
L 365.5365 23.208
z
" style="fill: #ffffff"/>
   </g>
   <g id="matplotlib.axis_3">
    <g id="xtick_7">
     <g id="line2d_27">
      <path d="M 402.144105 248.412
L 402.144105 23.208
" clip-path="url(#p84733a1074)" style="fill: none; stroke: #e9e9e9; stroke-opacity: 0.3; stroke-width: 0.7; stroke-linecap: round"/>
     </g>
     <g id="line2d_28">
      <g>
       <use xlink:href="#me6f1b81da5" x="402.144105" y="248.412" style="fill: #1a1a1a; stroke: #1a1a1a"/>
      </g>
     </g>
     <g id="text_18">
      <!-- 2 -->
      <g style="fill: #1a1a1a" transform="translate(399.697293 263.010875) scale(0.088 -0.088)">
       <use xlink:href="#ArialMT-32"/>
      </g>
     </g>
    </g>
    <g id="xtick_8">
     <g id="line2d_29">
      <path d="M 449.379725 248.412
L 449.379725 23.208
" clip-path="url(#p84733a1074)" style="fill: none; stroke: #e9e9e9; stroke-opacity: 0.3; stroke-width: 0.7; stroke-linecap: round"/>
     </g>
     <g id="line2d_30">
      <g>
       <use xlink:href="#me6f1b81da5" x="449.379725" y="248.412" style="fill: #1a1a1a; stroke: #1a1a1a"/>
      </g>
     </g>
     <g id="text_19">
      <!-- 4 -->
      <g style="fill: #1a1a1a" transform="translate(446.932913 263.010875) scale(0.088 -0.088)">
       <use xlink:href="#ArialMT-34"/>
      </g>
     </g>
    </g>
    <g id="xtick_9">
     <g id="line2d_31">
      <path d="M 496.615345 248.412
L 496.615345 23.208
" clip-path="url(#p84733a1074)" style="fill: none; stroke: #e9e9e9; stroke-opacity: 0.3; stroke-width: 0.7; stroke-linecap: round"/>
     </g>
     <g id="line2d_32">
      <g>
       <use xlink:href="#me6f1b81da5" x="496.615345" y="248.412" style="fill: #1a1a1a; stroke: #1a1a1a"/>
      </g>
     </g>
     <g id="text_20">
      <!-- 6 -->
      <g style="fill: #1a1a1a" transform="translate(494.168533 263.010875) scale(0.088 -0.088)">
       <use xlink:href="#ArialMT-36"/>
      </g>
     </g>
    </g>
    <g id="xtick_10">
     <g id="line2d_33">
      <path d="M 543.850965 248.412
L 543.850965 23.208
" clip-path="url(#p84733a1074)" style="fill: none; stroke: #e9e9e9; stroke-opacity: 0.3; stroke-width: 0.7; stroke-linecap: round"/>
     </g>
     <g id="line2d_34">
      <g>
       <use xlink:href="#me6f1b81da5" x="543.850965" y="248.412" style="fill: #1a1a1a; stroke: #1a1a1a"/>
      </g>
     </g>
     <g id="text_21">
      <!-- 8 -->
      <g style="fill: #1a1a1a" transform="translate(541.404152 263.010875) scale(0.088 -0.088)">
       <use xlink:href="#ArialMT-38"/>
      </g>
     </g>
    </g>
    <g id="xtick_11">
     <g id="line2d_35">
      <path d="M 591.086585 248.412
L 591.086585 23.208
" clip-path="url(#p84733a1074)" style="fill: none; stroke: #e9e9e9; stroke-opacity: 0.3; stroke-width: 0.7; stroke-linecap: round"/>
     </g>
     <g id="line2d_36">
      <g>
       <use xlink:href="#me6f1b81da5" x="591.086585" y="248.412" style="fill: #1a1a1a; stroke: #1a1a1a"/>
      </g>
     </g>
     <g id="text_22">
      <!-- 10 -->
      <g style="fill: #1a1a1a" transform="translate(586.19296 263.010875) scale(0.088 -0.088)">
       <use xlink:href="#ArialMT-31"/>
       <use xlink:href="#ArialMT-30" transform="translate(55.615234 0)"/>
      </g>
     </g>
    </g>
    <g id="xtick_12">
     <g id="line2d_37">
      <path d="M 638.322205 248.412
L 638.322205 23.208
" clip-path="url(#p84733a1074)" style="fill: none; stroke: #e9e9e9; stroke-opacity: 0.3; stroke-width: 0.7; stroke-linecap: round"/>
     </g>
     <g id="line2d_38">
      <g>
       <use xlink:href="#me6f1b81da5" x="638.322205" y="248.412" style="fill: #1a1a1a; stroke: #1a1a1a"/>
      </g>
     </g>
     <g id="text_23">
      <!-- 12 -->
      <g style="fill: #1a1a1a" transform="translate(633.42858 263.010875) scale(0.088 -0.088)">
       <use xlink:href="#ArialMT-31"/>
       <use xlink:href="#ArialMT-32" transform="translate(55.615234 0)"/>
      </g>
     </g>
    </g>
    <g id="text_24">
     <!-- threads -->
     <g style="fill: #1a1a1a" transform="translate(491.0865 275.631375) scale(0.096 -0.096)">
      <use xlink:href="#Arial-BoldMT-74"/>
      <use xlink:href="#Arial-BoldMT-68" transform="translate(33.300781 0)"/>
      <use xlink:href="#Arial-BoldMT-72" transform="translate(94.384766 0)"/>
      <use xlink:href="#Arial-BoldMT-65" transform="translate(133.300781 0)"/>
      <use xlink:href="#Arial-BoldMT-61" transform="translate(188.916016 0)"/>
      <use xlink:href="#Arial-BoldMT-64" transform="translate(244.53125 0)"/>
      <use xlink:href="#Arial-BoldMT-73" transform="translate(305.615234 0)"/>
     </g>
    </g>
   </g>
   <g id="matplotlib.axis_4">
    <g id="ytick_6">
     <g id="line2d_39">
      <path d="M 365.5365 207.766764
L 651.312 207.766764
" clip-path="url(#p84733a1074)" style="fill: none; stroke: #e9e9e9; stroke-opacity: 0.3; stroke-width: 0.7; stroke-linecap: round"/>
     </g>
     <g id="line2d_40">
      <g>
       <use xlink:href="#m3c7f76c86a" x="365.5365" y="207.766764" style="fill: #1a1a1a; stroke: #1a1a1a"/>
      </g>
     </g>
     <g id="text_25">
      <!-- 2 -->
      <g style="fill: #1a1a1a" transform="translate(352.342875 210.916202) scale(0.088 -0.088)">
       <use xlink:href="#ArialMT-32"/>
      </g>
     </g>
    </g>
    <g id="ytick_7">
     <g id="line2d_41">
      <path d="M 365.5365 158.746173
L 651.312 158.746173
" clip-path="url(#p84733a1074)" style="fill: none; stroke: #e9e9e9; stroke-opacity: 0.3; stroke-width: 0.7; stroke-linecap: round"/>
     </g>
     <g id="line2d_42">
      <g>
       <use xlink:href="#m3c7f76c86a" x="365.5365" y="158.746173" style="fill: #1a1a1a; stroke: #1a1a1a"/>
      </g>
     </g>
     <g id="text_26">
      <!-- 4 -->
      <g style="fill: #1a1a1a" transform="translate(352.342875 161.895611) scale(0.088 -0.088)">
       <use xlink:href="#ArialMT-34"/>
      </g>
     </g>
    </g>
    <g id="ytick_8">
     <g id="line2d_43">
      <path d="M 365.5365 109.725582
L 651.312 109.725582
" clip-path="url(#p84733a1074)" style="fill: none; stroke: #e9e9e9; stroke-opacity: 0.3; stroke-width: 0.7; stroke-linecap: round"/>
     </g>
     <g id="line2d_44">
      <g>
       <use xlink:href="#m3c7f76c86a" x="365.5365" y="109.725582" style="fill: #1a1a1a; stroke: #1a1a1a"/>
      </g>
     </g>
     <g id="text_27">
      <!-- 6 -->
      <g style="fill: #1a1a1a" transform="translate(352.342875 112.87502) scale(0.088 -0.088)">
       <use xlink:href="#ArialMT-36"/>
      </g>
     </g>
    </g>
    <g id="ytick_9">
     <g id="line2d_45">
      <path d="M 365.5365 60.704991
L 651.312 60.704991
" clip-path="url(#p84733a1074)" style="fill: none; stroke: #e9e9e9; stroke-opacity: 0.3; stroke-width: 0.7; stroke-linecap: round"/>
     </g>
     <g id="line2d_46">
      <g>
       <use xlink:href="#m3c7f76c86a" x="365.5365" y="60.704991" style="fill: #1a1a1a; stroke: #1a1a1a"/>
      </g>
     </g>
     <g id="text_28">
      <!-- 8 -->
      <g style="fill: #1a1a1a" transform="translate(352.342875 63.854429) scale(0.088 -0.088)">
       <use xlink:href="#ArialMT-38"/>
      </g>
     </g>
    </g>
    <g id="text_29">
     <!-- atoms/s — higher is better -->
     <g style="fill: #1a1a1a" transform="translate(346.322375 196.0875) rotate(-90) scale(0.096 -0.096)">
      <use xlink:href="#Arial-BoldMT-61"/>
      <use xlink:href="#Arial-BoldMT-74" transform="translate(55.615234 0)"/>
      <use xlink:href="#Arial-BoldMT-6f" transform="translate(88.916016 0)"/>
      <use xlink:href="#Arial-BoldMT-6d" transform="translate(150 0)"/>
      <use xlink:href="#Arial-BoldMT-73" transform="translate(238.916016 0)"/>
      <use xlink:href="#Arial-BoldMT-2f" transform="translate(294.53125 0)"/>
      <use xlink:href="#Arial-BoldMT-73" transform="translate(322.314453 0)"/>
      <use xlink:href="#Arial-BoldMT-20" transform="translate(377.929688 0)"/>
      <use xlink:href="#Arial-BoldMT-2014" transform="translate(405.712891 0)"/>
      <use xlink:href="#Arial-BoldMT-20" transform="translate(505.712891 0)"/>
      <use xlink:href="#Arial-BoldMT-68" transform="translate(533.496094 0)"/>
      <use xlink:href="#Arial-BoldMT-69" transform="translate(594.580078 0)"/>
      <use xlink:href="#Arial-BoldMT-67" transform="translate(622.363281 0)"/>
      <use xlink:href="#Arial-BoldMT-68" transform="translate(683.447266 0)"/>
      <use xlink:href="#Arial-BoldMT-65" transform="translate(744.53125 0)"/>
      <use xlink:href="#Arial-BoldMT-72" transform="translate(800.146484 0)"/>
      <use xlink:href="#Arial-BoldMT-20" transform="translate(839.0625 0)"/>
      <use xlink:href="#Arial-BoldMT-69" transform="translate(866.845703 0)"/>
      <use xlink:href="#Arial-BoldMT-73" transform="translate(894.628906 0)"/>
      <use xlink:href="#Arial-BoldMT-20" transform="translate(950.244141 0)"/>
      <use xlink:href="#Arial-BoldMT-62" transform="translate(978.027344 0)"/>
      <use xlink:href="#Arial-BoldMT-65" transform="translate(1039.111328 0)"/>
      <use xlink:href="#Arial-BoldMT-74" transform="translate(1094.726562 0)"/>
      <use xlink:href="#Arial-BoldMT-74" transform="translate(1128.027344 0)"/>
      <use xlink:href="#Arial-BoldMT-65" transform="translate(1161.328125 0)"/>
      <use xlink:href="#Arial-BoldMT-72" transform="translate(1216.943359 0)"/>
     </g>
    </g>
    <g id="text_30">
     <!-- 1e7 -->
     <g style="fill: #1a1a1a" transform="translate(365.5365 20.208) scale(0.088 -0.088)">
      <use xlink:href="#ArialMT-31"/>
      <use xlink:href="#ArialMT-65" transform="translate(55.615234 0)"/>
      <use xlink:href="#ArialMT-37" transform="translate(111.230469 0)"/>
     </g>
    </g>
   </g>
   <g id="line2d_47">
    <path d="M 378.526295 238.175455
L 402.144105 232.39979
L 425.761915 228.242344
L 449.379725 225.855358
L 496.615345 222.291781
L 543.850965 220.835759
L 638.322205 219.560509
" clip-path="url(#p84733a1074)" style="fill: none; stroke: #d95f02; stroke-width: 1.2; stroke-linecap: round"/>
    <g clip-path="url(#p84733a1074)">
     <use xlink:href="#m04f4097d9e" x="378.526295" y="238.175455" style="fill: #d95f02; stroke: #d95f02; stroke-linejoin: miter"/>
     <use xlink:href="#m04f4097d9e" x="402.144105" y="232.39979" style="fill: #d95f02; stroke: #d95f02; stroke-linejoin: miter"/>
     <use xlink:href="#m04f4097d9e" x="425.761915" y="228.242344" style="fill: #d95f02; stroke: #d95f02; stroke-linejoin: miter"/>
     <use xlink:href="#m04f4097d9e" x="449.379725" y="225.855358" style="fill: #d95f02; stroke: #d95f02; stroke-linejoin: miter"/>
     <use xlink:href="#m04f4097d9e" x="496.615345" y="222.291781" style="fill: #d95f02; stroke: #d95f02; stroke-linejoin: miter"/>
     <use xlink:href="#m04f4097d9e" x="543.850965" y="220.835759" style="fill: #d95f02; stroke: #d95f02; stroke-linejoin: miter"/>
     <use xlink:href="#m04f4097d9e" x="638.322205" y="219.560509" style="fill: #d95f02; stroke: #d95f02; stroke-linejoin: miter"/>
    </g>
   </g>
   <g id="line2d_48">
    <path d="M 378.526295 238.175455
L 402.144105 219.563554
L 425.761915 200.951653
L 449.379725 182.339752
L 496.615345 145.11595
L 543.850965 107.892149
L 638.322205 33.444545
" clip-path="url(#p84733a1074)" style="fill: none; stroke-dasharray: 2.96,1.28; stroke-dashoffset: 0; stroke: #808080; stroke-width: 0.8"/>
   </g>
   <g id="patch_9">
    <path d="M 365.5365 248.412
L 365.5365 23.208
" style="fill: none; stroke: #262626; stroke-width: 1.2; stroke-linejoin: miter; stroke-linecap: square"/>
   </g>
   <g id="patch_10">
    <path d="M 651.312 248.412
L 651.312 23.208
" style="fill: none; stroke: #262626; stroke-width: 1.2; stroke-linejoin: miter; stroke-linecap: square"/>
   </g>
   <g id="patch_11">
    <path d="M 365.5365 248.412
L 651.312 248.412
" style="fill: none; stroke: #262626; stroke-width: 1.2; stroke-linejoin: miter; stroke-linecap: square"/>
   </g>
   <g id="patch_12">
    <path d="M 365.5365 23.208
L 651.312 23.208
" style="fill: none; stroke: #262626; stroke-width: 1.2; stroke-linejoin: miter; stroke-linecap: square"/>
   </g>
   <g id="text_31">
    <!-- system (few large frames) -->
    <g style="fill: #1a1a1a" transform="translate(449.46825 17.208) scale(0.096 -0.096)">
     <defs>
      <path id="Arial-BoldMT-77" d="M 1078 0
L 28 3319
L 881 3319
L 1503 1144
L 2075 3319
L 2922 3319
L 3475 1144
L 4109 3319
L 4975 3319
L 3909 0
L 3066 0
L 2494 2134
L 1931 0
L 1078 0
z
" transform="scale(0.015625)"/>
     </defs>
     <use xlink:href="#Arial-BoldMT-73"/>
     <use xlink:href="#Arial-BoldMT-79" transform="translate(55.615234 0)"/>
     <use xlink:href="#Arial-BoldMT-73" transform="translate(111.230469 0)"/>
     <use xlink:href="#Arial-BoldMT-74" transform="translate(166.845703 0)"/>
     <use xlink:href="#Arial-BoldMT-65" transform="translate(200.146484 0)"/>
     <use xlink:href="#Arial-BoldMT-6d" transform="translate(255.761719 0)"/>
     <use xlink:href="#Arial-BoldMT-20" transform="translate(344.677734 0)"/>
     <use xlink:href="#Arial-BoldMT-28" transform="translate(372.460938 0)"/>
     <use xlink:href="#Arial-BoldMT-66" transform="translate(405.761719 0)"/>
     <use xlink:href="#Arial-BoldMT-65" transform="translate(439.0625 0)"/>
     <use xlink:href="#Arial-BoldMT-77" transform="translate(494.677734 0)"/>
     <use xlink:href="#Arial-BoldMT-20" transform="translate(572.460938 0)"/>
     <use xlink:href="#Arial-BoldMT-6c" transform="translate(600.244141 0)"/>
     <use xlink:href="#Arial-BoldMT-61" transform="translate(628.027344 0)"/>
     <use xlink:href="#Arial-BoldMT-72" transform="translate(683.642578 0)"/>
     <use xlink:href="#Arial-BoldMT-67" transform="translate(722.558594 0)"/>
     <use xlink:href="#Arial-BoldMT-65" transform="translate(783.642578 0)"/>
     <use xlink:href="#Arial-BoldMT-20" transform="translate(839.257812 0)"/>
     <use xlink:href="#Arial-BoldMT-66" transform="translate(867.041016 0)"/>
     <use xlink:href="#Arial-BoldMT-72" transform="translate(900.341797 0)"/>
     <use xlink:href="#Arial-BoldMT-61" transform="translate(939.257812 0)"/>
     <use xlink:href="#Arial-BoldMT-6d" transform="translate(994.873047 0)"/>
     <use xlink:href="#Arial-BoldMT-65" transform="translate(1083.789062 0)"/>
     <use xlink:href="#Arial-BoldMT-73" transform="translate(1139.404297 0)"/>
     <use xlink:href="#Arial-BoldMT-29" transform="translate(1195.019531 0)"/>
    </g>
   </g>
   <g id="legend_2">
    <g id="patch_13">
     <path d="M 371.1365 52.33425
L 431.41775 52.33425
Q 433.01775 52.33425 433.01775 50.73425
L 433.01775 28.808
Q 433.01775 27.208 431.41775 27.208
L 371.1365 27.208
Q 369.5365 27.208 369.5365 28.808
L 369.5365 50.73425
Q 369.5365 52.33425 371.1365 52.33425
z
" style="fill: #ffffff; opacity: 0.8; stroke: #cccccc; stroke-width: 0.8; stroke-linejoin: miter"/>
    </g>
    <g id="line2d_49">
     <path d="M 372.7365 33.33425
L 380.7365 33.33425
L 388.7365 33.33425
" style="fill: none; stroke: #d95f02; stroke-width: 1.2; stroke-linecap: round"/>
     <g>
      <use xlink:href="#m04f4097d9e" x="380.7365" y="33.33425" style="fill: #d95f02; stroke: #d95f02; stroke-linejoin: miter"/>
     </g>
    </g>
    <g id="text_32">
     <!-- oxyz.read -->
     <g style="fill: #1a1a1a" transform="translate(395.1365 36.13425) scale(0.08 -0.08)">
      <use xlink:href="#ArialMT-6f"/>
      <use xlink:href="#ArialMT-78" transform="translate(55.615234 0)"/>
      <use xlink:href="#ArialMT-79" transform="translate(105.615234 0)"/>
      <use xlink:href="#ArialMT-7a" transform="translate(155.615234 0)"/>
      <use xlink:href="#ArialMT-2e" transform="translate(205.615234 0)"/>
      <use xlink:href="#ArialMT-72" transform="translate(233.398438 0)"/>
      <use xlink:href="#ArialMT-65" transform="translate(266.699219 0)"/>
      <use xlink:href="#ArialMT-61" transform="translate(322.314453 0)"/>
      <use xlink:href="#ArialMT-64" transform="translate(377.929688 0)"/>
     </g>
    </g>
    <g id="line2d_50">
     <path d="M 372.7365 44.74425
L 380.7365 44.74425
L 388.7365 44.74425
" style="fill: none; stroke-dasharray: 2.96,1.28; stroke-dashoffset: 0; stroke: #808080; stroke-width: 0.8"/>
    </g>
    <g id="text_33">
     <!-- linear -->
     <g style="fill: #1a1a1a" transform="translate(395.1365 47.54425) scale(0.08 -0.08)">
      <use xlink:href="#ArialMT-6c"/>
      <use xlink:href="#ArialMT-69" transform="translate(22.216797 0)"/>
      <use xlink:href="#ArialMT-6e" transform="translate(44.433594 0)"/>
      <use xlink:href="#ArialMT-65" transform="translate(100.048828 0)"/>
      <use xlink:href="#ArialMT-61" transform="translate(155.664062 0)"/>
      <use xlink:href="#ArialMT-72" transform="translate(211.279297 0)"/>
     </g>
    </g>
   </g>
  </g>
 </g>
 <defs>
  <clipPath id="pd02acc84f5">
   <rect x="43.548" y="23.208" width="285.7755" height="225.204"/>
  </clipPath>
  <clipPath id="p84733a1074">
   <rect x="365.5365" y="23.208" width="285.7755" height="225.204"/>
  </clipPath>
 </defs>
</svg>
