<?xml version="1.0" encoding="utf-8" standalone="no"?>
<!DOCTYPE svg PUBLIC "-//W3C//DTD SVG 1.1//EN"
  "http://www.w3.org/Graphics/SVG/1.1/DTD/svg11.dtd">
<svg xmlns:xlink="http://www.w3.org/1999/xlink" width="324pt" height="223.2pt" viewBox="0 0 324 223.2" xmlns="http://www.w3.org/2000/svg" version="1.1">
 <metadata>
  <rdf:RDF xmlns:dc="http://purl.org/dc/elements/1.1/" xmlns:cc="http://creativecommons.org/ns#" xmlns:rdf="http://www.w3.org/1999/02/22-rdf-syntax-ns#">
   <cc:Work>
    <dc:type rdf:resource="http://purl.org/dc/dcmitype/StillImage"/>
    <dc:date>2026-07-17T12:08:39.438020</dc:date>
    <dc:format>image/svg+xml</dc:format>
    <dc:creator>
     <cc:Agent>
      <dc:title>Matplotlib v3.10.9, https://matplotlib.org/</dc:title>
     </cc:Agent>
    </dc:creator>
   </cc:Work>
  </rdf:RDF>
 </metadata>
 <defs>
  <style type="text/css">*{stroke-linejoin: round; stroke-linecap: butt}</style>
 </defs>
 <g id="figure_1">
  <g id="patch_1">
   <path d="M 0 223.2
L 324 223.2
L 324 0
L 0 0
z
" style="fill: #ffffff"/>
  </g>
  <g id="axes_1">
   <g id="patch_2">
    <path d="M 43.611948 158.869327
L 313.632 158.869327
L 313.632 23.6355
L 43.611948 23.6355
z
" style="fill: #ffffff"/>
   </g>
   <g id="matplotlib.axis_1">
    <g id="xtick_1">
     <g id="line2d_1">
      <defs>
       <path id="mca74210f8d" d="M 0 0
L 0 4.8
" style="stroke: #1a1a1a"/>
      </defs>
      <g>
       <use xlink:href="#mca74210f8d" x="99.437208" y="158.869327" style="fill: #1a1a1a; stroke: #1a1a1a"/>
      </g>
     </g>
     <g id="text_1">
      <!-- large_frames -->
      <g style="fill: #1a1a1a" transform="translate(54.626482 189.676602) rotate(-20) scale(0.08 -0.08)">
       <defs>
        <path id="Arial-BoldMT-6c" d="M 459 0
L 459 4581
L 1338 4581
L 1338 0
L 459 0
z
" transform="scale(0.015625)"/>
        <path id="Arial-BoldMT-61" d="M 1116 2306
L 319 2450
Q 453 2931 781 3162
Q 1109 3394 1756 3394
Q 2344 3394 2631 3255
Q 2919 3116 3036 2902
Q 3153 2688 3153 2116
L 3144 1091
Q 3144 653 3186 445
Q 3228 238 3344 0
L 2475 0
Q 2441 88 2391 259
Q 2369 338 2359 363
Q 2134 144 1878 34
Q 1622 -75 1331 -75
Q 819 -75 523 203
Q 228 481 228 906
Q 228 1188 362 1408
Q 497 1628 739 1745
Q 981 1863 1438 1950
Q 2053 2066 2291 2166
L 2291 2253
Q 2291 2506 2166 2614
Q 2041 2722 1694 2722
Q 1459 2722 1328 2630
Q 1197 2538 1116 2306
z
M 2291 1594
Q 2122 1538 1756 1459
Q 1391 1381 1278 1306
Q 1106 1184 1106 997
Q 1106 813 1243 678
Q 1381 544 1594 544
Q 1831 544 2047 700
Q 2206 819 2256 991
Q 2291 1103 2291 1419
L 2291 1594
z
" transform="scale(0.015625)"/>
        <path id="Arial-BoldMT-72" d="M 1300 0
L 422 0
L 422 3319
L 1238 3319
L 1238 2847
Q 1447 3181 1614 3287
Q 1781 3394 1994 3394
Q 2294 3394 2572 3228
L 2300 2463
Q 2078 2606 1888 2606
Q 1703 2606 1575 2504
Q 1447 2403 1373 2137
Q 1300 1872 1300 1025
L 1300 0
z
" transform="scale(0.015625)"/>
        <path id="Arial-BoldMT-67" d="M 378 -219
L 1381 -341
Q 1406 -516 1497 -581
Q 1622 -675 1891 -675
Q 2234 -675 2406 -572
Q 2522 -503 2581 -350
Q 2622 -241 2622 53
L 2622 538
Q 2228 0 1628 0
Q 959 0 569 566
Q 263 1013 263 1678
Q 263 2513 664 2953
Q 1066 3394 1663 3394
Q 2278 3394 2678 2853
L 2678 3319
L 3500 3319
L 3500 341
Q 3500 -247 3403 -537
Q 3306 -828 3131 -993
Q 2956 -1159 2664 -1253
Q 2372 -1347 1925 -1347
Q 1081 -1347 728 -1058
Q 375 -769 375 -325
Q 375 -281 378 -219
z
M 1163 1728
Q 1163 1200 1367 954
Q 1572 709 1872 709
Q 2194 709 2416 961
Q 2638 1213 2638 1706
Q 2638 2222 2425 2472
Q 2213 2722 1888 2722
Q 1572 2722 1367 2476
Q 1163 2231 1163 1728
z
" transform="scale(0.015625)"/>
        <path id="Arial-BoldMT-65" d="M 2381 1056
L 3256 909
Q 3088 428 2723 176
Q 2359 -75 1813 -75
Q 947 -75 531 491
Q 203 944 203 1634
Q 203 2459 634 2926
Q 1066 3394 1725 3394
Q 2466 3394 2894 2905
Q 3322 2416 3303 1406
L 1103 1406
Q 1113 1016 1316 798
Q 1519 581 1822 581
Q 2028 581 2168 693
Q 2309 806 2381 1056
z
M 2431 1944
Q 2422 2325 2234 2523
Q 2047 2722 1778 2722
Q 1491 2722 1303 2513
Q 1116 2303 1119 1944
L 2431 1944
z
" transform="scale(0.015625)"/>
        <path id="Arial-BoldMT-5f" d="M -59 -1266
L -59 -697
L 3591 -697
L 3591 -1266
L -59 -1266
z
" transform="scale(0.015625)"/>
        <path id="Arial-BoldMT-66" d="M 75 3319
L 563 3319
L 563 3569
Q 563 3988 652 4194
Q 741 4400 980 4529
Q 1219 4659 1584 4659
Q 1959 4659 2319 4547
L 2200 3934
Q 1991 3984 1797 3984
Q 1606 3984 1523 3895
Q 1441 3806 1441 3553
L 1441 3319
L 2097 3319
L 2097 2628
L 1441 2628
L 1441 0
L 563 0
L 563 2628
L 75 2628
L 75 3319
z
" transform="scale(0.015625)"/>
        <path id="Arial-BoldMT-6d" d="M 394 3319
L 1203 3319
L 1203 2866
Q 1638 3394 2238 3394
Q 2556 3394 2790 3262
Q 3025 3131 3175 2866
Q 3394 3131 3647 3262
Q 3900 3394 4188 3394
Q 4553 3394 4806 3245
Q 5059 3097 5184 2809
Q 5275 2597 5275 2122
L 5275 0
L 4397 0
L 4397 1897
Q 4397 2391 4306 2534
Q 4184 2722 3931 2722
Q 3747 2722 3584 2609
Q 3422 2497 3350 2280
Q 3278 2063 3278 1594
L 3278 0
L 2400 0
L 2400 1819
Q 2400 2303 2353 2443
Q 2306 2584 2207 2653
Q 2109 2722 1941 2722
Q 1738 2722 1575 2612
Q 1413 2503 1342 2297
Q 1272 2091 1272 1613
L 1272 0
L 394 0
L 394 3319
z
" transform="scale(0.015625)"/>
        <path id="Arial-BoldMT-73" d="M 150 947
L 1031 1081
Q 1088 825 1259 692
Q 1431 559 1741 559
Q 2081 559 2253 684
Q 2369 772 2369 919
Q 2369 1019 2306 1084
Q 2241 1147 2013 1200
Q 950 1434 666 1628
Q 272 1897 272 2375
Q 272 2806 612 3100
Q 953 3394 1669 3394
Q 2350 3394 2681 3172
Q 3013 2950 3138 2516
L 2309 2363
Q 2256 2556 2107 2659
Q 1959 2763 1684 2763
Q 1338 2763 1188 2666
Q 1088 2597 1088 2488
Q 1088 2394 1175 2328
Q 1294 2241 1995 2081
Q 2697 1922 2975 1691
Q 3250 1456 3250 1038
Q 3250 581 2869 253
Q 2488 -75 1741 -75
Q 1063 -75 667 200
Q 272 475 150 947
z
" transform="scale(0.015625)"/>
       </defs>
       <use xlink:href="#Arial-BoldMT-6c"/>
       <use xlink:href="#Arial-BoldMT-61" transform="translate(27.783203 0)"/>
       <use xlink:href="#Arial-BoldMT-72" transform="translate(83.398438 0)"/>
       <use xlink:href="#Arial-BoldMT-67" transform="translate(122.314453 0)"/>
       <use xlink:href="#Arial-BoldMT-65" transform="translate(183.398438 0)"/>
       <use xlink:href="#Arial-BoldMT-5f" transform="translate(239.013672 0)"/>
       <use xlink:href="#Arial-BoldMT-66" transform="translate(294.628906 0)"/>
       <use xlink:href="#Arial-BoldMT-72" transform="translate(327.929688 0)"/>
       <use xlink:href="#Arial-BoldMT-61" transform="translate(366.845703 0)"/>
       <use xlink:href="#Arial-BoldMT-6d" transform="translate(422.460938 0)"/>
       <use xlink:href="#Arial-BoldMT-65" transform="translate(511.376953 0)"/>
       <use xlink:href="#Arial-BoldMT-73" transform="translate(566.992188 0)"/>
      </g>
     </g>
    </g>
    <g id="xtick_2">
     <g id="line2d_2">
      <g>
       <use xlink:href="#mca74210f8d" x="257.80674" y="158.869327" style="fill: #1a1a1a; stroke: #1a1a1a"/>
      </g>
     </g>
     <g id="text_2">
      <!-- many_small_frames -->
      <g style="fill: #1a1a1a" transform="translate(187.922666 198.802555) rotate(-20) scale(0.08 -0.08)">
       <defs>
        <path id="Arial-BoldMT-6e" d="M 3478 0
L 2600 0
L 2600 1694
Q 2600 2231 2544 2389
Q 2488 2547 2361 2634
Q 2234 2722 2056 2722
Q 1828 2722 1647 2597
Q 1466 2472 1398 2265
Q 1331 2059 1331 1503
L 1331 0
L 453 0
L 453 3319
L 1269 3319
L 1269 2831
Q 1703 3394 2363 3394
Q 2653 3394 2893 3289
Q 3134 3184 3257 3021
Q 3381 2859 3429 2653
Q 3478 2447 3478 2063
L 3478 0
z
" transform="scale(0.015625)"/>
        <path id="Arial-BoldMT-79" d="M 44 3319
L 978 3319
L 1772 963
L 2547 3319
L 3456 3319
L 2284 125
L 2075 -453
Q 1959 -744 1854 -897
Q 1750 -1050 1614 -1145
Q 1478 -1241 1279 -1294
Q 1081 -1347 831 -1347
Q 578 -1347 334 -1294
L 256 -606
Q 463 -647 628 -647
Q 934 -647 1081 -467
Q 1228 -288 1306 -9
L 44 3319
z
" transform="scale(0.015625)"/>
       </defs>
       <use xlink:href="#Arial-BoldMT-6d"/>
       <use xlink:href="#Arial-BoldMT-61" transform="translate(88.916016 0)"/>
       <use xlink:href="#Arial-BoldMT-6e" transform="translate(144.53125 0)"/>
       <use xlink:href="#Arial-BoldMT-79" transform="translate(205.615234 0)"/>
       <use xlink:href="#Arial-BoldMT-5f" transform="translate(261.230469 0)"/>
       <use xlink:href="#Arial-BoldMT-73" transform="translate(316.845703 0)"/>
       <use xlink:href="#Arial-BoldMT-6d" transform="translate(372.460938 0)"/>
       <use xlink:href="#Arial-BoldMT-61" transform="translate(461.376953 0)"/>
       <use xlink:href="#Arial-BoldMT-6c" transform="translate(516.992188 0)"/>
       <use xlink:href="#Arial-BoldMT-6c" transform="translate(544.775391 0)"/>
       <use xlink:href="#Arial-BoldMT-5f" transform="translate(572.558594 0)"/>
       <use xlink:href="#Arial-BoldMT-66" transform="translate(628.173828 0)"/>
       <use xlink:href="#Arial-BoldMT-72" transform="translate(661.474609 0)"/>
       <use xlink:href="#Arial-BoldMT-61" transform="translate(700.390625 0)"/>
       <use xlink:href="#Arial-BoldMT-6d" transform="translate(756.005859 0)"/>
       <use xlink:href="#Arial-BoldMT-65" transform="translate(844.921875 0)"/>
       <use xlink:href="#Arial-BoldMT-73" transform="translate(900.537109 0)"/>
      </g>
     </g>
    </g>
    <g id="text_3">
     <!-- workload -->
     <g style="fill: #1a1a1a" transform="translate(157.552974 211.256262) scale(0.096 -0.096)">
      <defs>
       <path id="Arial-BoldMT-77" d="M 1078 0
L 28 3319
L 881 3319
L 1503 1144
L 2075 3319
L 2922 3319
L 3475 1144
L 4109 3319
L 4975 3319
L 3909 0
L 3066 0
L 2494 2134
L 1931 0
L 1078 0
z
" transform="scale(0.015625)"/>
       <path id="Arial-BoldMT-6f" d="M 256 1706
Q 256 2144 472 2553
Q 688 2963 1083 3178
Q 1478 3394 1966 3394
Q 2719 3394 3200 2905
Q 3681 2416 3681 1669
Q 3681 916 3195 420
Q 2709 -75 1972 -75
Q 1516 -75 1102 131
Q 688 338 472 736
Q 256 1134 256 1706
z
M 1156 1659
Q 1156 1166 1390 903
Q 1625 641 1969 641
Q 2313 641 2545 903
Q 2778 1166 2778 1666
Q 2778 2153 2545 2415
Q 2313 2678 1969 2678
Q 1625 2678 1390 2415
Q 1156 2153 1156 1659
z
" transform="scale(0.015625)"/>
       <path id="Arial-BoldMT-6b" d="M 428 0
L 428 4581
L 1306 4581
L 1306 2150
L 2334 3319
L 3416 3319
L 2281 2106
L 3497 0
L 2550 0
L 1716 1491
L 1306 1063
L 1306 0
L 428 0
z
" transform="scale(0.015625)"/>
       <path id="Arial-BoldMT-64" d="M 3503 0
L 2688 0
L 2688 488
Q 2484 203 2207 64
Q 1931 -75 1650 -75
Q 1078 -75 670 386
Q 263 847 263 1672
Q 263 2516 659 2955
Q 1056 3394 1663 3394
Q 2219 3394 2625 2931
L 2625 4581
L 3503 4581
L 3503 0
z
M 1159 1731
Q 1159 1200 1306 963
Q 1519 619 1900 619
Q 2203 619 2415 876
Q 2628 1134 2628 1647
Q 2628 2219 2422 2470
Q 2216 2722 1894 2722
Q 1581 2722 1370 2473
Q 1159 2225 1159 1731
z
" transform="scale(0.015625)"/>
      </defs>
      <use xlink:href="#Arial-BoldMT-77"/>
      <use xlink:href="#Arial-BoldMT-6f" transform="translate(77.783203 0)"/>
      <use xlink:href="#Arial-BoldMT-72" transform="translate(138.867188 0)"/>
      <use xlink:href="#Arial-BoldMT-6b" transform="translate(177.783203 0)"/>
      <use xlink:href="#Arial-BoldMT-6c" transform="translate(233.398438 0)"/>
      <use xlink:href="#Arial-BoldMT-6f" transform="translate(261.181641 0)"/>
      <use xlink:href="#Arial-BoldMT-61" transform="translate(322.265625 0)"/>
      <use xlink:href="#Arial-BoldMT-64" transform="translate(377.880859 0)"/>
     </g>
    </g>
   </g>
   <g id="matplotlib.axis_2">
    <g id="ytick_1">
     <g id="line2d_3">
      <path d="M 43.611948 116.06175
L 313.632 116.06175
" clip-path="url(#p76a2f3fa66)" style="fill: none; stroke: #e9e9e9; stroke-width: 0.7; stroke-linecap: round"/>
     </g>
     <g id="line2d_4">
      <defs>
       <path id="m9fa97ecaff" d="M 0 0
L -4.5 0
" style="stroke: #1a1a1a; stroke-width: 1.1"/>
      </defs>
      <g>
       <use xlink:href="#m9fa97ecaff" x="43.611948" y="116.06175" style="fill: #1a1a1a; stroke: #1a1a1a; stroke-width: 1.1"/>
      </g>
     </g>
     <g id="text_4">
      <!-- $\mathdefault{10^{0}}$ -->
      <g style="fill: #1a1a1a" transform="translate(23.051948 120.18675) scale(0.08 -0.08)">
       <defs>
        <path id="ArialMT-31" d="M 2384 0
L 1822 0
L 1822 3584
Q 1619 3391 1289 3197
Q 959 3003 697 2906
L 697 3450
Q 1169 3672 1522 3987
Q 1875 4303 2022 4600
L 2384 4600
L 2384 0
z
" transform="scale(0.015625)"/>
        <path id="ArialMT-30" d="M 266 2259
Q 266 3072 433 3567
Q 600 4063 929 4331
Q 1259 4600 1759 4600
Q 2128 4600 2406 4451
Q 2684 4303 2865 4023
Q 3047 3744 3150 3342
Q 3253 2941 3253 2259
Q 3253 1453 3087 958
Q 2922 463 2592 192
Q 2263 -78 1759 -78
Q 1097 -78 719 397
Q 266 969 266 2259
z
M 844 2259
Q 844 1131 1108 757
Q 1372 384 1759 384
Q 2147 384 2411 759
Q 2675 1134 2675 2259
Q 2675 3391 2411 3762
Q 2147 4134 1753 4134
Q 1366 4134 1134 3806
Q 844 3388 844 2259
z
" transform="scale(0.015625)"/>
       </defs>
       <use xlink:href="#ArialMT-31" transform="translate(0 0.99375)"/>
       <use xlink:href="#ArialMT-30" transform="translate(55.615234 0.99375)"/>
       <use xlink:href="#ArialMT-30" transform="translate(112.972813 70.6875) scale(0.7)"/>
      </g>
     </g>
    </g>
    <g id="ytick_2">
     <g id="line2d_5">
      <path d="M 43.611948 39.85879
L 313.632 39.85879
" clip-path="url(#p76a2f3fa66)" style="fill: none; stroke: #e9e9e9; stroke-width: 0.7; stroke-linecap: round"/>
     </g>
     <g id="line2d_6">
      <g>
       <use xlink:href="#m9fa97ecaff" x="43.611948" y="39.85879" style="fill: #1a1a1a; stroke: #1a1a1a; stroke-width: 1.1"/>
      </g>
     </g>
     <g id="text_5">
      <!-- $\mathdefault{10^{1}}$ -->
      <g style="fill: #1a1a1a" transform="translate(23.051948 43.98379) scale(0.08 -0.08)">
       <use xlink:href="#ArialMT-31" transform="translate(0 0.99375)"/>
       <use xlink:href="#ArialMT-30" transform="translate(55.615234 0.99375)"/>
       <use xlink:href="#ArialMT-31" transform="translate(112.972813 70.6875) scale(0.7)"/>
      </g>
     </g>
    </g>
    <g id="ytick_3">
     <g id="line2d_7">
      <defs>
       <path id="mcdbd15dacb" d="M 0 0
L -2.5 0
" style="stroke: #1a1a1a; stroke-width: 0.8"/>
      </defs>
      <g>
       <use xlink:href="#mcdbd15dacb" x="43.611948" y="155.906658" style="fill: #1a1a1a; stroke: #1a1a1a; stroke-width: 0.8"/>
      </g>
     </g>
    </g>
    <g id="ytick_4">
     <g id="line2d_8">
      <g>
       <use xlink:href="#mcdbd15dacb" x="43.611948" y="146.385957" style="fill: #1a1a1a; stroke: #1a1a1a; stroke-width: 0.8"/>
      </g>
     </g>
    </g>
    <g id="ytick_5">
     <g id="line2d_9">
      <g>
       <use xlink:href="#mcdbd15dacb" x="43.611948" y="139.001127" style="fill: #1a1a1a; stroke: #1a1a1a; stroke-width: 0.8"/>
      </g>
     </g>
    </g>
    <g id="ytick_6">
     <g id="line2d_10">
      <g>
       <use xlink:href="#mcdbd15dacb" x="43.611948" y="132.967282" style="fill: #1a1a1a; stroke: #1a1a1a; stroke-width: 0.8"/>
      </g>
     </g>
    </g>
    <g id="ytick_7">
     <g id="line2d_11">
      <g>
       <use xlink:href="#mcdbd15dacb" x="43.611948" y="127.865738" style="fill: #1a1a1a; stroke: #1a1a1a; stroke-width: 0.8"/>
      </g>
     </g>
    </g>
    <g id="ytick_8">
     <g id="line2d_12">
      <g>
       <use xlink:href="#mcdbd15dacb" x="43.611948" y="123.44658" style="fill: #1a1a1a; stroke: #1a1a1a; stroke-width: 0.8"/>
      </g>
     </g>
    </g>
    <g id="ytick_9">
     <g id="line2d_13">
      <g>
       <use xlink:href="#mcdbd15dacb" x="43.611948" y="119.548606" style="fill: #1a1a1a; stroke: #1a1a1a; stroke-width: 0.8"/>
      </g>
     </g>
    </g>
    <g id="ytick_10">
     <g id="line2d_14">
      <g>
       <use xlink:href="#mcdbd15dacb" x="43.611948" y="93.122374" style="fill: #1a1a1a; stroke: #1a1a1a; stroke-width: 0.8"/>
      </g>
     </g>
    </g>
    <g id="ytick_11">
     <g id="line2d_15">
      <g>
       <use xlink:href="#mcdbd15dacb" x="43.611948" y="79.703698" style="fill: #1a1a1a; stroke: #1a1a1a; stroke-width: 0.8"/>
      </g>
     </g>
    </g>
    <g id="ytick_12">
     <g id="line2d_16">
      <g>
       <use xlink:href="#mcdbd15dacb" x="43.611948" y="70.182997" style="fill: #1a1a1a; stroke: #1a1a1a; stroke-width: 0.8"/>
      </g>
     </g>
    </g>
    <g id="ytick_13">
     <g id="line2d_17">
      <g>
       <use xlink:href="#mcdbd15dacb" x="43.611948" y="62.798167" style="fill: #1a1a1a; stroke: #1a1a1a; stroke-width: 0.8"/>
      </g>
     </g>
    </g>
    <g id="ytick_14">
     <g id="line2d_18">
      <g>
       <use xlink:href="#mcdbd15dacb" x="43.611948" y="56.764322" style="fill: #1a1a1a; stroke: #1a1a1a; stroke-width: 0.8"/>
      </g>
     </g>
    </g>
    <g id="ytick_15">
     <g id="line2d_19">
      <g>
       <use xlink:href="#mcdbd15dacb" x="43.611948" y="51.662778" style="fill: #1a1a1a; stroke: #1a1a1a; stroke-width: 0.8"/>
      </g>
     </g>
    </g>
    <g id="ytick_16">
     <g id="line2d_20">
      <g>
       <use xlink:href="#mcdbd15dacb" x="43.611948" y="47.24362" style="fill: #1a1a1a; stroke: #1a1a1a; stroke-width: 0.8"/>
      </g>
     </g>
    </g>
    <g id="ytick_17">
     <g id="line2d_21">
      <g>
       <use xlink:href="#mcdbd15dacb" x="43.611948" y="43.345646" style="fill: #1a1a1a; stroke: #1a1a1a; stroke-width: 0.8"/>
      </g>
     </g>
    </g>
    <g id="text_6">
     <!-- mean time (ms) — lower is better -->
     <g style="fill: #1a1a1a" transform="translate(17.031448 166.469163) rotate(-90) scale(0.096 -0.096)">
      <defs>
       <path id="Arial-BoldMT-20" transform="scale(0.015625)"/>
       <path id="Arial-BoldMT-74" d="M 1981 3319
L 1981 2619
L 1381 2619
L 1381 1281
Q 1381 875 1398 808
Q 1416 741 1477 697
Q 1538 653 1625 653
Q 1747 653 1978 738
L 2053 56
Q 1747 -75 1359 -75
Q 1122 -75 931 4
Q 741 84 652 211
Q 563 338 528 553
Q 500 706 500 1172
L 500 2619
L 97 2619
L 97 3319
L 500 3319
L 500 3978
L 1381 4491
L 1381 3319
L 1981 3319
z
" transform="scale(0.015625)"/>
       <path id="Arial-BoldMT-69" d="M 459 3769
L 459 4581
L 1338 4581
L 1338 3769
L 459 3769
z
M 459 0
L 459 3319
L 1338 3319
L 1338 0
L 459 0
z
" transform="scale(0.015625)"/>
       <path id="Arial-BoldMT-28" d="M 1916 -1347
L 1313 -1347
Q 834 -625 584 153
Q 334 931 334 1659
Q 334 2563 644 3369
Q 913 4069 1325 4659
L 1925 4659
Q 1497 3713 1336 3048
Q 1175 2384 1175 1641
Q 1175 1128 1270 590
Q 1366 53 1531 -431
Q 1641 -750 1916 -1347
z
" transform="scale(0.015625)"/>
       <path id="Arial-BoldMT-29" d="M 216 -1347
Q 475 -791 581 -494
Q 688 -197 778 190
Q 869 578 912 926
Q 956 1275 956 1641
Q 956 2384 797 3048
Q 638 3713 209 4659
L 806 4659
Q 1278 3988 1539 3234
Q 1800 2481 1800 1706
Q 1800 1053 1594 306
Q 1359 -531 822 -1347
L 216 -1347
z
" transform="scale(0.015625)"/>
       <path id="Arial-BoldMT-2014" d="M 0 1331
L 0 1988
L 6400 1988
L 6400 1331
L 0 1331
z
" transform="scale(0.015625)"/>
       <path id="Arial-BoldMT-62" d="M 422 0
L 422 4581
L 1300 4581
L 1300 2931
Q 1706 3394 2263 3394
Q 2869 3394 3266 2955
Q 3663 2516 3663 1694
Q 3663 844 3258 384
Q 2853 -75 2275 -75
Q 1991 -75 1714 67
Q 1438 209 1238 488
L 1238 0
L 422 0
z
M 1294 1731
Q 1294 1216 1456 969
Q 1684 619 2063 619
Q 2353 619 2558 867
Q 2763 1116 2763 1650
Q 2763 2219 2556 2470
Q 2350 2722 2028 2722
Q 1713 2722 1503 2476
Q 1294 2231 1294 1731
z
" transform="scale(0.015625)"/>
      </defs>
      <use xlink:href="#Arial-BoldMT-6d"/>
      <use xlink:href="#Arial-BoldMT-65" transform="translate(88.916016 0)"/>
      <use xlink:href="#Arial-BoldMT-61" transform="translate(144.53125 0)"/>
      <use xlink:href="#Arial-BoldMT-6e" transform="translate(200.146484 0)"/>
      <use xlink:href="#Arial-BoldMT-20" transform="translate(261.230469 0)"/>
      <use xlink:href="#Arial-BoldMT-74" transform="translate(289.013672 0)"/>
      <use xlink:href="#Arial-BoldMT-69" transform="translate(322.314453 0)"/>
      <use xlink:href="#Arial-BoldMT-6d" transform="translate(350.097656 0)"/>
      <use xlink:href="#Arial-BoldMT-65" transform="translate(439.013672 0)"/>
      <use xlink:href="#Arial-BoldMT-20" transform="translate(494.628906 0)"/>
      <use xlink:href="#Arial-BoldMT-28" transform="translate(522.412109 0)"/>
      <use xlink:href="#Arial-BoldMT-6d" transform="translate(555.712891 0)"/>
      <use xlink:href="#Arial-BoldMT-73" transform="translate(644.628906 0)"/>
      <use xlink:href="#Arial-BoldMT-29" transform="translate(700.244141 0)"/>
      <use xlink:href="#Arial-BoldMT-20" transform="translate(733.544922 0)"/>
      <use xlink:href="#Arial-BoldMT-2014" transform="translate(761.328125 0)"/>
      <use xlink:href="#Arial-BoldMT-20" transform="translate(861.328125 0)"/>
      <use xlink:href="#Arial-BoldMT-6c" transform="translate(889.111328 0)"/>
      <use xlink:href="#Arial-BoldMT-6f" transform="translate(916.894531 0)"/>
      <use xlink:href="#Arial-BoldMT-77" transform="translate(977.978516 0)"/>
      <use xlink:href="#Arial-BoldMT-65" transform="translate(1055.761719 0)"/>
      <use xlink:href="#Arial-BoldMT-72" transform="translate(1111.376953 0)"/>
      <use xlink:href="#Arial-BoldMT-20" transform="translate(1150.292969 0)"/>
      <use xlink:href="#Arial-BoldMT-69" transform="translate(1178.076172 0)"/>
      <use xlink:href="#Arial-BoldMT-73" transform="translate(1205.859375 0)"/>
      <use xlink:href="#Arial-BoldMT-20" transform="translate(1261.474609 0)"/>
      <use xlink:href="#Arial-BoldMT-62" transform="translate(1289.257812 0)"/>
      <use xlink:href="#Arial-BoldMT-65" transform="translate(1350.341797 0)"/>
      <use xlink:href="#Arial-BoldMT-74" transform="translate(1405.957031 0)"/>
      <use xlink:href="#Arial-BoldMT-74" transform="translate(1439.257812 0)"/>
      <use xlink:href="#Arial-BoldMT-65" transform="translate(1472.558594 0)"/>
      <use xlink:href="#Arial-BoldMT-72" transform="translate(1528.173828 0)"/>
     </g>
    </g>
   </g>
   <g id="patch_3">
    <path d="M 55.885587 76319.021826
L 142.988829 76319.021826
L 142.988829 59.993552
L 55.885587 59.993552
z
" clip-path="url(#p76a2f3fa66)" style="fill: #f0a867; stroke: #262626; stroke-width: 0.8; stroke-linejoin: miter"/>
   </g>
   <g id="patch_4">
    <path d="M 214.255119 76319.021826
L 301.358361 76319.021826
L 301.358361 112.990573
L 214.255119 112.990573
z
" clip-path="url(#p76a2f3fa66)" style="fill: #f0a867; stroke: #262626; stroke-width: 0.8; stroke-linejoin: miter"/>
   </g>
   <g id="patch_5">
    <path d="M 43.611948 158.869327
L 43.611948 23.6355
" style="fill: none; stroke: #262626; stroke-width: 1.2; stroke-linejoin: miter; stroke-linecap: square"/>
   </g>
   <g id="patch_6">
    <path d="M 313.632 158.869327
L 313.632 23.6355
" style="fill: none; stroke: #262626; stroke-width: 1.2; stroke-linejoin: miter; stroke-linecap: square"/>
   </g>
   <g id="patch_7">
    <path d="M 43.611948 158.869327
L 313.632 158.869327
" style="fill: none; stroke: #262626; stroke-width: 1.2; stroke-linejoin: miter; stroke-linecap: square"/>
   </g>
   <g id="patch_8">
    <path d="M 43.611948 23.6355
L 313.632 23.6355
" style="fill: none; stroke: #262626; stroke-width: 1.2; stroke-linejoin: miter; stroke-linecap: square"/>
   </g>
   <g id="text_7">
    <!-- 5.44 -->
    <g style="fill: #1a1a1a" transform="translate(92.139356 56.513474) scale(0.075 -0.075)">
     <defs>
      <path id="Arial-BoldMT-35" d="M 284 1178
L 1159 1269
Q 1197 972 1381 798
Q 1566 625 1806 625
Q 2081 625 2272 848
Q 2463 1072 2463 1522
Q 2463 1944 2273 2155
Q 2084 2366 1781 2366
Q 1403 2366 1103 2031
L 391 2134
L 841 4519
L 3163 4519
L 3163 3697
L 1506 3697
L 1369 2919
Q 1663 3066 1969 3066
Q 2553 3066 2959 2641
Q 3366 2216 3366 1538
Q 3366 972 3038 528
Q 2591 -78 1797 -78
Q 1163 -78 763 262
Q 363 603 284 1178
z
" transform="scale(0.015625)"/>
      <path id="Arial-BoldMT-2e" d="M 459 0
L 459 878
L 1338 878
L 1338 0
L 459 0
z
" transform="scale(0.015625)"/>
      <path id="Arial-BoldMT-34" d="M 1994 0
L 1994 922
L 119 922
L 119 1691
L 2106 4600
L 2844 4600
L 2844 1694
L 3413 1694
L 3413 922
L 2844 922
L 2844 0
L 1994 0
z
M 1994 1694
L 1994 3259
L 941 1694
L 1994 1694
z
" transform="scale(0.015625)"/>
     </defs>
     <use xlink:href="#Arial-BoldMT-35"/>
     <use xlink:href="#Arial-BoldMT-2e" transform="translate(55.615234 0)"/>
     <use xlink:href="#Arial-BoldMT-34" transform="translate(83.398438 0)"/>
     <use xlink:href="#Arial-BoldMT-34" transform="translate(139.013672 0)"/>
    </g>
   </g>
   <g id="text_8">
    <!-- 1.1 -->
    <g style="fill: #1a1a1a" transform="translate(252.59424 109.510495) scale(0.075 -0.075)">
     <defs>
      <path id="Arial-BoldMT-31" d="M 2519 0
L 1641 0
L 1641 3309
Q 1159 2859 506 2644
L 506 3441
Q 850 3553 1253 3867
Q 1656 4181 1806 4600
L 2519 4600
L 2519 0
z
" transform="scale(0.015625)"/>
     </defs>
     <use xlink:href="#Arial-BoldMT-31"/>
     <use xlink:href="#Arial-BoldMT-2e" transform="translate(55.615234 0)"/>
     <use xlink:href="#Arial-BoldMT-31" transform="translate(83.398438 0)"/>
    </g>
   </g>
   <g id="text_9">
    <!-- scan (oxyz structural scan) -->
    <g style="fill: #1a1a1a" transform="translate(114.159474 17.6355) scale(0.1 -0.1)">
     <defs>
      <path id="Arial-BoldMT-63" d="M 3353 2338
L 2488 2181
Q 2444 2441 2289 2572
Q 2134 2703 1888 2703
Q 1559 2703 1364 2476
Q 1169 2250 1169 1719
Q 1169 1128 1367 884
Q 1566 641 1900 641
Q 2150 641 2309 783
Q 2469 925 2534 1272
L 3397 1125
Q 3263 531 2881 228
Q 2500 -75 1859 -75
Q 1131 -75 698 384
Q 266 844 266 1656
Q 266 2478 700 2936
Q 1134 3394 1875 3394
Q 2481 3394 2839 3133
Q 3197 2872 3353 2338
z
" transform="scale(0.015625)"/>
      <path id="Arial-BoldMT-78" d="M 38 0
L 1234 1709
L 88 3319
L 1159 3319
L 1747 2406
L 2366 3319
L 3397 3319
L 2272 1747
L 3500 0
L 2422 0
L 1747 1028
L 1066 0
L 38 0
z
" transform="scale(0.015625)"/>
      <path id="Arial-BoldMT-7a" d="M 106 0
L 106 684
L 1350 2113
Q 1656 2463 1803 2609
Q 1650 2600 1400 2597
L 228 2591
L 228 3319
L 2972 3319
L 2972 2697
L 1703 1234
L 1256 750
Q 1622 772 1709 772
L 3069 772
L 3069 0
L 106 0
z
" transform="scale(0.015625)"/>
      <path id="Arial-BoldMT-75" d="M 2644 0
L 2644 497
Q 2463 231 2167 78
Q 1872 -75 1544 -75
Q 1209 -75 943 72
Q 678 219 559 484
Q 441 750 441 1219
L 441 3319
L 1319 3319
L 1319 1794
Q 1319 1094 1367 936
Q 1416 778 1544 686
Q 1672 594 1869 594
Q 2094 594 2272 717
Q 2450 841 2515 1023
Q 2581 1206 2581 1919
L 2581 3319
L 3459 3319
L 3459 0
L 2644 0
z
" transform="scale(0.015625)"/>
     </defs>
     <use xlink:href="#Arial-BoldMT-73"/>
     <use xlink:href="#Arial-BoldMT-63" transform="translate(55.615234 0)"/>
     <use xlink:href="#Arial-BoldMT-61" transform="translate(111.230469 0)"/>
     <use xlink:href="#Arial-BoldMT-6e" transform="translate(166.845703 0)"/>
     <use xlink:href="#Arial-BoldMT-20" transform="translate(227.929688 0)"/>
     <use xlink:href="#Arial-BoldMT-28" transform="translate(255.712891 0)"/>
     <use xlink:href="#Arial-BoldMT-6f" transform="translate(289.013672 0)"/>
     <use xlink:href="#Arial-BoldMT-78" transform="translate(350.097656 0)"/>
     <use xlink:href="#Arial-BoldMT-79" transform="translate(405.712891 0)"/>
     <use xlink:href="#Arial-BoldMT-7a" transform="translate(461.328125 0)"/>
     <use xlink:href="#Arial-BoldMT-20" transform="translate(511.328125 0)"/>
     <use xlink:href="#Arial-BoldMT-73" transform="translate(539.111328 0)"/>
     <use xlink:href="#Arial-BoldMT-74" transform="translate(594.726562 0)"/>
     <use xlink:href="#Arial-BoldMT-72" transform="translate(628.027344 0)"/>
     <use xlink:href="#Arial-BoldMT-75" transform="translate(666.943359 0)"/>
     <use xlink:href="#Arial-BoldMT-63" transform="translate(728.027344 0)"/>
     <use xlink:href="#Arial-BoldMT-74" transform="translate(783.642578 0)"/>
     <use xlink:href="#Arial-BoldMT-75" transform="translate(816.943359 0)"/>
     <use xlink:href="#Arial-BoldMT-72" transform="translate(878.027344 0)"/>
     <use xlink:href="#Arial-BoldMT-61" transform="translate(916.943359 0)"/>
     <use xlink:href="#Arial-BoldMT-6c" transform="translate(972.558594 0)"/>
     <use xlink:href="#Arial-BoldMT-20" transform="translate(1000.341797 0)"/>
     <use xlink:href="#Arial-BoldMT-73" transform="translate(1028.125 0)"/>
     <use xlink:href="#Arial-BoldMT-63" transform="translate(1083.740234 0)"/>
     <use xlink:href="#Arial-BoldMT-61" transform="translate(1139.355469 0)"/>
     <use xlink:href="#Arial-BoldMT-6e" transform="translate(1194.970703 0)"/>
     <use xlink:href="#Arial-BoldMT-29" transform="translate(1256.054688 0)"/>
    </g>
   </g>
  </g>
 </g>
 <defs>
  <clipPath id="p76a2f3fa66">
   <rect x="43.611948" y="23.6355" width="270.020052" height="135.233827"/>
  </clipPath>
 </defs>
</svg>
