<?xml version="1.0" encoding="utf-8" standalone="no"?>
<!DOCTYPE svg PUBLIC "-//W3C//DTD SVG 1.1//EN"
  "http://www.w3.org/Graphics/SVG/1.1/DTD/svg11.dtd">
<svg xmlns:xlink="http://www.w3.org/1999/xlink" width="324pt" height="223.2pt" viewBox="0 0 324 223.2" xmlns="http://www.w3.org/2000/svg" version="1.1">
 <metadata>
  <rdf:RDF xmlns:dc="http://purl.org/dc/elements/1.1/" xmlns:cc="http://creativecommons.org/ns#" xmlns:rdf="http://www.w3.org/1999/02/22-rdf-syntax-ns#">
   <cc:Work>
    <dc:type rdf:resource="http://purl.org/dc/dcmitype/StillImage"/>
    <dc:date>2026-07-20T19:07:04.776145</dc:date>
    <dc:format>image/svg+xml</dc:format>
    <dc:creator>
     <cc:Agent>
      <dc:title>Matplotlib v3.10.9, https://matplotlib.org/</dc:title>
     </cc:Agent>
    </dc:creator>
   </cc:Work>
  </rdf:RDF>
 </metadata>
 <defs>
  <style type="text/css">*{stroke-linejoin: round; stroke-linecap: butt}</style>
 </defs>
 <g id="figure_1">
  <g id="patch_1">
   <path d="M 0 223.2
L 324 223.2
L 324 0
L 0 0
z
" style="fill: #ffffff"/>
  </g>
  <g id="axes_1">
   <g id="patch_2">
    <path d="M 43.611948 160.377636
L 313.632 160.377636
L 313.632 23.568
L 43.611948 23.568
z
" style="fill: #ffffff"/>
   </g>
   <g id="matplotlib.axis_1">
    <g id="xtick_1">
     <g id="line2d_1">
      <defs>
       <path id="m17669b875b" d="M 0 0
L 0 4.8
" style="stroke: #1a1a1a"/>
      </defs>
      <g>
       <use xlink:href="#m17669b875b" x="88.902393" y="160.377636" style="fill: #1a1a1a; stroke: #1a1a1a"/>
      </g>
     </g>
     <g id="text_1">
      <!-- baseline (12 cores) -->
      <g style="fill: #1a1a1a" transform="translate(23.209348 198.785454) rotate(-20) scale(0.08 -0.08)">
       <defs>
        <path id="Arial-BoldMT-62" d="M 422 0
L 422 4581
L 1300 4581
L 1300 2931
Q 1706 3394 2263 3394
Q 2869 3394 3266 2955
Q 3663 2516 3663 1694
Q 3663 844 3258 384
Q 2853 -75 2275 -75
Q 1991 -75 1714 67
Q 1438 209 1238 488
L 1238 0
L 422 0
z
M 1294 1731
Q 1294 1216 1456 969
Q 1684 619 2063 619
Q 2353 619 2558 867
Q 2763 1116 2763 1650
Q 2763 2219 2556 2470
Q 2350 2722 2028 2722
Q 1713 2722 1503 2476
Q 1294 2231 1294 1731
z
" transform="scale(0.015625)"/>
        <path id="Arial-BoldMT-61" d="M 1116 2306
L 319 2450
Q 453 2931 781 3162
Q 1109 3394 1756 3394
Q 2344 3394 2631 3255
Q 2919 3116 3036 2902
Q 3153 2688 3153 2116
L 3144 1091
Q 3144 653 3186 445
Q 3228 238 3344 0
L 2475 0
Q 2441 88 2391 259
Q 2369 338 2359 363
Q 2134 144 1878 34
Q 1622 -75 1331 -75
Q 819 -75 523 203
Q 228 481 228 906
Q 228 1188 362 1408
Q 497 1628 739 1745
Q 981 1863 1438 1950
Q 2053 2066 2291 2166
L 2291 2253
Q 2291 2506 2166 2614
Q 2041 2722 1694 2722
Q 1459 2722 1328 2630
Q 1197 2538 1116 2306
z
M 2291 1594
Q 2122 1538 1756 1459
Q 1391 1381 1278 1306
Q 1106 1184 1106 997
Q 1106 813 1243 678
Q 1381 544 1594 544
Q 1831 544 2047 700
Q 2206 819 2256 991
Q 2291 1103 2291 1419
L 2291 1594
z
" transform="scale(0.015625)"/>
        <path id="Arial-BoldMT-73" d="M 150 947
L 1031 1081
Q 1088 825 1259 692
Q 1431 559 1741 559
Q 2081 559 2253 684
Q 2369 772 2369 919
Q 2369 1019 2306 1084
Q 2241 1147 2013 1200
Q 950 1434 666 1628
Q 272 1897 272 2375
Q 272 2806 612 3100
Q 953 3394 1669 3394
Q 2350 3394 2681 3172
Q 3013 2950 3138 2516
L 2309 2363
Q 2256 2556 2107 2659
Q 1959 2763 1684 2763
Q 1338 2763 1188 2666
Q 1088 2597 1088 2488
Q 1088 2394 1175 2328
Q 1294 2241 1995 2081
Q 2697 1922 2975 1691
Q 3250 1456 3250 1038
Q 3250 581 2869 253
Q 2488 -75 1741 -75
Q 1063 -75 667 200
Q 272 475 150 947
z
" transform="scale(0.015625)"/>
        <path id="Arial-BoldMT-65" d="M 2381 1056
L 3256 909
Q 3088 428 2723 176
Q 2359 -75 1813 -75
Q 947 -75 531 491
Q 203 944 203 1634
Q 203 2459 634 2926
Q 1066 3394 1725 3394
Q 2466 3394 2894 2905
Q 3322 2416 3303 1406
L 1103 1406
Q 1113 1016 1316 798
Q 1519 581 1822 581
Q 2028 581 2168 693
Q 2309 806 2381 1056
z
M 2431 1944
Q 2422 2325 2234 2523
Q 2047 2722 1778 2722
Q 1491 2722 1303 2513
Q 1116 2303 1119 1944
L 2431 1944
z
" transform="scale(0.015625)"/>
        <path id="Arial-BoldMT-6c" d="M 459 0
L 459 4581
L 1338 4581
L 1338 0
L 459 0
z
" transform="scale(0.015625)"/>
        <path id="Arial-BoldMT-69" d="M 459 3769
L 459 4581
L 1338 4581
L 1338 3769
L 459 3769
z
M 459 0
L 459 3319
L 1338 3319
L 1338 0
L 459 0
z
" transform="scale(0.015625)"/>
        <path id="Arial-BoldMT-6e" d="M 3478 0
L 2600 0
L 2600 1694
Q 2600 2231 2544 2389
Q 2488 2547 2361 2634
Q 2234 2722 2056 2722
Q 1828 2722 1647 2597
Q 1466 2472 1398 2265
Q 1331 2059 1331 1503
L 1331 0
L 453 0
L 453 3319
L 1269 3319
L 1269 2831
Q 1703 3394 2363 3394
Q 2653 3394 2893 3289
Q 3134 3184 3257 3021
Q 3381 2859 3429 2653
Q 3478 2447 3478 2063
L 3478 0
z
" transform="scale(0.015625)"/>
        <path id="Arial-BoldMT-20" transform="scale(0.015625)"/>
        <path id="Arial-BoldMT-28" d="M 1916 -1347
L 1313 -1347
Q 834 -625 584 153
Q 334 931 334 1659
Q 334 2563 644 3369
Q 913 4069 1325 4659
L 1925 4659
Q 1497 3713 1336 3048
Q 1175 2384 1175 1641
Q 1175 1128 1270 590
Q 1366 53 1531 -431
Q 1641 -750 1916 -1347
z
" transform="scale(0.015625)"/>
        <path id="Arial-BoldMT-31" d="M 2519 0
L 1641 0
L 1641 3309
Q 1159 2859 506 2644
L 506 3441
Q 850 3553 1253 3867
Q 1656 4181 1806 4600
L 2519 4600
L 2519 0
z
" transform="scale(0.015625)"/>
        <path id="Arial-BoldMT-32" d="M 3238 816
L 3238 0
L 159 0
Q 209 463 459 877
Q 709 1291 1447 1975
Q 2041 2528 2175 2725
Q 2356 2997 2356 3263
Q 2356 3556 2198 3714
Q 2041 3872 1763 3872
Q 1488 3872 1325 3706
Q 1163 3541 1138 3156
L 263 3244
Q 341 3969 753 4284
Q 1166 4600 1784 4600
Q 2463 4600 2850 4234
Q 3238 3869 3238 3325
Q 3238 3016 3127 2736
Q 3016 2456 2775 2150
Q 2616 1947 2200 1565
Q 1784 1184 1673 1059
Q 1563 934 1494 816
L 3238 816
z
" transform="scale(0.015625)"/>
        <path id="Arial-BoldMT-63" d="M 3353 2338
L 2488 2181
Q 2444 2441 2289 2572
Q 2134 2703 1888 2703
Q 1559 2703 1364 2476
Q 1169 2250 1169 1719
Q 1169 1128 1367 884
Q 1566 641 1900 641
Q 2150 641 2309 783
Q 2469 925 2534 1272
L 3397 1125
Q 3263 531 2881 228
Q 2500 -75 1859 -75
Q 1131 -75 698 384
Q 266 844 266 1656
Q 266 2478 700 2936
Q 1134 3394 1875 3394
Q 2481 3394 2839 3133
Q 3197 2872 3353 2338
z
" transform="scale(0.015625)"/>
        <path id="Arial-BoldMT-6f" d="M 256 1706
Q 256 2144 472 2553
Q 688 2963 1083 3178
Q 1478 3394 1966 3394
Q 2719 3394 3200 2905
Q 3681 2416 3681 1669
Q 3681 916 3195 420
Q 2709 -75 1972 -75
Q 1516 -75 1102 131
Q 688 338 472 736
Q 256 1134 256 1706
z
M 1156 1659
Q 1156 1166 1390 903
Q 1625 641 1969 641
Q 2313 641 2545 903
Q 2778 1166 2778 1666
Q 2778 2153 2545 2415
Q 2313 2678 1969 2678
Q 1625 2678 1390 2415
Q 1156 2153 1156 1659
z
" transform="scale(0.015625)"/>
        <path id="Arial-BoldMT-72" d="M 1300 0
L 422 0
L 422 3319
L 1238 3319
L 1238 2847
Q 1447 3181 1614 3287
Q 1781 3394 1994 3394
Q 2294 3394 2572 3228
L 2300 2463
Q 2078 2606 1888 2606
Q 1703 2606 1575 2504
Q 1447 2403 1373 2137
Q 1300 1872 1300 1025
L 1300 0
z
" transform="scale(0.015625)"/>
        <path id="Arial-BoldMT-29" d="M 216 -1347
Q 475 -791 581 -494
Q 688 -197 778 190
Q 869 578 912 926
Q 956 1275 956 1641
Q 956 2384 797 3048
Q 638 3713 209 4659
L 806 4659
Q 1278 3988 1539 3234
Q 1800 2481 1800 1706
Q 1800 1053 1594 306
Q 1359 -531 822 -1347
L 216 -1347
z
" transform="scale(0.015625)"/>
       </defs>
       <use xlink:href="#Arial-BoldMT-62"/>
       <use xlink:href="#Arial-BoldMT-61" transform="translate(61.083984 0)"/>
       <use xlink:href="#Arial-BoldMT-73" transform="translate(116.699219 0)"/>
       <use xlink:href="#Arial-BoldMT-65" transform="translate(172.314453 0)"/>
       <use xlink:href="#Arial-BoldMT-6c" transform="translate(227.929688 0)"/>
       <use xlink:href="#Arial-BoldMT-69" transform="translate(255.712891 0)"/>
       <use xlink:href="#Arial-BoldMT-6e" transform="translate(283.496094 0)"/>
       <use xlink:href="#Arial-BoldMT-65" transform="translate(344.580078 0)"/>
       <use xlink:href="#Arial-BoldMT-20" transform="translate(400.195312 0)"/>
       <use xlink:href="#Arial-BoldMT-28" transform="translate(427.978516 0)"/>
       <use xlink:href="#Arial-BoldMT-31" transform="translate(461.279297 0)"/>
       <use xlink:href="#Arial-BoldMT-32" transform="translate(516.894531 0)"/>
       <use xlink:href="#Arial-BoldMT-20" transform="translate(572.509766 0)"/>
       <use xlink:href="#Arial-BoldMT-63" transform="translate(600.292969 0)"/>
       <use xlink:href="#Arial-BoldMT-6f" transform="translate(655.908203 0)"/>
       <use xlink:href="#Arial-BoldMT-72" transform="translate(716.992188 0)"/>
       <use xlink:href="#Arial-BoldMT-65" transform="translate(755.908203 0)"/>
       <use xlink:href="#Arial-BoldMT-73" transform="translate(811.523438 0)"/>
       <use xlink:href="#Arial-BoldMT-29" transform="translate(867.138672 0)"/>
      </g>
     </g>
    </g>
    <g id="xtick_2">
     <g id="line2d_2">
      <g>
       <use xlink:href="#m17669b875b" x="178.621974" y="160.377636" style="fill: #1a1a1a; stroke: #1a1a1a"/>
      </g>
     </g>
     <g id="text_2">
      <!-- schema-required -->
      <g style="fill: #1a1a1a" transform="translate(120.003182 196.106879) rotate(-20) scale(0.08 -0.08)">
       <defs>
        <path id="Arial-BoldMT-68" d="M 1334 4581
L 1334 2897
Q 1759 3394 2350 3394
Q 2653 3394 2897 3281
Q 3141 3169 3264 2994
Q 3388 2819 3433 2606
Q 3478 2394 3478 1947
L 3478 0
L 2600 0
L 2600 1753
Q 2600 2275 2550 2415
Q 2500 2556 2373 2639
Q 2247 2722 2056 2722
Q 1838 2722 1666 2615
Q 1494 2509 1414 2295
Q 1334 2081 1334 1663
L 1334 0
L 456 0
L 456 4581
L 1334 4581
z
" transform="scale(0.015625)"/>
        <path id="Arial-BoldMT-6d" d="M 394 3319
L 1203 3319
L 1203 2866
Q 1638 3394 2238 3394
Q 2556 3394 2790 3262
Q 3025 3131 3175 2866
Q 3394 3131 3647 3262
Q 3900 3394 4188 3394
Q 4553 3394 4806 3245
Q 5059 3097 5184 2809
Q 5275 2597 5275 2122
L 5275 0
L 4397 0
L 4397 1897
Q 4397 2391 4306 2534
Q 4184 2722 3931 2722
Q 3747 2722 3584 2609
Q 3422 2497 3350 2280
Q 3278 2063 3278 1594
L 3278 0
L 2400 0
L 2400 1819
Q 2400 2303 2353 2443
Q 2306 2584 2207 2653
Q 2109 2722 1941 2722
Q 1738 2722 1575 2612
Q 1413 2503 1342 2297
Q 1272 2091 1272 1613
L 1272 0
L 394 0
L 394 3319
z
" transform="scale(0.015625)"/>
        <path id="Arial-BoldMT-2d" d="M 359 1222
L 359 2100
L 2084 2100
L 2084 1222
L 359 1222
z
" transform="scale(0.015625)"/>
        <path id="Arial-BoldMT-71" d="M 2628 -1263
L 2628 406
Q 2456 184 2200 54
Q 1944 -75 1647 -75
Q 1081 -75 716 350
Q 284 847 284 1697
Q 284 2497 689 2945
Q 1094 3394 1694 3394
Q 2025 3394 2267 3253
Q 2509 3113 2697 2828
L 2697 3319
L 3506 3319
L 3506 -1263
L 2628 -1263
z
M 2656 1700
Q 2656 2209 2448 2457
Q 2241 2706 1928 2706
Q 1609 2706 1395 2453
Q 1181 2200 1181 1650
Q 1181 1103 1387 861
Q 1594 619 1897 619
Q 2200 619 2428 891
Q 2656 1163 2656 1700
z
" transform="scale(0.015625)"/>
        <path id="Arial-BoldMT-75" d="M 2644 0
L 2644 497
Q 2463 231 2167 78
Q 1872 -75 1544 -75
Q 1209 -75 943 72
Q 678 219 559 484
Q 441 750 441 1219
L 441 3319
L 1319 3319
L 1319 1794
Q 1319 1094 1367 936
Q 1416 778 1544 686
Q 1672 594 1869 594
Q 2094 594 2272 717
Q 2450 841 2515 1023
Q 2581 1206 2581 1919
L 2581 3319
L 3459 3319
L 3459 0
L 2644 0
z
" transform="scale(0.015625)"/>
        <path id="Arial-BoldMT-64" d="M 3503 0
L 2688 0
L 2688 488
Q 2484 203 2207 64
Q 1931 -75 1650 -75
Q 1078 -75 670 386
Q 263 847 263 1672
Q 263 2516 659 2955
Q 1056 3394 1663 3394
Q 2219 3394 2625 2931
L 2625 4581
L 3503 4581
L 3503 0
z
M 1159 1731
Q 1159 1200 1306 963
Q 1519 619 1900 619
Q 2203 619 2415 876
Q 2628 1134 2628 1647
Q 2628 2219 2422 2470
Q 2216 2722 1894 2722
Q 1581 2722 1370 2473
Q 1159 2225 1159 1731
z
" transform="scale(0.015625)"/>
       </defs>
       <use xlink:href="#Arial-BoldMT-73"/>
       <use xlink:href="#Arial-BoldMT-63" transform="translate(55.615234 0)"/>
       <use xlink:href="#Arial-BoldMT-68" transform="translate(111.230469 0)"/>
       <use xlink:href="#Arial-BoldMT-65" transform="translate(172.314453 0)"/>
       <use xlink:href="#Arial-BoldMT-6d" transform="translate(227.929688 0)"/>
       <use xlink:href="#Arial-BoldMT-61" transform="translate(316.845703 0)"/>
       <use xlink:href="#Arial-BoldMT-2d" transform="translate(372.460938 0)"/>
       <use xlink:href="#Arial-BoldMT-72" transform="translate(405.761719 0)"/>
       <use xlink:href="#Arial-BoldMT-65" transform="translate(444.677734 0)"/>
       <use xlink:href="#Arial-BoldMT-71" transform="translate(500.292969 0)"/>
       <use xlink:href="#Arial-BoldMT-75" transform="translate(561.376953 0)"/>
       <use xlink:href="#Arial-BoldMT-69" transform="translate(622.460938 0)"/>
       <use xlink:href="#Arial-BoldMT-72" transform="translate(650.244141 0)"/>
       <use xlink:href="#Arial-BoldMT-65" transform="translate(689.160156 0)"/>
       <use xlink:href="#Arial-BoldMT-64" transform="translate(744.775391 0)"/>
      </g>
     </g>
    </g>
    <g id="xtick_3">
     <g id="line2d_3">
      <g>
       <use xlink:href="#m17669b875b" x="268.341555" y="160.377636" style="fill: #1a1a1a; stroke: #1a1a1a"/>
      </g>
     </g>
     <g id="text_3">
      <!-- schema-strict -->
      <g style="fill: #1a1a1a" transform="translate(221.417238 191.850438) rotate(-20) scale(0.08 -0.08)">
       <defs>
        <path id="Arial-BoldMT-74" d="M 1981 3319
L 1981 2619
L 1381 2619
L 1381 1281
Q 1381 875 1398 808
Q 1416 741 1477 697
Q 1538 653 1625 653
Q 1747 653 1978 738
L 2053 56
Q 1747 -75 1359 -75
Q 1122 -75 931 4
Q 741 84 652 211
Q 563 338 528 553
Q 500 706 500 1172
L 500 2619
L 97 2619
L 97 3319
L 500 3319
L 500 3978
L 1381 4491
L 1381 3319
L 1981 3319
z
" transform="scale(0.015625)"/>
       </defs>
       <use xlink:href="#Arial-BoldMT-73"/>
       <use xlink:href="#Arial-BoldMT-63" transform="translate(55.615234 0)"/>
       <use xlink:href="#Arial-BoldMT-68" transform="translate(111.230469 0)"/>
       <use xlink:href="#Arial-BoldMT-65" transform="translate(172.314453 0)"/>
       <use xlink:href="#Arial-BoldMT-6d" transform="translate(227.929688 0)"/>
       <use xlink:href="#Arial-BoldMT-61" transform="translate(316.845703 0)"/>
       <use xlink:href="#Arial-BoldMT-2d" transform="translate(372.460938 0)"/>
       <use xlink:href="#Arial-BoldMT-73" transform="translate(405.761719 0)"/>
       <use xlink:href="#Arial-BoldMT-74" transform="translate(461.376953 0)"/>
       <use xlink:href="#Arial-BoldMT-72" transform="translate(494.677734 0)"/>
       <use xlink:href="#Arial-BoldMT-69" transform="translate(533.59375 0)"/>
       <use xlink:href="#Arial-BoldMT-63" transform="translate(561.376953 0)"/>
       <use xlink:href="#Arial-BoldMT-74" transform="translate(616.992188 0)"/>
      </g>
     </g>
    </g>
    <g id="text_4">
     <!-- reader -->
     <g style="fill: #1a1a1a" transform="translate(163.945974 211.239161) scale(0.096 -0.096)">
      <use xlink:href="#Arial-BoldMT-72"/>
      <use xlink:href="#Arial-BoldMT-65" transform="translate(38.916016 0)"/>
      <use xlink:href="#Arial-BoldMT-61" transform="translate(94.53125 0)"/>
      <use xlink:href="#Arial-BoldMT-64" transform="translate(150.146484 0)"/>
      <use xlink:href="#Arial-BoldMT-65" transform="translate(211.230469 0)"/>
      <use xlink:href="#Arial-BoldMT-72" transform="translate(266.845703 0)"/>
     </g>
    </g>
   </g>
   <g id="matplotlib.axis_2">
    <g id="ytick_1">
     <g id="line2d_4">
      <path d="M 43.611948 76.45142
L 313.632 76.45142
" clip-path="url(#p532603dd10)" style="fill: none; stroke: #e9e9e9; stroke-width: 0.7; stroke-linecap: round"/>
     </g>
     <g id="line2d_5">
      <defs>
       <path id="m9993341bf4" d="M 0 0
L -4.5 0
" style="stroke: #1a1a1a; stroke-width: 1.1"/>
      </defs>
      <g>
       <use xlink:href="#m9993341bf4" x="43.611948" y="76.45142" style="fill: #1a1a1a; stroke: #1a1a1a; stroke-width: 1.1"/>
      </g>
     </g>
     <g id="text_5">
      <!-- $\mathdefault{10^{7}}$ -->
      <g style="fill: #1a1a1a" transform="translate(23.051948 80.53642) scale(0.08 -0.08)">
       <defs>
        <path id="ArialMT-31" d="M 2384 0
L 1822 0
L 1822 3584
Q 1619 3391 1289 3197
Q 959 3003 697 2906
L 697 3450
Q 1169 3672 1522 3987
Q 1875 4303 2022 4600
L 2384 4600
L 2384 0
z
" transform="scale(0.015625)"/>
        <path id="ArialMT-30" d="M 266 2259
Q 266 3072 433 3567
Q 600 4063 929 4331
Q 1259 4600 1759 4600
Q 2128 4600 2406 4451
Q 2684 4303 2865 4023
Q 3047 3744 3150 3342
Q 3253 2941 3253 2259
Q 3253 1453 3087 958
Q 2922 463 2592 192
Q 2263 -78 1759 -78
Q 1097 -78 719 397
Q 266 969 266 2259
z
M 844 2259
Q 844 1131 1108 757
Q 1372 384 1759 384
Q 2147 384 2411 759
Q 2675 1134 2675 2259
Q 2675 3391 2411 3762
Q 2147 4134 1753 4134
Q 1366 4134 1134 3806
Q 844 3388 844 2259
z
" transform="scale(0.015625)"/>
        <path id="ArialMT-37" d="M 303 3981
L 303 4522
L 3269 4522
L 3269 4084
Q 2831 3619 2401 2847
Q 1972 2075 1738 1259
Q 1569 684 1522 0
L 944 0
Q 953 541 1156 1306
Q 1359 2072 1739 2783
Q 2119 3494 2547 3981
L 303 3981
z
" transform="scale(0.015625)"/>
       </defs>
       <use xlink:href="#ArialMT-31" transform="translate(0 0.846875)"/>
       <use xlink:href="#ArialMT-30" transform="translate(55.615234 0.846875)"/>
       <use xlink:href="#ArialMT-37" transform="translate(112.972813 70.540625) scale(0.7)"/>
      </g>
     </g>
    </g>
    <g id="ytick_2">
     <g id="line2d_6">
      <defs>
       <path id="mcc93d8dc1e" d="M 0 0
L -2.5 0
" style="stroke: #1a1a1a; stroke-width: 0.8"/>
      </defs>
      <g>
       <use xlink:href="#mcc93d8dc1e" x="43.611948" y="154.776603" style="fill: #1a1a1a; stroke: #1a1a1a; stroke-width: 0.8"/>
      </g>
     </g>
    </g>
    <g id="ytick_3">
     <g id="line2d_7">
      <g>
       <use xlink:href="#mcc93d8dc1e" x="43.611948" y="135.044168" style="fill: #1a1a1a; stroke: #1a1a1a; stroke-width: 0.8"/>
      </g>
     </g>
    </g>
    <g id="ytick_4">
     <g id="line2d_8">
      <g>
       <use xlink:href="#mcc93d8dc1e" x="43.611948" y="121.043783" style="fill: #1a1a1a; stroke: #1a1a1a; stroke-width: 0.8"/>
      </g>
     </g>
    </g>
    <g id="ytick_5">
     <g id="line2d_9">
      <g>
       <use xlink:href="#mcc93d8dc1e" x="43.611948" y="110.18424" style="fill: #1a1a1a; stroke: #1a1a1a; stroke-width: 0.8"/>
      </g>
     </g>
    </g>
    <g id="ytick_6">
     <g id="line2d_10">
      <g>
       <use xlink:href="#mcc93d8dc1e" x="43.611948" y="101.311348" style="fill: #1a1a1a; stroke: #1a1a1a; stroke-width: 0.8"/>
      </g>
     </g>
    </g>
    <g id="ytick_7">
     <g id="line2d_11">
      <g>
       <use xlink:href="#mcc93d8dc1e" x="43.611948" y="93.809425" style="fill: #1a1a1a; stroke: #1a1a1a; stroke-width: 0.8"/>
      </g>
     </g>
    </g>
    <g id="ytick_8">
     <g id="line2d_12">
      <g>
       <use xlink:href="#mcc93d8dc1e" x="43.611948" y="87.310963" style="fill: #1a1a1a; stroke: #1a1a1a; stroke-width: 0.8"/>
      </g>
     </g>
    </g>
    <g id="ytick_9">
     <g id="line2d_13">
      <g>
       <use xlink:href="#mcc93d8dc1e" x="43.611948" y="81.578913" style="fill: #1a1a1a; stroke: #1a1a1a; stroke-width: 0.8"/>
      </g>
     </g>
    </g>
    <g id="ytick_10">
     <g id="line2d_14">
      <g>
       <use xlink:href="#mcc93d8dc1e" x="43.611948" y="42.7186" style="fill: #1a1a1a; stroke: #1a1a1a; stroke-width: 0.8"/>
      </g>
     </g>
    </g>
    <g id="text_6">
     <!-- atoms/s — higher is better -->
     <g style="fill: #1a1a1a" transform="translate(17.031448 152.250318) rotate(-90) scale(0.096 -0.096)">
      <defs>
       <path id="Arial-BoldMT-2f" d="M -9 -78
L 1125 4659
L 1784 4659
L 638 -78
L -9 -78
z
" transform="scale(0.015625)"/>
       <path id="Arial-BoldMT-2014" d="M 0 1331
L 0 1988
L 6400 1988
L 6400 1331
L 0 1331
z
" transform="scale(0.015625)"/>
       <path id="Arial-BoldMT-67" d="M 378 -219
L 1381 -341
Q 1406 -516 1497 -581
Q 1622 -675 1891 -675
Q 2234 -675 2406 -572
Q 2522 -503 2581 -350
Q 2622 -241 2622 53
L 2622 538
Q 2228 0 1628 0
Q 959 0 569 566
Q 263 1013 263 1678
Q 263 2513 664 2953
Q 1066 3394 1663 3394
Q 2278 3394 2678 2853
L 2678 3319
L 3500 3319
L 3500 341
Q 3500 -247 3403 -537
Q 3306 -828 3131 -993
Q 2956 -1159 2664 -1253
Q 2372 -1347 1925 -1347
Q 1081 -1347 728 -1058
Q 375 -769 375 -325
Q 375 -281 378 -219
z
M 1163 1728
Q 1163 1200 1367 954
Q 1572 709 1872 709
Q 2194 709 2416 961
Q 2638 1213 2638 1706
Q 2638 2222 2425 2472
Q 2213 2722 1888 2722
Q 1572 2722 1367 2476
Q 1163 2231 1163 1728
z
" transform="scale(0.015625)"/>
      </defs>
      <use xlink:href="#Arial-BoldMT-61"/>
      <use xlink:href="#Arial-BoldMT-74" transform="translate(55.615234 0)"/>
      <use xlink:href="#Arial-BoldMT-6f" transform="translate(88.916016 0)"/>
      <use xlink:href="#Arial-BoldMT-6d" transform="translate(150 0)"/>
      <use xlink:href="#Arial-BoldMT-73" transform="translate(238.916016 0)"/>
      <use xlink:href="#Arial-BoldMT-2f" transform="translate(294.53125 0)"/>
      <use xlink:href="#Arial-BoldMT-73" transform="translate(322.314453 0)"/>
      <use xlink:href="#Arial-BoldMT-20" transform="translate(377.929688 0)"/>
      <use xlink:href="#Arial-BoldMT-2014" transform="translate(405.712891 0)"/>
      <use xlink:href="#Arial-BoldMT-20" transform="translate(505.712891 0)"/>
      <use xlink:href="#Arial-BoldMT-68" transform="translate(533.496094 0)"/>
      <use xlink:href="#Arial-BoldMT-69" transform="translate(594.580078 0)"/>
      <use xlink:href="#Arial-BoldMT-67" transform="translate(622.363281 0)"/>
      <use xlink:href="#Arial-BoldMT-68" transform="translate(683.447266 0)"/>
      <use xlink:href="#Arial-BoldMT-65" transform="translate(744.53125 0)"/>
      <use xlink:href="#Arial-BoldMT-72" transform="translate(800.146484 0)"/>
      <use xlink:href="#Arial-BoldMT-20" transform="translate(839.0625 0)"/>
      <use xlink:href="#Arial-BoldMT-69" transform="translate(866.845703 0)"/>
      <use xlink:href="#Arial-BoldMT-73" transform="translate(894.628906 0)"/>
      <use xlink:href="#Arial-BoldMT-20" transform="translate(950.244141 0)"/>
      <use xlink:href="#Arial-BoldMT-62" transform="translate(978.027344 0)"/>
      <use xlink:href="#Arial-BoldMT-65" transform="translate(1039.111328 0)"/>
      <use xlink:href="#Arial-BoldMT-74" transform="translate(1094.726562 0)"/>
      <use xlink:href="#Arial-BoldMT-74" transform="translate(1128.027344 0)"/>
      <use xlink:href="#Arial-BoldMT-65" transform="translate(1161.328125 0)"/>
      <use xlink:href="#Arial-BoldMT-72" transform="translate(1216.943359 0)"/>
     </g>
    </g>
   </g>
   <g id="patch_3">
    <path d="M 55.885587 112918.860042
L 121.919199 112918.860042
L 121.919199 77.033255
L 55.885587 77.033255
z
" clip-path="url(#p532603dd10)" style="fill: #999999; stroke: #262626; stroke-width: 0.8; stroke-linejoin: miter"/>
   </g>
   <g id="patch_4">
    <path d="M 145.605168 112918.860042
L 211.63878 112918.860042
L 211.63878 90.731494
L 145.605168 90.731494
z
" clip-path="url(#p532603dd10)" style="fill: #999999; stroke: #262626; stroke-width: 0.8; stroke-linejoin: miter"/>
   </g>
   <g id="patch_5">
    <path d="M 235.324749 112918.860042
L 301.358361 112918.860042
L 301.358361 92.911995
L 235.324749 92.911995
z
" clip-path="url(#p532603dd10)" style="fill: #999999; stroke: #262626; stroke-width: 0.8; stroke-linejoin: miter"/>
   </g>
   <g id="patch_6">
    <path d="M 43.611948 160.377636
L 43.611948 23.568
" style="fill: none; stroke: #262626; stroke-width: 1.2; stroke-linejoin: miter; stroke-linecap: square"/>
   </g>
   <g id="patch_7">
    <path d="M 313.632 160.377636
L 313.632 23.568
" style="fill: none; stroke: #262626; stroke-width: 1.2; stroke-linejoin: miter; stroke-linecap: square"/>
   </g>
   <g id="patch_8">
    <path d="M 43.611948 160.377636
L 313.632 160.377636
" style="fill: none; stroke: #262626; stroke-width: 1.2; stroke-linejoin: miter; stroke-linecap: square"/>
   </g>
   <g id="patch_9">
    <path d="M 43.611948 23.568
L 313.632 23.568
" style="fill: none; stroke: #262626; stroke-width: 1.2; stroke-linejoin: miter; stroke-linecap: square"/>
   </g>
   <g id="text_7">
    <!-- 9.88M -->
    <g style="fill: #1a1a1a" transform="translate(78.480908 73.553177) scale(0.075 -0.075)">
     <defs>
      <path id="Arial-BoldMT-39" d="M 291 1059
L 1141 1153
Q 1172 894 1303 769
Q 1434 644 1650 644
Q 1922 644 2112 894
Q 2303 1144 2356 1931
Q 2025 1547 1528 1547
Q 988 1547 595 1964
Q 203 2381 203 3050
Q 203 3747 617 4173
Q 1031 4600 1672 4600
Q 2369 4600 2816 4061
Q 3263 3522 3263 2288
Q 3263 1031 2797 475
Q 2331 -81 1584 -81
Q 1047 -81 715 205
Q 384 491 291 1059
z
M 2278 2978
Q 2278 3403 2083 3637
Q 1888 3872 1631 3872
Q 1388 3872 1227 3680
Q 1066 3488 1066 3050
Q 1066 2606 1241 2398
Q 1416 2191 1678 2191
Q 1931 2191 2104 2391
Q 2278 2591 2278 2978
z
" transform="scale(0.015625)"/>
      <path id="Arial-BoldMT-2e" d="M 459 0
L 459 878
L 1338 878
L 1338 0
L 459 0
z
" transform="scale(0.015625)"/>
      <path id="Arial-BoldMT-38" d="M 1025 2472
Q 684 2616 529 2867
Q 375 3119 375 3419
Q 375 3931 733 4265
Q 1091 4600 1750 4600
Q 2403 4600 2764 4265
Q 3125 3931 3125 3419
Q 3125 3100 2959 2851
Q 2794 2603 2494 2472
Q 2875 2319 3073 2025
Q 3272 1731 3272 1347
Q 3272 713 2867 316
Q 2463 -81 1791 -81
Q 1166 -81 750 247
Q 259 634 259 1309
Q 259 1681 443 1992
Q 628 2303 1025 2472
z
M 1206 3356
Q 1206 3094 1354 2947
Q 1503 2800 1750 2800
Q 2000 2800 2150 2948
Q 2300 3097 2300 3359
Q 2300 3606 2151 3754
Q 2003 3903 1759 3903
Q 1506 3903 1356 3753
Q 1206 3603 1206 3356
z
M 1125 1394
Q 1125 1031 1311 828
Q 1497 625 1775 625
Q 2047 625 2225 820
Q 2403 1016 2403 1384
Q 2403 1706 2222 1901
Q 2041 2097 1763 2097
Q 1441 2097 1283 1875
Q 1125 1653 1125 1394
z
" transform="scale(0.015625)"/>
      <path id="Arial-BoldMT-4d" d="M 453 0
L 453 4581
L 1838 4581
L 2669 1456
L 3491 4581
L 4878 4581
L 4878 0
L 4019 0
L 4019 3606
L 3109 0
L 2219 0
L 1313 3606
L 1313 0
L 453 0
z
" transform="scale(0.015625)"/>
     </defs>
     <use xlink:href="#Arial-BoldMT-39"/>
     <use xlink:href="#Arial-BoldMT-2e" transform="translate(55.615234 0)"/>
     <use xlink:href="#Arial-BoldMT-38" transform="translate(83.398438 0)"/>
     <use xlink:href="#Arial-BoldMT-38" transform="translate(139.013672 0)"/>
     <use xlink:href="#Arial-BoldMT-4d" transform="translate(194.628906 0)"/>
    </g>
   </g>
   <g id="text_8">
    <!-- 7.46M -->
    <g style="fill: #1a1a1a" transform="translate(168.20049 87.251416) scale(0.075 -0.075)">
     <defs>
      <path id="Arial-BoldMT-37" d="M 272 3703
L 272 4519
L 3275 4519
L 3275 3881
Q 2903 3516 2518 2831
Q 2134 2147 1932 1376
Q 1731 606 1734 0
L 888 0
Q 909 950 1279 1937
Q 1650 2925 2269 3703
L 272 3703
z
" transform="scale(0.015625)"/>
      <path id="Arial-BoldMT-34" d="M 1994 0
L 1994 922
L 119 922
L 119 1691
L 2106 4600
L 2844 4600
L 2844 1694
L 3413 1694
L 3413 922
L 2844 922
L 2844 0
L 1994 0
z
M 1994 1694
L 1994 3259
L 941 1694
L 1994 1694
z
" transform="scale(0.015625)"/>
      <path id="Arial-BoldMT-36" d="M 3247 3459
L 2397 3366
Q 2366 3628 2234 3753
Q 2103 3878 1894 3878
Q 1616 3878 1423 3628
Q 1231 3378 1181 2588
Q 1509 2975 1997 2975
Q 2547 2975 2939 2556
Q 3331 2138 3331 1475
Q 3331 772 2918 347
Q 2506 -78 1859 -78
Q 1166 -78 719 461
Q 272 1000 272 2228
Q 272 3488 737 4044
Q 1203 4600 1947 4600
Q 2469 4600 2811 4308
Q 3153 4016 3247 3459
z
M 1256 1544
Q 1256 1116 1453 883
Q 1650 650 1903 650
Q 2147 650 2309 840
Q 2472 1031 2472 1466
Q 2472 1913 2297 2120
Q 2122 2328 1859 2328
Q 1606 2328 1431 2129
Q 1256 1931 1256 1544
z
" transform="scale(0.015625)"/>
     </defs>
     <use xlink:href="#Arial-BoldMT-37"/>
     <use xlink:href="#Arial-BoldMT-2e" transform="translate(55.615234 0)"/>
     <use xlink:href="#Arial-BoldMT-34" transform="translate(83.398438 0)"/>
     <use xlink:href="#Arial-BoldMT-36" transform="translate(139.013672 0)"/>
     <use xlink:href="#Arial-BoldMT-4d" transform="translate(194.628906 0)"/>
    </g>
   </g>
   <g id="text_9">
    <!-- 7.13M -->
    <g style="fill: #1a1a1a" transform="translate(257.920071 89.431917) scale(0.075 -0.075)">
     <defs>
      <path id="Arial-BoldMT-33" d="M 241 1216
L 1091 1319
Q 1131 994 1309 822
Q 1488 650 1741 650
Q 2013 650 2198 856
Q 2384 1063 2384 1413
Q 2384 1744 2206 1937
Q 2028 2131 1772 2131
Q 1603 2131 1369 2066
L 1466 2781
Q 1822 2772 2009 2936
Q 2197 3100 2197 3372
Q 2197 3603 2059 3740
Q 1922 3878 1694 3878
Q 1469 3878 1309 3722
Q 1150 3566 1116 3266
L 306 3403
Q 391 3819 561 4067
Q 731 4316 1036 4458
Q 1341 4600 1719 4600
Q 2366 4600 2756 4188
Q 3078 3850 3078 3425
Q 3078 2822 2419 2463
Q 2813 2378 3048 2084
Q 3284 1791 3284 1375
Q 3284 772 2843 347
Q 2403 -78 1747 -78
Q 1125 -78 715 280
Q 306 638 241 1216
z
" transform="scale(0.015625)"/>
     </defs>
     <use xlink:href="#Arial-BoldMT-37"/>
     <use xlink:href="#Arial-BoldMT-2e" transform="translate(55.615234 0)"/>
     <use xlink:href="#Arial-BoldMT-31" transform="translate(83.398438 0)"/>
     <use xlink:href="#Arial-BoldMT-33" transform="translate(139.013672 0)"/>
     <use xlink:href="#Arial-BoldMT-4d" transform="translate(194.628906 0)"/>
    </g>
   </g>
   <g id="text_10">
    <!-- schema_read/mace_mixed -->
    <g style="fill: #1a1a1a" transform="translate(115.251662 17.568) scale(0.1 -0.1)">
     <defs>
      <path id="Arial-BoldMT-5f" d="M -59 -1266
L -59 -697
L 3591 -697
L 3591 -1266
L -59 -1266
z
" transform="scale(0.015625)"/>
      <path id="Arial-BoldMT-78" d="M 38 0
L 1234 1709
L 88 3319
L 1159 3319
L 1747 2406
L 2366 3319
L 3397 3319
L 2272 1747
L 3500 0
L 2422 0
L 1747 1028
L 1066 0
L 38 0
z
" transform="scale(0.015625)"/>
     </defs>
     <use xlink:href="#Arial-BoldMT-73"/>
     <use xlink:href="#Arial-BoldMT-63" transform="translate(55.615234 0)"/>
     <use xlink:href="#Arial-BoldMT-68" transform="translate(111.230469 0)"/>
     <use xlink:href="#Arial-BoldMT-65" transform="translate(172.314453 0)"/>
     <use xlink:href="#Arial-BoldMT-6d" transform="translate(227.929688 0)"/>
     <use xlink:href="#Arial-BoldMT-61" transform="translate(316.845703 0)"/>
     <use xlink:href="#Arial-BoldMT-5f" transform="translate(372.460938 0)"/>
     <use xlink:href="#Arial-BoldMT-72" transform="translate(428.076172 0)"/>
     <use xlink:href="#Arial-BoldMT-65" transform="translate(466.992188 0)"/>
     <use xlink:href="#Arial-BoldMT-61" transform="translate(522.607422 0)"/>
     <use xlink:href="#Arial-BoldMT-64" transform="translate(578.222656 0)"/>
     <use xlink:href="#Arial-BoldMT-2f" transform="translate(639.306641 0)"/>
     <use xlink:href="#Arial-BoldMT-6d" transform="translate(667.089844 0)"/>
     <use xlink:href="#Arial-BoldMT-61" transform="translate(756.005859 0)"/>
     <use xlink:href="#Arial-BoldMT-63" transform="translate(811.621094 0)"/>
     <use xlink:href="#Arial-BoldMT-65" transform="translate(867.236328 0)"/>
     <use xlink:href="#Arial-BoldMT-5f" transform="translate(922.851562 0)"/>
     <use xlink:href="#Arial-BoldMT-6d" transform="translate(978.466797 0)"/>
     <use xlink:href="#Arial-BoldMT-69" transform="translate(1067.382812 0)"/>
     <use xlink:href="#Arial-BoldMT-78" transform="translate(1095.166016 0)"/>
     <use xlink:href="#Arial-BoldMT-65" transform="translate(1150.78125 0)"/>
     <use xlink:href="#Arial-BoldMT-64" transform="translate(1206.396484 0)"/>
    </g>
   </g>
  </g>
 </g>
 <defs>
  <clipPath id="p532603dd10">
   <rect x="43.611948" y="23.568" width="270.020052" height="136.809636"/>
  </clipPath>
 </defs>
</svg>
